<svg width="28" height="28" viewBox="0 0 28 28" fill="none" xmlns="http://www.w3.org/2000/svg">
<path d="M8.4013 0.667969H19.6013C23.868 0.667969 27.3346 4.13464 27.3346 8.4013V19.6013C27.3346 21.6523 26.5199 23.6193 25.0696 25.0696C23.6193 26.5199 21.6523 27.3346 19.6013 27.3346H8.4013C4.13464 27.3346 0.667969 23.868 0.667969 19.6013V8.4013C0.667969 6.35029 1.48273 4.38329 2.93301 2.93301C4.38329 1.48273 6.35029 0.667969 8.4013 0.667969ZM8.13463 3.33464C6.8616 3.33464 5.6407 3.84035 4.74052 4.74052C3.84035 5.6407 3.33464 6.8616 3.33464 8.13463V19.868C3.33464 22.5213 5.4813 24.668 8.13463 24.668H19.868C21.141 24.668 22.3619 24.1623 23.2621 23.2621C24.1623 22.3619 24.668 21.141 24.668 19.868V8.13463C24.668 5.4813 22.5213 3.33464 19.868 3.33464H8.13463ZM21.0013 5.33464C21.4433 5.33464 21.8673 5.51023 22.1798 5.82279C22.4924 6.13535 22.668 6.55927 22.668 7.0013C22.668 7.44333 22.4924 7.86725 22.1798 8.17981C21.8673 8.49237 21.4433 8.66797 21.0013 8.66797C20.5593 8.66797 20.1353 8.49237 19.8228 8.17981C19.5102 7.86725 19.3346 7.44333 19.3346 7.0013C19.3346 6.55927 19.5102 6.13535 19.8228 5.82279C20.1353 5.51023 20.5593 5.33464 21.0013 5.33464ZM14.0013 7.33463C15.7694 7.33464 17.4651 8.03701 18.7153 9.28726C19.9656 10.5375 20.668 12.2332 20.668 14.0013C20.668 15.7694 19.9656 17.4651 18.7153 18.7153C17.4651 19.9656 15.7694 20.668 14.0013 20.668C12.2332 20.668 10.5375 19.9656 9.28726 18.7153C8.03701 17.4651 7.33463 15.7694 7.33463 14.0013C7.33463 12.2332 8.03701 10.5375 9.28726 9.28726C10.5375 8.03701 12.2332 7.33464 14.0013 7.33463ZM14.0013 10.0013C12.9404 10.0013 11.923 10.4227 11.1729 11.1729C10.4227 11.923 10.0013 12.9404 10.0013 14.0013C10.0013 15.0622 10.4227 16.0796 11.1729 16.8297C11.923 17.5799 12.9404 18.0013 14.0013 18.0013C15.0622 18.0013 16.0796 17.5799 16.8297 16.8297C17.5799 16.0796 18.0013 15.0622 18.0013 14.0013C18.0013 12.9404 17.5799 11.923 16.8297 11.1729C16.0796 10.4227 15.0622 10.0013 14.0013 10.0013Z" fill="#27292C"/>
</svg>
