<svg width="20" height="20" viewBox="0 0 20 20" fill="none" xmlns="http://www.w3.org/2000/svg">
<path d="M18.125 9.375H16.8461C16.7758 8.59373 16.5713 7.83045 16.2414 7.11875L17.3492 6.47891C17.4928 6.39603 17.5976 6.2595 17.6405 6.09936C17.6835 5.93922 17.661 5.76859 17.5781 5.625C17.4952 5.48141 17.3587 5.37663 17.1986 5.3337C17.0384 5.29077 16.8678 5.31321 16.7242 5.39609L15.6148 6.03672C15.1616 5.3968 14.6032 4.83836 13.9633 4.38516L14.6039 3.27578C14.6868 3.13219 14.7092 2.96156 14.6663 2.80142C14.6234 2.64128 14.5186 2.50476 14.375 2.42188C14.2314 2.33899 14.0608 2.31655 13.9006 2.35948C13.7405 2.40241 13.604 2.50719 13.5211 2.65078L12.8813 3.75859C12.1696 3.42874 11.4063 3.22417 10.625 3.15391V1.875C10.625 1.70924 10.5592 1.55027 10.4419 1.43306C10.3247 1.31585 10.1658 1.25 10 1.25C9.83424 1.25 9.67527 1.31585 9.55806 1.43306C9.44085 1.55027 9.375 1.70924 9.375 1.875V3.15391C8.59373 3.22417 7.83045 3.42874 7.11875 3.75859L6.47891 2.65078C6.43787 2.57968 6.38323 2.51736 6.31811 2.46738C6.25298 2.4174 6.17865 2.38073 6.09936 2.35948C6.02007 2.33822 5.93737 2.33279 5.85597 2.3435C5.77458 2.3542 5.6961 2.38084 5.625 2.42188C5.48141 2.50476 5.37663 2.64128 5.3337 2.80142C5.29077 2.96156 5.31321 3.13219 5.39609 3.27578L6.03672 4.38516C5.3968 4.83836 4.83836 5.3968 4.38516 6.03672L3.27578 5.39609C3.13219 5.31321 2.96156 5.29077 2.80142 5.3337C2.64128 5.37663 2.50476 5.48141 2.42188 5.625C2.33899 5.76859 2.31655 5.93922 2.35948 6.09936C2.40241 6.2595 2.50719 6.39603 2.65078 6.47891L3.75859 7.11875C3.42874 7.83045 3.22417 8.59373 3.15391 9.375H1.875C1.70924 9.375 1.55027 9.44085 1.43306 9.55806C1.31585 9.67527 1.25 9.83424 1.25 10C1.25 10.1658 1.31585 10.3247 1.43306 10.4419C1.55027 10.5592 1.70924 10.625 1.875 10.625H3.15391C3.22417 11.4063 3.42874 12.1696 3.75859 12.8813L2.65078 13.5211C2.53156 13.5899 2.43837 13.696 2.38567 13.8232C2.33297 13.9503 2.32371 14.0913 2.35933 14.2242C2.39495 14.3572 2.47345 14.4747 2.58265 14.5584C2.69185 14.6422 2.82565 14.6876 2.96328 14.6875C3.07302 14.6878 3.18087 14.659 3.27578 14.6039L4.38516 13.9633C4.83836 14.6032 5.3968 15.1616 6.03672 15.6148L5.39609 16.7242C5.31321 16.8678 5.29077 17.0384 5.3337 17.1986C5.37663 17.3587 5.48141 17.4952 5.625 17.5781C5.76859 17.661 5.93922 17.6835 6.09936 17.6405C6.2595 17.5976 6.39603 17.4928 6.47891 17.3492L7.11875 16.2414C7.83045 16.5713 8.59373 16.7758 9.375 16.8461V18.125C9.375 18.2908 9.44085 18.4497 9.55806 18.5669C9.67527 18.6842 9.83424 18.75 10 18.75C10.1658 18.75 10.3247 18.6842 10.4419 18.5669C10.5592 18.4497 10.625 18.2908 10.625 18.125V16.8461C11.4063 16.7758 12.1696 16.5713 12.8813 16.2414L13.5211 17.3492C13.604 17.4928 13.7405 17.5976 13.9006 17.6405C14.0608 17.6835 14.2314 17.661 14.375 17.5781C14.5186 17.4952 14.6234 17.3587 14.6663 17.1986C14.7092 17.0384 14.6868 16.8678 14.6039 16.7242L13.9633 15.6148C14.6032 15.1616 15.1616 14.6032 15.6148 13.9633L16.7242 14.6039C16.7953 14.645 16.8738 14.6716 16.9552 14.6823C17.0366 14.693 17.1193 14.6876 17.1986 14.6664C17.2779 14.6451 17.3522 14.6084 17.4173 14.5584C17.4825 14.5084 17.5371 14.4461 17.5781 14.375C17.6611 14.2315 17.6837 14.0609 17.6409 13.9008C17.5981 13.7407 17.4935 13.6041 17.35 13.5211L16.2422 12.8813C16.5718 12.1695 16.7761 11.4062 16.8461 10.625H18.125C18.2908 10.625 18.4497 10.5592 18.5669 10.4419C18.6842 10.3247 18.75 10.1658 18.75 10C18.75 9.83424 18.6842 9.67527 18.5669 9.55806C18.4497 9.44085 18.2908 9.375 18.125 9.375ZM10 4.375C11.383 4.37664 12.7171 4.8872 13.7479 5.80933C14.7787 6.73146 15.434 8.00067 15.5891 9.375H10.3609L7.74688 4.84766C8.45701 4.53554 9.22431 4.37458 10 4.375ZM4.375 10C4.37548 9.11887 4.58294 8.25018 4.98068 7.46393C5.37842 6.67769 5.9553 5.99587 6.66484 5.47344L9.27812 10L6.66484 14.5266C5.9553 14.0041 5.37842 13.3223 4.98068 12.5361C4.58294 11.7498 4.37548 10.8811 4.375 10ZM10 15.625C9.22458 15.6267 8.4573 15.467 7.74688 15.1562L10.3609 10.625H15.5891C15.434 11.9993 14.7787 13.2685 13.7479 14.1907C12.7171 15.1128 11.383 15.6234 10 15.625Z" fill="#189DEF"/>
</svg>
