<svg width="15" height="18" viewBox="0 0 15 18" fill="none" xmlns="http://www.w3.org/2000/svg">
<path d="M7.5 4C6.88193 4 6.27775 4.18328 5.76384 4.52666C5.24994 4.87004 4.8494 5.3581 4.61288 5.92911C4.37635 6.50013 4.31447 7.12847 4.43505 7.73466C4.55562 8.34085 4.85325 8.89767 5.29029 9.33471C5.72733 9.77175 6.28415 10.0694 6.89034 10.19C7.49653 10.3105 8.12487 10.2486 8.69589 10.0121C9.2669 9.7756 9.75496 9.37506 10.0983 8.86116C10.4417 8.34725 10.625 7.74307 10.625 7.125C10.625 6.2962 10.2958 5.50134 9.70971 4.91529C9.12366 4.32924 8.3288 4 7.5 4ZM7.5 9C7.12916 9 6.76665 8.89003 6.45831 8.68401C6.14996 8.47798 5.90964 8.18514 5.76773 7.84253C5.62581 7.49992 5.58868 7.12292 5.66103 6.75921C5.73337 6.39549 5.91195 6.0614 6.17417 5.79917C6.4364 5.53695 6.77049 5.35837 7.13421 5.28603C7.49792 5.21368 7.87492 5.25081 8.21753 5.39273C8.56014 5.53464 8.85298 5.77496 9.05901 6.08331C9.26503 6.39165 9.375 6.75416 9.375 7.125C9.375 7.62228 9.17746 8.09919 8.82583 8.45083C8.47419 8.80246 7.99728 9 7.5 9ZM7.5 0.25C5.67727 0.252068 3.92979 0.97706 2.64092 2.26592C1.35206 3.55479 0.627068 5.30227 0.625 7.125C0.625 9.57812 1.75859 12.1781 3.90625 14.6445C4.87127 15.759 5.95739 16.7626 7.14453 17.6367C7.24962 17.7103 7.37482 17.7498 7.50312 17.7498C7.63143 17.7498 7.75663 17.7103 7.86172 17.6367C9.04668 16.7623 10.1307 15.7587 11.0938 14.6445C13.2383 12.1781 14.375 9.57812 14.375 7.125C14.3729 5.30227 13.6479 3.55479 12.3591 2.26592C11.0702 0.97706 9.32273 0.252068 7.5 0.25ZM7.5 16.3438C6.20859 15.3281 1.875 11.5977 1.875 7.125C1.875 5.63316 2.46763 4.20242 3.52252 3.14752C4.57742 2.09263 6.00816 1.5 7.5 1.5C8.99184 1.5 10.4226 2.09263 11.4775 3.14752C12.5324 4.20242 13.125 5.63316 13.125 7.125C13.125 11.5961 8.79141 15.3281 7.5 16.3438Z" fill="#41454B"/>
</svg>
