<svg width="18" height="18" viewBox="0 0 18 18" fill="none" xmlns="http://www.w3.org/2000/svg">
<path d="M3.31989 2.89328H15.0799C15.2399 2.89328 15.3466 2.78662 15.3466 2.62662V1.61328C15.3466 1.45328 15.2399 1.34662 15.0799 1.34662H10.9999V0.466618C10.9999 0.306618 10.8932 0.199951 10.7332 0.199951H7.63989C7.47989 0.199951 7.37322 0.306618 7.37322 0.466618V1.34662H3.31989C3.15989 1.34662 3.05322 1.45328 3.05322 1.61328V2.62662C3.05322 2.75995 3.15989 2.89328 3.31989 2.89328ZM7.90656 0.733285H10.4666V1.34662H7.90656V0.733285ZM3.58656 1.87995H7.66656H10.7332H14.8132V2.35995H3.58656V1.87995Z" fill="black"/>
<path d="M7.18679 14.9466H11.0535C12.0935 14.9466 12.9468 14.0933 12.9468 13.0533C12.9468 12.8933 12.8401 12.7866 12.6801 12.7866H5.56012C5.40012 12.7866 5.29346 12.8933 5.29346 13.0533C5.29346 14.12 6.14679 14.9466 7.18679 14.9466ZM12.3601 13.3466C12.2268 13.96 11.6935 14.44 11.0268 14.44H7.18679C6.54679 14.44 5.98679 13.9866 5.85346 13.3466H12.3601Z" fill="black"/>
<path d="M3.31982 14.2533C3.95982 14.2533 4.49315 13.7199 4.49315 13.0799C4.49315 12.4399 3.95982 11.9066 3.31982 11.9066C2.67982 11.9066 2.14648 12.4399 2.14648 13.0799C2.14648 13.7199 2.67982 14.2533 3.31982 14.2533ZM3.31982 12.4399C3.66648 12.4399 3.95982 12.7333 3.95982 13.0799C3.95982 13.4266 3.66648 13.7199 3.31982 13.7199C2.97315 13.7199 2.67982 13.4266 2.67982 13.0799C2.67982 12.7333 2.97315 12.4399 3.31982 12.4399Z" fill="black"/>
<path d="M14.6802 14.2533C15.3202 14.2533 15.8535 13.7199 15.8535 13.0799C15.8535 12.4399 15.3202 11.9066 14.6802 11.9066C14.0402 11.9066 13.5068 12.4399 13.5068 13.0799C13.5068 13.7199 14.0402 14.2533 14.6802 14.2533ZM14.6802 12.4399C15.0268 12.4399 15.3202 12.7333 15.3202 13.0799C15.3202 13.4266 15.0268 13.7199 14.6802 13.7199C14.3335 13.7199 14.0402 13.4266 14.0402 13.0799C14.0402 12.7333 14.3335 12.4399 14.6802 12.4399Z" fill="black"/>
<path d="M1.87982 9.71998H1.93315L0.946484 11.08C0.866484 11.2133 0.813151 11.3466 0.813151 11.5066V15.4533C0.813151 15.8533 1.13315 16.1733 1.53315 16.1733H1.82648V17.2133C1.82648 17.5333 2.09315 17.8 2.41315 17.8H3.42648C3.74648 17.8 4.01315 17.5333 4.01315 17.2133V16.1733H13.9598V17.2133C13.9598 17.5333 14.2265 17.8 14.5465 17.8H15.5598C15.8798 17.8 16.1465 17.5333 16.1465 17.2133V16.1733H16.4398C16.8398 16.1733 17.1598 15.8533 17.1598 15.4533V11.5066C17.1598 11.3466 17.1065 11.2133 17.0265 11.08L16.0665 9.71998H16.1198C17.0532 9.71998 17.8265 8.94665 17.8265 8.01332C17.8265 7.85332 17.7198 7.74665 17.5598 7.74665H16.4665C15.9332 7.74665 15.4798 8.11998 15.3198 8.59998C14.7598 6.91998 13.1598 5.77332 11.3732 5.77332H6.57315C5.63982 5.77332 4.78648 6.06665 4.03982 6.62665C3.37315 7.13332 2.89315 7.79998 2.62648 8.57332C2.46648 8.09332 2.01315 7.71998 1.47982 7.71998H0.413151C0.253151 7.71998 0.146484 7.82665 0.146484 7.98665C0.146484 8.94665 0.919818 9.71998 1.87982 9.71998ZM3.50648 17.2133C3.50648 17.24 3.47982 17.2666 3.45315 17.2666H2.43982C2.41315 17.2666 2.38648 17.24 2.38648 17.2133V16.1733H3.53315V17.2133H3.50648ZM15.6398 17.2133C15.6398 17.24 15.6132 17.2666 15.5865 17.2666H14.5732C14.5465 17.2666 14.5198 17.24 14.5198 17.2133V16.1733H15.6665V17.2133H15.6398ZM15.7998 8.94665C15.7998 8.57332 16.0932 8.27998 16.4665 8.27998H17.2665C17.1332 8.81332 16.6798 9.18665 16.1198 9.18665H15.7998V8.94665ZM4.38648 7.05332C5.02648 6.57332 5.77315 6.30665 6.59982 6.30665H11.3998C13.0265 6.30665 14.4398 7.39998 14.8932 8.94665C14.8132 9.34665 12.7065 9.90665 8.99982 9.90665C5.29315 9.90665 3.18648 9.34665 3.10648 8.94665C3.31982 8.17332 3.77315 7.53332 4.38648 7.05332ZM2.81315 9.42665C3.13315 9.71998 3.74648 9.95998 4.73315 10.12C5.85315 10.3333 7.37315 10.44 9.02648 10.44C10.3331 10.44 14.1998 10.36 15.2132 9.42665L16.6531 11.4C16.6798 11.4266 16.6798 11.48 16.6798 11.5066V15.4533C16.6798 15.56 16.5998 15.64 16.4932 15.64H15.9332H14.2532H3.77315H2.09315H1.53315C1.42648 15.64 1.34648 15.56 1.34648 15.4533V11.5066C1.34648 11.4533 1.34648 11.4266 1.37315 11.4L2.81315 9.42665ZM1.50648 8.25332C1.87982 8.25332 2.17315 8.54665 2.17315 8.91998V9.15998H1.85315C1.29315 9.15998 0.813151 8.75998 0.706484 8.25332H1.50648Z" fill="black"/>
<path d="M15.2666 5.8267C15.2666 5.8267 15.24 5.80004 15.2133 5.80004C15.2133 5.80004 15.1866 5.77337 15.16 5.77337C15.1333 5.77337 15.1333 5.77337 15.1066 5.7467C15.0533 5.7467 15 5.7467 14.9466 5.77337C14.92 5.77337 14.8933 5.80004 14.8666 5.8267C14.84 5.85337 14.8133 5.88004 14.8133 5.9067C14.7866 5.93337 14.7866 5.9867 14.7866 6.01337C14.7866 6.09337 14.8133 6.1467 14.8666 6.20004C14.8933 6.2267 14.92 6.25337 14.9466 6.25337C14.9733 6.28004 15.0266 6.28004 15.0533 6.28004C15.1333 6.28004 15.1866 6.25337 15.24 6.20004C15.2933 6.1467 15.32 6.09337 15.32 6.01337C15.32 5.9867 15.32 5.93337 15.2933 5.9067C15.2933 5.88004 15.2666 5.85337 15.2666 5.8267Z" fill="black"/>
<path d="M15.2668 4.52005C15.1868 4.44005 15.0801 4.41338 14.9735 4.46671C14.9468 4.46671 14.9201 4.49338 14.8935 4.52005L14.8668 4.54671C14.8668 4.54671 14.8401 4.57338 14.8401 4.60005C14.8401 4.62671 14.8135 4.62671 14.8135 4.65338V4.70671C14.8135 4.73338 14.8135 4.78671 14.8401 4.81338C14.8401 4.84005 14.8668 4.86671 14.8935 4.89338C14.9201 4.92005 14.9468 4.94671 14.9735 4.94671C15.0001 4.94671 15.0535 4.97338 15.0801 4.97338H15.1335H15.1868C15.2135 4.97338 15.2135 4.94671 15.2401 4.94671C15.2668 4.94671 15.2668 4.92005 15.2935 4.92005C15.3201 4.89338 15.3468 4.86671 15.3468 4.84005C15.3735 4.81338 15.3735 4.76005 15.3735 4.73338C15.3201 4.62671 15.2935 4.57338 15.2668 4.52005Z" fill="black"/>
<path d="M15.2666 3.18669C15.2666 3.18669 15.24 3.16002 15.2133 3.16002C15.2133 3.16002 15.1866 3.13336 15.16 3.13336C15.1333 3.13336 15.1333 3.13336 15.1066 3.10669C15.0533 3.10669 15 3.10669 14.9466 3.13336C14.92 3.13336 14.8933 3.16002 14.8666 3.18669C14.8133 3.24002 14.7866 3.29336 14.7866 3.37336C14.7866 3.40002 14.7866 3.45336 14.8133 3.48002C14.8133 3.50669 14.84 3.53336 14.8666 3.56002C14.8933 3.58669 14.92 3.61336 14.9466 3.61336C14.9733 3.61336 15.0266 3.64002 15.0533 3.64002H15.1066C15.1333 3.64002 15.1333 3.64002 15.16 3.61336C15.1866 3.58669 15.1866 3.58669 15.2133 3.58669C15.24 3.58669 15.24 3.56002 15.2666 3.56002C15.2933 3.53336 15.32 3.50669 15.32 3.48002C15.3466 3.45336 15.3466 3.40002 15.3466 3.37336C15.32 3.32002 15.2933 3.24002 15.2666 3.18669Z" fill="black"/>
<path d="M13.9066 4.49339C13.88 4.49339 13.88 4.46672 13.8533 4.46672C13.8266 4.46672 13.8266 4.46672 13.8 4.44005C13.72 4.41339 13.6133 4.44005 13.56 4.52005C13.5333 4.54672 13.5066 4.57339 13.5066 4.60005C13.48 4.62672 13.48 4.68005 13.48 4.70672C13.48 4.78672 13.5066 4.84005 13.56 4.89339C13.6133 4.94672 13.6666 4.97339 13.7466 4.97339C13.8266 4.97339 13.88 4.94672 13.9333 4.89339C13.9866 4.84005 14.0133 4.78672 14.0133 4.70672C14.0133 4.68005 14.0133 4.62672 13.9866 4.60005C13.96 4.57339 13.96 4.54672 13.9333 4.52005C13.9333 4.49339 13.9333 4.49339 13.9066 4.49339Z" fill="black"/>
<path d="M13.9602 3.18668C13.9335 3.18668 13.9335 3.16001 13.9335 3.16001C13.9068 3.16001 13.9068 3.13335 13.8802 3.13335C13.8535 3.13335 13.8535 3.13335 13.8268 3.10668C13.7468 3.08001 13.6402 3.10668 13.5868 3.18668C13.5335 3.24001 13.5068 3.29335 13.5068 3.37335V3.42668C13.5068 3.45335 13.5068 3.45335 13.5335 3.48001C13.5335 3.50668 13.5335 3.50668 13.5602 3.53335C13.5602 3.56001 13.5868 3.56001 13.5868 3.56001C13.6402 3.61335 13.6935 3.64001 13.7735 3.64001H13.8268C13.8535 3.64001 13.8535 3.64001 13.8802 3.61335C13.9068 3.61335 13.9068 3.58668 13.9335 3.58668L13.9602 3.56001C14.0135 3.50668 14.0402 3.45335 14.0402 3.37335C14.0135 3.32001 13.9868 3.24001 13.9602 3.18668Z" fill="black"/>
<path d="M12.2533 4.51994C12.2267 4.54661 12.2 4.57327 12.2 4.59994C12.2 4.6266 12.1733 4.67994 12.1733 4.7066C12.1733 4.73327 12.1733 4.7866 12.2 4.81327C12.2267 4.83994 12.2267 4.8666 12.2533 4.89327C12.3067 4.9466 12.36 4.97327 12.44 4.97327H12.4933H12.5467C12.5733 4.97327 12.5733 4.9466 12.6 4.9466C12.6267 4.9466 12.6267 4.91994 12.6533 4.91994C12.68 4.89327 12.7067 4.8666 12.7067 4.83994C12.7333 4.81327 12.7333 4.75994 12.7333 4.73327C12.7333 4.7066 12.7333 4.65327 12.7067 4.6266C12.7067 4.59994 12.68 4.57327 12.6533 4.5466C12.5467 4.41327 12.36 4.41327 12.2533 4.51994Z" fill="black"/>
<path d="M12.6533 3.18668C12.6267 3.18668 12.6267 3.16001 12.6 3.16001C12.5733 3.16001 12.5733 3.13335 12.5467 3.13335C12.52 3.13335 12.52 3.13335 12.4933 3.10668C12.4133 3.08001 12.3067 3.10668 12.2533 3.18668C12.2 3.24001 12.1733 3.29335 12.1733 3.37335C12.1733 3.45335 12.2 3.50668 12.2533 3.56001C12.3067 3.61335 12.36 3.64001 12.44 3.64001C12.52 3.64001 12.5733 3.61335 12.6267 3.56001C12.68 3.50668 12.7067 3.45335 12.7067 3.37335C12.7067 3.32001 12.68 3.24001 12.6533 3.18668Z" fill="black"/>
<path d="M10.9467 4.51994C10.8934 4.57327 10.8667 4.62661 10.8667 4.70661C10.8667 4.78661 10.8934 4.83994 10.9467 4.89327C11 4.94661 11.0534 4.97327 11.1334 4.97327C11.2134 4.97327 11.2667 4.94661 11.32 4.89327C11.3734 4.83994 11.4 4.78661 11.4 4.70661C11.4 4.62661 11.3734 4.57327 11.32 4.51994C11.24 4.41327 11.0534 4.41327 10.9467 4.51994Z" fill="black"/>
<path d="M11.3469 3.18669C11.2402 3.08002 11.0802 3.08002 10.9736 3.18669C10.9202 3.24002 10.8936 3.29336 10.8936 3.37336C10.8936 3.45336 10.9202 3.50669 10.9736 3.56002C11.0269 3.61336 11.0802 3.64002 11.1602 3.64002C11.2402 3.64002 11.2936 3.61336 11.3469 3.56002C11.4002 3.50669 11.4269 3.45336 11.4269 3.37336C11.4269 3.32002 11.3736 3.24002 11.3469 3.18669Z" fill="black"/>
<path d="M9.64006 4.51994C9.58673 4.57327 9.56006 4.6266 9.56006 4.7066C9.56006 4.7866 9.58673 4.83994 9.64006 4.89327C9.69339 4.9466 9.74673 4.97327 9.82673 4.97327H9.88006H9.93339C9.96006 4.97327 9.96006 4.9466 9.98673 4.9466C10.0134 4.9466 10.0134 4.91994 10.0134 4.91994C10.0667 4.86661 10.0934 4.81327 10.0934 4.73327C10.0934 4.65327 10.0667 4.59994 10.0134 4.5466C9.93339 4.41327 9.74673 4.41327 9.64006 4.51994Z" fill="black"/>
<path d="M10.0398 3.18668L10.0131 3.16001C10.0131 3.16001 9.98643 3.13335 9.95976 3.13335C9.93309 3.13335 9.93309 3.13335 9.90643 3.10668C9.82643 3.08001 9.71976 3.10668 9.66643 3.18668C9.61309 3.24001 9.58643 3.29335 9.58643 3.37335C9.58643 3.40001 9.58643 3.45335 9.61309 3.48001C9.63976 3.50668 9.63976 3.53335 9.66643 3.56001C9.71976 3.61335 9.77309 3.64001 9.85309 3.64001C9.93309 3.64001 9.98643 3.61335 10.0398 3.56001C10.0664 3.53335 10.0931 3.50668 10.0931 3.48001C10.0931 3.45335 10.1198 3.40001 10.1198 3.37335C10.1198 3.32001 10.0664 3.24001 10.0398 3.18668Z" fill="black"/>
<path d="M8.62675 4.46663C8.52008 4.43997 8.41342 4.43997 8.33342 4.51997C8.28008 4.5733 8.25342 4.62663 8.25342 4.70663C8.25342 4.7333 8.25342 4.78663 8.28008 4.8133C8.30675 4.83997 8.30675 4.86663 8.33342 4.8933C8.36008 4.91997 8.38675 4.94663 8.41342 4.94663C8.44008 4.94663 8.49342 4.9733 8.52008 4.9733C8.54675 4.9733 8.60008 4.9733 8.62675 4.94663C8.65342 4.91997 8.68008 4.91997 8.70675 4.8933C8.76008 4.83997 8.78675 4.78663 8.78675 4.70663C8.78675 4.62663 8.76008 4.5733 8.70675 4.51997C8.70675 4.4933 8.68008 4.46663 8.62675 4.46663Z" fill="black"/>
<path d="M8.73312 3.18671C8.70645 3.16005 8.67979 3.13338 8.65312 3.13338C8.54645 3.10671 8.43978 3.10671 8.35978 3.18671C8.30645 3.24005 8.27979 3.29338 8.27979 3.37338C8.27979 3.40005 8.27979 3.45338 8.30645 3.48005C8.33312 3.50671 8.33312 3.53338 8.35978 3.56005C8.41312 3.61338 8.49312 3.64005 8.54645 3.64005C8.57312 3.64005 8.62645 3.64005 8.65312 3.61338C8.67979 3.58671 8.70645 3.58671 8.73312 3.56005C8.78645 3.50671 8.81312 3.45338 8.81312 3.37338C8.81312 3.32005 8.75979 3.24005 8.73312 3.18671Z" fill="black"/>
<path d="M7.32011 4.46663C7.21344 4.43997 7.10678 4.43997 7.02678 4.51997C6.97344 4.5733 6.94678 4.62663 6.94678 4.70663C6.94678 4.7333 6.94678 4.78663 6.97344 4.8133C7.00011 4.83997 7.00011 4.86663 7.02678 4.8933C7.08011 4.94663 7.16011 4.9733 7.21344 4.9733C7.29344 4.9733 7.34678 4.94663 7.40011 4.8933C7.42678 4.86663 7.45344 4.83997 7.45344 4.8133C7.48011 4.78663 7.48011 4.7333 7.48011 4.70663C7.48011 4.62663 7.45344 4.5733 7.40011 4.51997C7.40011 4.4933 7.37344 4.46663 7.32011 4.46663Z" fill="black"/>
<path d="M7.42648 3.18669C7.31981 3.08002 7.15981 3.08002 7.05314 3.18669C6.99981 3.24002 6.97314 3.29336 6.97314 3.37336C6.97314 3.45336 6.99981 3.50669 7.05314 3.56002C7.10648 3.61336 7.15981 3.64002 7.23981 3.64002C7.26648 3.64002 7.31981 3.64002 7.34648 3.61336C7.37314 3.58669 7.39981 3.58669 7.42648 3.56002C7.47981 3.50669 7.50648 3.45336 7.50648 3.37336C7.50648 3.32002 7.45314 3.24002 7.42648 3.18669Z" fill="black"/>
<path d="M5.72014 4.51994C5.6668 4.57327 5.64014 4.62661 5.64014 4.70661V4.75994C5.64014 4.78661 5.64014 4.78661 5.6668 4.81327C5.6668 4.83994 5.6668 4.83994 5.69347 4.86661L5.72014 4.89327C5.77347 4.94661 5.85347 4.97327 5.9068 4.97327C5.9868 4.97327 6.04014 4.94661 6.09347 4.89327C6.12014 4.89327 6.12014 4.86661 6.12014 4.86661C6.12014 4.83994 6.1468 4.83994 6.1468 4.81327C6.1468 4.78661 6.1468 4.78661 6.1468 4.75994C6.1468 4.73327 6.1468 4.73327 6.1468 4.70661C6.1468 4.62661 6.12014 4.57327 6.0668 4.51994C6.01347 4.41327 5.8268 4.41327 5.72014 4.51994Z" fill="black"/>
<path d="M6.11984 3.18669C6.01317 3.08002 5.85317 3.08002 5.7465 3.18669C5.69317 3.24002 5.6665 3.29336 5.6665 3.37336V3.42669C5.6665 3.45336 5.6665 3.45336 5.69317 3.48002C5.69317 3.50669 5.69317 3.50669 5.71984 3.53336C5.71984 3.56002 5.7465 3.56002 5.7465 3.56002C5.79984 3.61336 5.87984 3.64002 5.93317 3.64002C6.01317 3.64002 6.0665 3.61336 6.11984 3.56002C6.1465 3.56002 6.1465 3.53336 6.1465 3.53336C6.1465 3.53336 6.17317 3.50669 6.17317 3.48002C6.17317 3.45336 6.17317 3.45336 6.17317 3.42669C6.17317 3.40002 6.17317 3.40002 6.17317 3.37336C6.19984 3.32002 6.17317 3.24002 6.11984 3.18669Z" fill="black"/>
<path d="M4.83986 4.54661C4.83986 4.51994 4.8132 4.51994 4.8132 4.51994C4.70653 4.41327 4.54653 4.41327 4.43986 4.51994L4.4132 4.54661C4.4132 4.54661 4.38653 4.57327 4.38653 4.59994C4.38653 4.62661 4.38653 4.62661 4.35986 4.65327V4.70661C4.35986 4.78661 4.38653 4.83994 4.43986 4.89327C4.4932 4.94661 4.54653 4.97327 4.62653 4.97327C4.70653 4.97327 4.75986 4.94661 4.8132 4.89327C4.86653 4.83994 4.8932 4.78661 4.8932 4.70661C4.8932 4.67994 4.8932 4.67994 4.8932 4.65327C4.8932 4.62661 4.8932 4.62661 4.86653 4.59994C4.86653 4.59994 4.83986 4.57327 4.83986 4.54661Z" fill="black"/>
<path d="M4.8132 3.18661C4.78653 3.15995 4.75986 3.13328 4.7332 3.13328C4.6532 3.10661 4.59986 3.10661 4.51986 3.13328C4.4932 3.13328 4.46653 3.15995 4.43986 3.18661C4.38653 3.23995 4.35986 3.29328 4.35986 3.37328C4.35986 3.45328 4.38653 3.50661 4.43986 3.55995C4.4932 3.61328 4.54653 3.63995 4.62653 3.63995C4.70653 3.63995 4.75986 3.61328 4.8132 3.55995C4.86653 3.50661 4.8932 3.45328 4.8932 3.37328C4.8932 3.31995 4.86653 3.23995 4.8132 3.18661Z" fill="black"/>
<path d="M3.21322 5.77328C3.18656 5.77328 3.15989 5.79995 3.13322 5.82661C3.10656 5.85328 3.07989 5.87995 3.07989 5.90661C3.05322 5.93328 3.05322 5.98661 3.05322 6.01328C3.05322 6.03995 3.05322 6.09328 3.07989 6.11995C3.07989 6.14661 3.10656 6.17328 3.13322 6.19995C3.18656 6.25328 3.23989 6.27995 3.31989 6.27995C3.39989 6.27995 3.45322 6.25328 3.50656 6.19995C3.55989 6.14661 3.58656 6.09328 3.58656 6.01328C3.58656 5.93328 3.55989 5.87995 3.50656 5.82661C3.42656 5.77328 3.29322 5.74661 3.21322 5.77328Z" fill="black"/>
<path d="M3.56019 4.65338C3.56019 4.62671 3.56019 4.62671 3.53352 4.60005C3.53352 4.57338 3.50686 4.57338 3.50686 4.54671C3.50686 4.52005 3.48019 4.52005 3.48019 4.52005C3.40019 4.44005 3.29352 4.41338 3.18686 4.46671C3.16019 4.46671 3.13352 4.49338 3.10686 4.52005C3.05352 4.57338 3.02686 4.62671 3.02686 4.70671C3.02686 4.73338 3.02686 4.78671 3.05352 4.81338C3.05352 4.84005 3.08019 4.86671 3.10686 4.89338C3.16019 4.94671 3.21352 4.97338 3.29352 4.97338C3.37352 4.97338 3.42686 4.94671 3.48019 4.89338C3.53352 4.84005 3.56019 4.78671 3.56019 4.70671C3.58686 4.68005 3.58686 4.68005 3.56019 4.65338Z" fill="black"/>
<path d="M3.50656 3.18667C3.42656 3.10667 3.31989 3.08 3.21322 3.13334C3.18656 3.13334 3.15989 3.16 3.13322 3.18667C3.07989 3.24 3.05322 3.29334 3.05322 3.37334C3.05322 3.4 3.05322 3.45334 3.07989 3.48C3.07989 3.50667 3.10656 3.53334 3.13322 3.56C3.18656 3.61334 3.23989 3.64 3.31989 3.64C3.39989 3.64 3.45322 3.61334 3.50656 3.56C3.55989 3.50667 3.58656 3.45334 3.58656 3.37334C3.58656 3.32 3.55989 3.24 3.50656 3.18667Z" fill="black"/>
</svg>
