<svg width="48" height="48" viewBox="0 0 48 48" fill="none" xmlns="http://www.w3.org/2000/svg">
<path d="M39.3779 26.221C39.1709 25.6742 38.6472 25.3125 38.0625 25.3125H9.93754C9.35291 25.3125 8.82923 25.6742 8.62232 26.221C8.41541 26.7679 8.56841 27.3856 9.0066 27.7727L19.7813 37.2904V46.5938C19.7813 47.0812 20.0337 47.5338 20.4482 47.79C20.6741 47.9296 20.9305 48 21.1875 48C21.4024 48 21.6179 47.9508 21.8164 47.8516L27.4414 45.0391C27.9179 44.8008 28.2188 44.3139 28.2188 43.7812V37.2904L38.9936 27.7727C39.4318 27.3856 39.5848 26.7679 39.3779 26.221ZM25.4063 42.9121L22.5938 44.3183V38.0625H25.4063V42.9121ZM26.2803 35.25H21.7197L13.6536 28.125H34.3464L26.2803 35.25Z" fill="#189DEF"/>
<path d="M15.5625 14.0625H9.9375C9.16087 14.0625 8.53125 14.6921 8.53125 15.4688V21.0938C8.53125 21.8704 9.16087 22.5 9.9375 22.5H15.5625C16.3391 22.5 16.9688 21.8704 16.9688 21.0938V15.4688C16.9688 14.6921 16.3391 14.0625 15.5625 14.0625ZM14.1562 19.6875H11.3438V16.875H14.1562V19.6875Z" fill="#189DEF"/>
<path d="M29.625 11.25H21.1875C20.4109 11.25 19.7812 11.8796 19.7812 12.6562V21.0938C19.7812 21.8704 20.4109 22.5 21.1875 22.5H29.625C30.4016 22.5 31.0312 21.8704 31.0312 21.0938V12.6562C31.0312 11.8796 30.4016 11.25 29.625 11.25ZM28.2188 19.6875H22.5938V14.0625H28.2188V19.6875Z" fill="#189DEF"/>
<path d="M43.6875 5.625H38.0625C37.2859 5.625 36.6562 6.25462 36.6562 7.03125V12.6562C36.6562 13.4329 37.2859 14.0625 38.0625 14.0625H43.6875C44.4641 14.0625 45.0938 13.4329 45.0938 12.6562V7.03125C45.0938 6.25462 44.4641 5.625 43.6875 5.625ZM42.2812 11.25H39.4688V8.4375H42.2812V11.25Z" fill="#189DEF"/>
<path d="M9.9375 0H4.3125C3.53587 0 2.90625 0.629625 2.90625 1.40625V9.84375C2.90625 10.6204 3.53587 11.25 4.3125 11.25H9.9375C10.7141 11.25 11.3438 10.6204 11.3438 9.84375V1.40625C11.3438 0.629625 10.7141 0 9.9375 0ZM8.53125 8.4375H5.71875V2.8125H8.53125V8.4375Z" fill="#189DEF"/>
<path d="M32.4375 0H21.1875C20.4109 0 19.7812 0.629625 19.7812 1.40625V7.03125C19.7812 7.80788 20.4109 8.4375 21.1875 8.4375H32.4375C33.2141 8.4375 33.8438 7.80788 33.8438 7.03125V1.40625C33.8438 0.629625 33.2141 0 32.4375 0ZM31.0312 5.625H22.5938V2.8125H31.0312V5.625Z" fill="#189DEF"/>
<path d="M15.5625 5.625C14.7859 5.625 14.1562 6.25462 14.1562 7.03125V9.84375C14.1562 10.6204 14.7859 11.25 15.5625 11.25C16.3391 11.25 16.9688 10.6204 16.9688 9.84375V7.03125C16.9688 6.25462 16.3391 5.625 15.5625 5.625Z" fill="#189DEF"/>
<path d="M35.25 16.875C34.4734 16.875 33.8438 17.5046 33.8438 18.2812V21.0938C33.8438 21.8704 34.4734 22.5 35.25 22.5C36.0266 22.5 36.6562 21.8704 36.6562 21.0938V18.2812C36.6562 17.5046 36.0266 16.875 35.25 16.875Z" fill="#189DEF"/>
<path d="M40.875 19.6875C41.6517 19.6875 42.2812 19.0579 42.2812 18.2812C42.2812 17.5046 41.6517 16.875 40.875 16.875C40.0983 16.875 39.4688 17.5046 39.4688 18.2812C39.4688 19.0579 40.0983 19.6875 40.875 19.6875Z" fill="#189DEF"/>
<path d="M4.3125 16.875C5.08915 16.875 5.71875 16.2454 5.71875 15.4688C5.71875 14.6921 5.08915 14.0625 4.3125 14.0625C3.53585 14.0625 2.90625 14.6921 2.90625 15.4688C2.90625 16.2454 3.53585 16.875 4.3125 16.875Z" fill="#189DEF"/>
</svg>
