<svg width="48" height="48" viewBox="0 0 48 48" fill="none" xmlns="http://www.w3.org/2000/svg">
<path d="M32.0134 31.7142C37.1212 23.6993 36.4791 24.6992 36.6263 24.4902C38.4859 21.8673 39.4688 18.7802 39.4688 15.5625C39.4688 7.02938 32.5443 0 24 0C15.4836 0 8.53125 7.0155 8.53125 15.5625C8.53125 18.7781 9.53475 21.946 11.4553 24.6043L15.9864 31.7143C11.1419 32.4588 2.90625 34.6774 2.90625 39.5625C2.90625 41.3433 4.06856 43.8811 9.60581 45.8587C13.4722 47.2395 18.5842 48 24 48C34.1273 48 45.0938 45.1432 45.0938 39.5625C45.0938 34.6765 36.8678 32.4603 32.0134 31.7142ZM13.8046 23.0573C13.7891 23.0332 13.773 23.0095 13.7561 22.9863C12.158 20.7877 11.3438 18.182 11.3438 15.5625C11.3438 8.52956 17.0068 2.8125 24 2.8125C30.9787 2.8125 36.6562 8.53209 36.6562 15.5625C36.6562 18.1862 35.8574 20.7035 34.3457 22.8442C34.2102 23.0228 34.917 21.9248 24 39.0552L13.8046 23.0573ZM24 45.1875C12.9381 45.1875 5.71875 41.936 5.71875 39.5625C5.71875 37.9673 9.42825 35.3442 17.6483 34.3218L22.8141 42.4277C23.0723 42.8329 23.5194 43.0781 23.9999 43.0781C24.4804 43.0781 24.9277 42.8328 25.1858 42.4277L30.3515 34.3218C38.5717 35.3442 42.2812 37.9673 42.2812 39.5625C42.2812 41.9158 35.1269 45.1875 24 45.1875Z" fill="#189DEF"/>
<path d="M24 8.53125C20.123 8.53125 16.9688 11.6855 16.9688 15.5625C16.9688 19.4395 20.123 22.5938 24 22.5938C27.877 22.5938 31.0312 19.4395 31.0312 15.5625C31.0312 11.6855 27.877 8.53125 24 8.53125ZM24 19.7812C21.6738 19.7812 19.7812 17.8887 19.7812 15.5625C19.7812 13.2363 21.6738 11.3438 24 11.3438C26.3262 11.3438 28.2188 13.2363 28.2188 15.5625C28.2188 17.8887 26.3262 19.7812 24 19.7812Z" fill="#189DEF"/>
</svg>
