<svg width="48" height="48" viewBox="0 0 48 48" fill="none" xmlns="http://www.w3.org/2000/svg">
<g clip-path="url(#clip0_243_3668)">
<path d="M44.8083 24.6218C44.6152 24.2266 44.6152 23.7734 44.8083 23.3784L46.5986 19.716C47.5953 17.6769 46.8056 15.2464 44.8007 14.1827L41.1997 12.272C40.8112 12.066 40.5449 11.6992 40.4689 11.2662L39.7646 7.25101C39.3725 5.01546 37.3045 3.51322 35.0577 3.83113L31.0215 4.40206C30.5858 4.46356 30.155 4.3235 29.839 4.01778L26.9092 1.18355C25.2779 -0.394632 22.7223 -0.394725 21.091 1.18355L18.1612 4.01806C17.8451 4.32387 17.4143 4.46365 16.9787 4.40234L12.9425 3.83141C10.6949 3.51331 8.62771 5.01574 8.23556 7.25129L7.53131 11.2663C7.45528 11.6994 7.18894 12.0661 6.80053 12.2722L3.19962 14.1828C1.19469 15.2465 0.404945 17.6772 1.40169 19.7163L3.19184 23.3785C3.38496 23.7737 3.38496 24.2269 3.19184 24.6219L1.4016 28.2842C0.404851 30.3233 1.1946 32.7538 3.19952 33.8175L6.80044 35.7282C7.18894 35.9342 7.45528 36.301 7.53131 36.734L8.23556 40.7492C8.59255 42.7843 10.3376 44.2115 12.3432 44.2114C12.5407 44.2114 12.7412 44.1975 12.9426 44.169L16.9788 43.598C17.4141 43.5363 17.8452 43.6766 18.1613 43.9823L21.091 46.8166C21.9069 47.6057 22.9533 48.0002 24.0001 48.0002C25.0466 48.0001 26.0937 47.6056 26.9091 46.8166L29.839 43.9823C30.1551 43.6766 30.586 43.5369 31.0215 43.598L35.0577 44.169C37.3056 44.487 39.3725 42.9846 39.7646 40.7491L40.469 36.7341C40.545 36.301 40.8113 35.9343 41.1997 35.7282L44.8007 33.8175C46.8056 32.7539 47.5953 30.3232 46.5986 28.2841L44.8083 24.6218ZM43.5031 31.3719L39.9022 33.2825C38.7541 33.8918 37.9667 34.9753 37.7422 36.2556L37.0379 40.2707C36.9053 41.0271 36.206 41.5351 35.4454 41.4277L31.4092 40.8568C30.122 40.6745 28.8483 41.0887 27.9141 41.9924L24.9843 44.8265C24.4325 45.3604 23.5678 45.3604 23.0158 44.8265L20.0861 41.9923C19.2965 41.2285 18.2643 40.8146 17.1868 40.8146C16.9893 40.8146 16.7903 40.8285 16.591 40.8567L12.5548 41.4277C11.7948 41.5351 11.095 41.027 10.9623 40.2706L10.2579 36.2554C10.0333 34.9752 9.24599 33.8915 8.09784 33.2824L4.49692 31.3718C3.81855 31.0119 3.55136 30.1896 3.88858 29.4997L5.67882 25.8374C6.24957 24.6697 6.24957 23.3304 5.67882 22.1626L3.88858 18.5003C3.55136 17.8104 3.81855 16.9881 4.49692 16.6282L8.09784 14.7176C9.24589 14.1083 10.0333 13.0248 10.2578 11.7445L10.9621 7.72941C11.0948 6.97304 11.794 6.46492 12.5546 6.57236L16.5908 7.14329C17.8775 7.32545 19.1516 6.91136 20.0859 6.00771L23.0157 3.17347C23.5675 2.63966 24.4322 2.63966 24.9842 3.17347L27.9139 6.00771C28.8482 6.91145 30.1221 7.32545 31.409 7.14329L35.4452 6.57236C36.2052 6.46483 36.9051 6.97304 37.0377 7.72941L37.742 11.7446C37.9666 13.0249 38.7539 14.1085 39.9021 14.7176L43.503 16.6282C44.1813 16.9881 44.4485 17.8104 44.1113 18.5003L42.3211 22.1625C41.7503 23.3302 41.7503 24.6697 42.3211 25.8373L44.1113 29.4995C44.4486 30.1896 44.1814 31.012 43.5031 31.3719Z" fill="#189DEF"/>
<path d="M34.1142 13.8857C33.5737 13.3451 32.6972 13.3451 32.1566 13.8857L13.8859 32.1565C13.3453 32.6971 13.3453 33.5736 13.8859 34.1141C14.1562 34.3844 14.5104 34.5196 14.8646 34.5196C15.2188 34.5196 15.5732 34.3845 15.8434 34.1141L34.1141 15.8434C34.6549 15.3027 34.6549 14.4264 34.1142 13.8857Z" fill="#189DEF"/>
<path d="M18.4632 11.542C15.6646 11.542 13.3877 13.8189 13.3877 16.6175C13.3877 19.4161 15.6646 21.693 18.4632 21.693C21.2618 21.693 23.5387 19.4161 23.5387 16.6175C23.5387 13.8189 21.2618 11.542 18.4632 11.542ZM18.4632 18.9245C17.1911 18.9245 16.1562 17.8896 16.1562 16.6174C16.1562 15.3453 17.1911 14.3104 18.4632 14.3104C19.7353 14.3104 20.7703 15.3453 20.7703 16.6174C20.7702 17.8896 19.7353 18.9245 18.4632 18.9245Z" fill="#189DEF"/>
<path d="M29.5369 26.307C26.7383 26.307 24.4614 28.5839 24.4614 31.3825C24.4614 34.1811 26.7383 36.458 29.5369 36.458C32.3355 36.458 34.6124 34.1811 34.6124 31.3825C34.6124 28.5839 32.3355 26.307 29.5369 26.307ZM29.5369 33.6895C28.2648 33.6895 27.2298 32.6546 27.2298 31.3825C27.2298 30.1105 28.2647 29.0756 29.5369 29.0756C30.809 29.0756 31.8439 30.1105 31.8439 31.3825C31.8439 32.6546 30.809 33.6895 29.5369 33.6895Z" fill="#189DEF"/>
</g>
<defs>
<clipPath id="clip0_243_3668">
<rect width="48" height="48" fill="white"/>
</clipPath>
</defs>
</svg>
