<svg width="48" height="48" viewBox="0 0 48 48" fill="none" xmlns="http://www.w3.org/2000/svg">
<g clip-path="url(#clip0_243_1085)">
<path d="M24 1.40619L26.2047 5.00506L30.3088 5.98981L27.5673 9.19869L27.899 13.4062L24 11.7905L20.1009 13.4062L20.4327 9.19869L17.6912 5.98981L21.7953 5.00506L24 1.40619Z" stroke="#189DEF" stroke-width="2.81273" stroke-miterlimit="10" stroke-linecap="round" stroke-linejoin="round"/>
<path d="M40.2848 6.93744L38.0801 10.5363L33.9761 11.5211L36.7175 14.7299L36.3858 18.9374L40.2848 17.3218L44.1839 18.9374L43.8522 14.7299L46.5936 11.5211L42.4895 10.5363L40.2848 6.93744Z" stroke="#189DEF" stroke-width="2.81273" stroke-miterlimit="10" stroke-linecap="round" stroke-linejoin="round"/>
<path d="M7.71482 6.93744L9.91954 10.5363L14.0235 11.5211L11.2821 14.7299L11.6138 18.9374L7.71482 17.3218L3.81576 18.9374L4.14744 14.7299L1.40601 11.5211L5.5101 10.5363L7.71482 6.93744Z" stroke="#189DEF" stroke-width="2.81273" stroke-miterlimit="10" stroke-linecap="round" stroke-linejoin="round"/>
<path d="M17.0625 43.8553H18.2081C19.3959 43.8553 20.5341 44.3268 21.3741 45.1668C21.7931 45.5868 22.2881 45.914 22.8263 46.1372C23.3644 46.3593 23.9456 46.4775 24.5391 46.4775H33.885C36.0291 46.4775 37.8628 44.9362 38.2322 42.824L39.705 34.3875C40.0716 32.2931 38.4591 30.375 36.3328 30.375H29.1675L30.6759 25.679C30.8081 25.2759 30.8709 24.8662 30.8709 24.4631C30.8709 22.8178 29.8228 21.2859 28.1737 20.7478C27.2737 20.4534 26.3062 20.9437 26.0119 21.8437L23.8762 28.4578C23.4816 29.6672 22.5488 30.6262 21.3516 31.0556L17.0625 32.5922" stroke="#189DEF" stroke-width="2.81273" stroke-miterlimit="10" stroke-linecap="round" stroke-linejoin="round"/>
<path d="M17.0625 29.7187H9.9375V46.5937H17.0625V29.7187Z" stroke="#189DEF" stroke-width="2.81273" stroke-miterlimit="10" stroke-linecap="round" stroke-linejoin="round"/>
</g>
<defs>
<clipPath id="clip0_243_1085">
<rect width="48" height="48" fill="white"/>
</clipPath>
</defs>
</svg>
