<svg width="48" height="48" viewBox="0 0 48 48" fill="none" xmlns="http://www.w3.org/2000/svg">
<g clip-path="url(#clip0_60_9785)">
<path d="M31.7 6.727L32.114 7.833L32.528 6.727C32.7009 6.26512 32.9708 5.84571 33.3197 5.49707C33.6685 5.14842 34.088 4.87867 34.55 4.706L35.65 4.292L34.55 3.878C34.0883 3.70487 33.6692 3.43481 33.3207 3.08602C32.9723 2.73722 32.7026 2.3178 32.53 1.856L32.116 0.75L31.7 1.856C31.5273 2.3178 31.2577 2.73722 30.9092 3.08602C30.5608 3.43481 30.1416 3.70487 29.68 3.878L28.574 4.292L29.68 4.706C30.1416 4.87891 30.5607 5.14877 30.9092 5.4974C31.2576 5.84603 31.5273 6.26532 31.7 6.727Z" fill="#189DEF"/>
<path d="M39.377 10.794L39.69 11.632L40 10.794C40.1309 10.4437 40.3355 10.1255 40.6 9.86103C40.8645 9.59656 41.1826 9.39195 41.533 9.26102L42.371 8.94702L41.533 8.63302C41.1826 8.5021 40.8645 8.29749 40.6 8.03302C40.3355 7.76854 40.1309 7.45038 40 7.10002L39.686 6.26202L39.373 7.10002C39.2418 7.45021 39.0371 7.76823 38.7726 8.03267C38.5082 8.2971 38.1902 8.50181 37.84 8.63302L37.001 8.94702L37.84 9.26102C38.1909 9.39175 38.5097 9.59625 38.7749 9.86071C39.04 10.1252 39.2453 10.4434 39.377 10.794Z" fill="#189DEF"/>
<path d="M44.0619 6.138L44.3749 6.977L44.6889 6.138C44.8202 5.7878 45.0249 5.46979 45.2893 5.20535C45.5537 4.94092 45.8718 4.73621 46.2219 4.605L47.0599 4.29199L46.2219 3.97799C45.8716 3.84707 45.5534 3.64246 45.289 3.37799C45.0245 3.11352 44.8199 2.79535 44.6889 2.44499L44.3749 1.60699L44.0619 2.44499C43.9307 2.79519 43.726 3.1132 43.4616 3.37764C43.1972 3.64207 42.8791 3.84678 42.5289 3.97799L41.6899 4.29199L42.5289 4.605C42.8789 4.73655 43.1968 4.94138 43.4612 5.20577C43.7256 5.47016 43.9304 5.788 44.0619 6.138Z" fill="#189DEF"/>
<path d="M39.8811 44.153V46.236C39.8811 46.3696 39.9075 46.5019 39.9588 46.6252C40.01 46.7486 40.0852 46.8606 40.1799 46.9548C40.2746 47.049 40.3869 47.1236 40.5105 47.1743C40.6341 47.2249 40.7665 47.2507 40.9001 47.25H44.8001C45.069 47.25 45.3269 47.1432 45.5171 46.953C45.7073 46.7629 45.8141 46.5049 45.8141 46.236V42.221C45.1704 42.8678 44.3991 43.3736 43.5493 43.7062C42.6995 44.0388 41.7899 44.191 40.8781 44.153H39.8811Z" fill="#189DEF"/>
<path d="M2.13208 42.162V46.236C2.13208 46.5049 2.23891 46.7628 2.42907 46.953C2.61924 47.1432 2.87715 47.25 3.14608 47.25H7.04608C7.31501 47.25 7.57292 47.1432 7.76309 46.953C7.95325 46.7628 8.06008 46.5049 8.06008 46.236V44.153H7.12508C6.19938 44.1929 5.27573 44.0361 4.41507 43.6929C3.55442 43.3497 2.77631 42.8279 2.13208 42.162Z" fill="#189DEF"/>
<path d="M2.16089 38.1C2.16089 40.974 4.16089 42.649 7.12489 42.649H40.8759C43.8359 42.649 45.8399 40.974 45.8399 38.1V37.27H2.16089V38.1Z" fill="#189DEF"/>
<path d="M46.3 19.6L43.8 19.166C43.6004 19.1311 43.3948 19.1647 43.2165 19.2613C43.0383 19.3578 42.8979 19.5117 42.8181 19.698L42.0401 21.457L41.724 20.975L39.5321 15.8C39.1785 14.9605 38.6171 14.2248 37.9007 13.6621C37.1843 13.0995 36.3364 12.7285 35.437 12.584C31.6522 12.0093 27.8283 11.7302 24 11.749C20.1721 11.7311 16.3485 12.0113 12.564 12.587C11.6638 12.7308 10.815 13.1015 10.0977 13.6641C9.38033 14.2268 8.81812 14.9629 8.46405 15.803L6.27705 20.97L5.96605 21.445L5.18305 19.693C5.10319 19.5067 4.96277 19.3528 4.78455 19.2563C4.60633 19.1597 4.40073 19.1261 4.20105 19.161L1.70005 19.6C1.46901 19.6373 1.25885 19.7558 1.10728 19.9341C0.955712 20.1125 0.872666 20.339 0.873048 20.573V21.064C0.873095 21.2893 0.950174 21.5079 1.0915 21.6834C1.23282 21.8589 1.4299 21.9809 1.65005 22.029L5.07405 22.812L3.43405 25.312C2.60407 26.5778 2.16196 28.0584 2.16205 29.572V35.772H45.84V29.572C45.8398 28.0583 45.3973 26.5777 44.5671 25.312L42.9211 22.8L46.3511 22.027C46.5712 21.9789 46.7683 21.8569 46.9096 21.6814C47.0509 21.5059 47.128 21.2873 47.128 21.062V20.571C47.1279 20.3372 47.0445 20.111 46.8928 19.9331C46.7411 19.7552 46.5309 19.6371 46.3 19.6ZM9.84905 16.389C10.1017 15.7823 10.5056 15.2504 11.0222 14.8441C11.5388 14.4378 12.1509 14.1706 12.8 14.068C16.5065 13.5054 20.2511 13.2316 24 13.249C27.749 13.2316 31.4936 13.5054 35.2001 14.068C35.8487 14.1709 36.4603 14.4381 36.9765 14.8442C37.4927 15.2503 37.8964 15.7818 38.149 16.388L39.834 20.362H8.16405L9.84905 16.389ZM6.66805 30.889C6.37408 30.8461 6.09976 30.716 5.88062 30.5154C5.66149 30.3148 5.50766 30.053 5.43905 29.764C5.34865 29.4269 5.31319 29.0774 5.33405 28.729C5.41505 27.829 5.69805 27.386 6.27005 27.386C6.27005 27.386 10.192 27.63 10.722 27.793C11.252 27.956 13.286 31.823 13.286 31.823L6.66805 30.889ZM31.792 32.389L23.952 32.837L16.208 32.4L14.233 28.211C14.233 28.211 21.19 28.817 23.999 28.817C26.808 28.817 33.767 28.211 33.767 28.211L31.792 32.389ZM42.5601 29.768C42.4914 30.057 42.3376 30.3188 42.1185 30.5194C41.8993 30.72 41.625 30.8501 41.3311 30.893L34.7131 31.827C34.7131 31.827 36.7481 27.96 37.278 27.797C37.808 27.634 41.729 27.39 41.729 27.39C42.3021 27.39 42.584 27.837 42.6651 28.733C42.6859 29.0814 42.6505 29.4309 42.5601 29.768Z" fill="#189DEF"/>
</g>
<defs>
<clipPath id="clip0_60_9785">
<rect width="48" height="48" fill="white"/>
</clipPath>
</defs>
</svg>
