<svg width="48" height="48" viewBox="0 0 48 48" fill="none" xmlns="http://www.w3.org/2000/svg">
<g filter="url(#filter0_b_472_3004)">
<rect width="48" height="48" rx="24" fill="white"/>
<path d="M32.0307 21.5307L24.5307 29.0307C24.461 29.1004 24.3783 29.1557 24.2873 29.1935C24.1962 29.2312 24.0986 29.2506 24.0001 29.2506C23.9015 29.2506 23.8039 29.2312 23.7128 29.1935C23.6218 29.1557 23.5391 29.1004 23.4694 29.0307L15.9694 21.5307C15.8287 21.3899 15.7496 21.1991 15.7496 21.0001C15.7496 20.801 15.8287 20.6102 15.9694 20.4694C16.1102 20.3287 16.301 20.2496 16.5001 20.2496C16.6991 20.2496 16.8899 20.3287 17.0307 20.4694L24.0001 27.4397L30.9694 20.4694C31.0391 20.3997 31.1218 20.3445 31.2129 20.3068C31.3039 20.269 31.4015 20.2496 31.5001 20.2496C31.5986 20.2496 31.6962 20.269 31.7872 20.3068C31.8783 20.3445 31.961 20.3997 32.0307 20.4694C32.1004 20.5391 32.1556 20.6218 32.1933 20.7129C32.2311 20.8039 32.2505 20.9015 32.2505 21.0001C32.2505 21.0986 32.2311 21.1962 32.1933 21.2872C32.1556 21.3783 32.1004 21.461 32.0307 21.5307Z" fill="#202B2D"/>
</g>
<defs>
<filter id="filter0_b_472_3004" x="-20" y="-20" width="88" height="88" filterUnits="userSpaceOnUse" color-interpolation-filters="sRGB">
<feFlood flood-opacity="0" result="BackgroundImageFix"/>
<feGaussianBlur in="BackgroundImageFix" stdDeviation="10"/>
<feComposite in2="SourceAlpha" operator="in" result="effect1_backgroundBlur_472_3004"/>
<feBlend mode="normal" in="SourceGraphic" in2="effect1_backgroundBlur_472_3004" result="shape"/>
</filter>
</defs>
</svg>
