<svg width="28" height="28" viewBox="0 0 28 28" fill="none" xmlns="http://www.w3.org/2000/svg">
<path d="M25.2928 0.668155H2.70609C2.4522 0.664629 2.2001 0.711152 1.96418 0.805067C1.72827 0.898982 1.51316 1.03845 1.33116 1.2155C1.14915 1.39256 1.0038 1.60373 0.903416 1.83697C0.80303 2.0702 0.749572 2.32093 0.746094 2.57482V25.4282C0.749572 25.6821 0.80303 25.9328 0.903416 26.166C1.0038 26.3992 1.14915 26.6104 1.33116 26.7875C1.51316 26.9645 1.72827 27.104 1.96418 27.1979C2.2001 27.2918 2.4522 27.3383 2.70609 27.3348H25.2928C25.5467 27.3383 25.7988 27.2918 26.0347 27.1979C26.2706 27.104 26.4857 26.9645 26.6677 26.7875C26.8497 26.6104 26.9951 26.3992 27.0954 26.166C27.1958 25.9328 27.2493 25.6821 27.2528 25.4282V2.57482C27.2493 2.32093 27.1958 2.0702 27.0954 1.83697C26.9951 1.60373 26.8497 1.39256 26.6677 1.2155C26.4857 1.03845 26.2706 0.898982 26.0347 0.805067C25.7988 0.711152 25.5467 0.664629 25.2928 0.668155ZM8.78609 22.9882H4.78609V10.9882H8.78609V22.9882ZM6.78609 9.30816C6.23444 9.30816 5.70539 9.08901 5.31531 8.69894C4.92524 8.30886 4.70609 7.77981 4.70609 7.22816C4.70609 6.67651 4.92524 6.14745 5.31531 5.75737C5.70539 5.3673 6.23444 5.14816 6.78609 5.14816C7.07902 5.11493 7.37566 5.14396 7.65659 5.23333C7.93753 5.32271 8.19641 5.47041 8.4163 5.66677C8.63619 5.86313 8.81213 6.10373 8.93259 6.3728C9.05305 6.64187 9.11532 6.93335 9.11532 7.22816C9.11532 7.52296 9.05305 7.81444 8.93259 8.08351C8.81213 8.35258 8.63619 8.59318 8.4163 8.78954C8.19641 8.9859 7.93753 9.13361 7.65659 9.22298C7.37566 9.31235 7.07902 9.34138 6.78609 9.30816ZM23.2128 22.9882H19.2128V16.5482C19.2128 14.9348 18.6394 13.8815 17.1861 13.8815C16.7363 13.8848 16.2983 14.0259 15.9312 14.2857C15.5641 14.5456 15.2854 14.9117 15.1328 15.3348C15.0284 15.6482 14.9832 15.9783 14.9994 16.3082V22.9748H10.9994V10.9748H14.9994V12.6682C15.3628 12.0376 15.8913 11.5182 16.528 11.1658C17.1647 10.8133 17.8855 10.6413 18.6128 10.6682C21.2794 10.6682 23.2128 12.3882 23.2128 16.0815V22.9882Z" fill="#27292C"/>
</svg>
