<svg width="18" height="18" viewBox="0 0 18 18" fill="none" xmlns="http://www.w3.org/2000/svg">
<path d="M3.32016 2.89328H15.0802C15.2402 2.89328 15.3468 2.78662 15.3468 2.62662V1.61328C15.3468 1.45328 15.2402 1.34662 15.0802 1.34662H11.0002V0.466618C11.0002 0.306618 10.8935 0.199951 10.7335 0.199951H7.64016C7.48016 0.199951 7.3735 0.306618 7.3735 0.466618V1.34662H3.32016C3.16016 1.34662 3.0535 1.45328 3.0535 1.61328V2.62662C3.0535 2.75995 3.16016 2.89328 3.32016 2.89328ZM7.90683 0.733285H10.4668V1.34662H7.90683V0.733285ZM3.58683 1.87995H7.66683H10.7335H14.8135V2.35995H3.58683V1.87995Z" fill="#189DEF"/>
<path d="M7.18685 14.9466H11.0535C12.0935 14.9466 12.9469 14.0933 12.9469 13.0533C12.9469 12.8933 12.8402 12.7866 12.6802 12.7866H5.56018C5.40018 12.7866 5.29352 12.8933 5.29352 13.0533C5.29352 14.12 6.14685 14.9466 7.18685 14.9466ZM12.3602 13.3466C12.2269 13.96 11.6935 14.44 11.0269 14.44H7.18685C6.54685 14.44 5.98685 13.9866 5.85352 13.3466H12.3602Z" fill="#189DEF"/>
<path d="M3.32018 14.2533C3.96018 14.2533 4.49352 13.7199 4.49352 13.0799C4.49352 12.4399 3.96018 11.9066 3.32018 11.9066C2.68018 11.9066 2.14685 12.4399 2.14685 13.0799C2.14685 13.7199 2.68018 14.2533 3.32018 14.2533ZM3.32018 12.4399C3.66685 12.4399 3.96018 12.7333 3.96018 13.0799C3.96018 13.4266 3.66685 13.7199 3.32018 13.7199C2.97352 13.7199 2.68018 13.4266 2.68018 13.0799C2.68018 12.7333 2.97352 12.4399 3.32018 12.4399Z" fill="#189DEF"/>
<path d="M14.6802 14.2533C15.3202 14.2533 15.8535 13.7199 15.8535 13.0799C15.8535 12.4399 15.3202 11.9066 14.6802 11.9066C14.0402 11.9066 13.5068 12.4399 13.5068 13.0799C13.5068 13.7199 14.0402 14.2533 14.6802 14.2533ZM14.6802 12.4399C15.0268 12.4399 15.3202 12.7333 15.3202 13.0799C15.3202 13.4266 15.0268 13.7199 14.6802 13.7199C14.3335 13.7199 14.0402 13.4266 14.0402 13.0799C14.0402 12.7333 14.3335 12.4399 14.6802 12.4399Z" fill="#189DEF"/>
<path d="M1.88018 9.71998H1.93352L0.946851 11.08C0.866851 11.2133 0.813517 11.3466 0.813517 11.5066V15.4533C0.813517 15.8533 1.13352 16.1733 1.53352 16.1733H1.82685V17.2133C1.82685 17.5333 2.09352 17.8 2.41352 17.8H3.42685C3.74685 17.8 4.01352 17.5333 4.01352 17.2133V16.1733H13.9602V17.2133C13.9602 17.5333 14.2268 17.8 14.5469 17.8H15.5602C15.8802 17.8 16.1469 17.5333 16.1469 17.2133V16.1733H16.4402C16.8402 16.1733 17.1602 15.8533 17.1602 15.4533V11.5066C17.1602 11.3466 17.1068 11.2133 17.0268 11.08L16.0668 9.71998H16.1202C17.0535 9.71998 17.8268 8.94665 17.8268 8.01332C17.8268 7.85332 17.7202 7.74665 17.5602 7.74665H16.4669C15.9335 7.74665 15.4802 8.11998 15.3202 8.59998C14.7602 6.91998 13.1602 5.77332 11.3735 5.77332H6.57352C5.64018 5.77332 4.78685 6.06665 4.04018 6.62665C3.37352 7.13332 2.89352 7.79998 2.62685 8.57332C2.46685 8.09332 2.01352 7.71998 1.48018 7.71998H0.413517C0.253517 7.71998 0.146851 7.82665 0.146851 7.98665C0.146851 8.94665 0.920184 9.71998 1.88018 9.71998ZM3.50685 17.2133C3.50685 17.24 3.48018 17.2666 3.45352 17.2666H2.44018C2.41352 17.2666 2.38685 17.24 2.38685 17.2133V16.1733H3.53352V17.2133H3.50685ZM15.6402 17.2133C15.6402 17.24 15.6135 17.2666 15.5869 17.2666H14.5735C14.5469 17.2666 14.5202 17.24 14.5202 17.2133V16.1733H15.6669V17.2133H15.6402ZM15.8002 8.94665C15.8002 8.57332 16.0935 8.27998 16.4669 8.27998H17.2668C17.1335 8.81332 16.6802 9.18665 16.1202 9.18665H15.8002V8.94665ZM4.38685 7.05332C5.02685 6.57332 5.77352 6.30665 6.60018 6.30665H11.4002C13.0268 6.30665 14.4402 7.39998 14.8935 8.94665C14.8135 9.34665 12.7069 9.90665 9.00018 9.90665C5.29352 9.90665 3.18685 9.34665 3.10685 8.94665C3.32018 8.17332 3.77352 7.53332 4.38685 7.05332ZM2.81352 9.42665C3.13352 9.71998 3.74685 9.95998 4.73352 10.12C5.85352 10.3333 7.37352 10.44 9.02685 10.44C10.3335 10.44 14.2002 10.36 15.2135 9.42665L16.6535 11.4C16.6802 11.4266 16.6802 11.48 16.6802 11.5066V15.4533C16.6802 15.56 16.6002 15.64 16.4935 15.64H15.9335H14.2535H3.77352H2.09352H1.53352C1.42685 15.64 1.34685 15.56 1.34685 15.4533V11.5066C1.34685 11.4533 1.34685 11.4266 1.37352 11.4L2.81352 9.42665ZM1.50685 8.25332C1.88018 8.25332 2.17352 8.54665 2.17352 8.91998V9.15998H1.85352C1.29352 9.15998 0.813517 8.75998 0.706851 8.25332H1.50685Z" fill="#189DEF"/>
<path d="M15.2669 5.8267C15.2669 5.8267 15.2402 5.80004 15.2135 5.80004C15.2135 5.80004 15.1869 5.77337 15.1602 5.77337C15.1335 5.77337 15.1335 5.77337 15.1069 5.7467C15.0535 5.7467 15.0002 5.7467 14.9469 5.77337C14.9202 5.77337 14.8935 5.80004 14.8669 5.8267C14.8402 5.85337 14.8135 5.88004 14.8135 5.9067C14.7869 5.93337 14.7869 5.9867 14.7869 6.01337C14.7869 6.09337 14.8135 6.1467 14.8669 6.20004C14.8935 6.2267 14.9202 6.25337 14.9469 6.25337C14.9735 6.28004 15.0269 6.28004 15.0535 6.28004C15.1335 6.28004 15.1869 6.25337 15.2402 6.20004C15.2935 6.1467 15.3202 6.09337 15.3202 6.01337C15.3202 5.9867 15.3202 5.93337 15.2935 5.9067C15.2935 5.88004 15.2669 5.85337 15.2669 5.8267Z" fill="#189DEF"/>
<path d="M15.2668 4.52005C15.1868 4.44005 15.0802 4.41338 14.9735 4.46671C14.9468 4.46671 14.9202 4.49338 14.8935 4.52005L14.8668 4.54671C14.8668 4.54671 14.8402 4.57338 14.8402 4.60005C14.8402 4.62671 14.8135 4.62671 14.8135 4.65338V4.70671C14.8135 4.73338 14.8135 4.78671 14.8402 4.81338C14.8402 4.84005 14.8668 4.86671 14.8935 4.89338C14.9202 4.92005 14.9468 4.94671 14.9735 4.94671C15.0002 4.94671 15.0535 4.97338 15.0802 4.97338H15.1335H15.1868C15.2135 4.97338 15.2135 4.94671 15.2402 4.94671C15.2668 4.94671 15.2668 4.92005 15.2935 4.92005C15.3202 4.89338 15.3468 4.86671 15.3468 4.84005C15.3735 4.81338 15.3735 4.76005 15.3735 4.73338C15.3202 4.62671 15.2935 4.57338 15.2668 4.52005Z" fill="#189DEF"/>
<path d="M15.2669 3.18669C15.2669 3.18669 15.2402 3.16002 15.2135 3.16002C15.2135 3.16002 15.1869 3.13336 15.1602 3.13336C15.1335 3.13336 15.1335 3.13336 15.1069 3.10669C15.0535 3.10669 15.0002 3.10669 14.9469 3.13336C14.9202 3.13336 14.8935 3.16002 14.8669 3.18669C14.8135 3.24002 14.7869 3.29336 14.7869 3.37336C14.7869 3.40002 14.7869 3.45336 14.8135 3.48002C14.8135 3.50669 14.8402 3.53336 14.8669 3.56002C14.8935 3.58669 14.9202 3.61336 14.9469 3.61336C14.9735 3.61336 15.0269 3.64002 15.0535 3.64002H15.1069C15.1335 3.64002 15.1335 3.64002 15.1602 3.61336C15.1869 3.58669 15.1869 3.58669 15.2135 3.58669C15.2402 3.58669 15.2402 3.56002 15.2669 3.56002C15.2935 3.53336 15.3202 3.50669 15.3202 3.48002C15.3469 3.45336 15.3469 3.40002 15.3469 3.37336C15.3202 3.32002 15.2935 3.24002 15.2669 3.18669Z" fill="#189DEF"/>
<path d="M13.9069 4.49339C13.8802 4.49339 13.8802 4.46672 13.8535 4.46672C13.8269 4.46672 13.8269 4.46672 13.8002 4.44005C13.7202 4.41339 13.6135 4.44005 13.5602 4.52005C13.5335 4.54672 13.5069 4.57339 13.5069 4.60005C13.4802 4.62672 13.4802 4.68005 13.4802 4.70672C13.4802 4.78672 13.5069 4.84005 13.5602 4.89339C13.6135 4.94672 13.6669 4.97339 13.7469 4.97339C13.8269 4.97339 13.8802 4.94672 13.9335 4.89339C13.9869 4.84005 14.0135 4.78672 14.0135 4.70672C14.0135 4.68005 14.0135 4.62672 13.9869 4.60005C13.9602 4.57339 13.9602 4.54672 13.9335 4.52005C13.9335 4.49339 13.9335 4.49339 13.9069 4.49339Z" fill="#189DEF"/>
<path d="M13.9602 3.18668C13.9335 3.18668 13.9335 3.16001 13.9335 3.16001C13.9068 3.16001 13.9068 3.13335 13.8802 3.13335C13.8535 3.13335 13.8535 3.13335 13.8268 3.10668C13.7468 3.08001 13.6402 3.10668 13.5868 3.18668C13.5335 3.24001 13.5068 3.29335 13.5068 3.37335V3.42668C13.5068 3.45335 13.5068 3.45335 13.5335 3.48001C13.5335 3.50668 13.5335 3.50668 13.5602 3.53335C13.5602 3.56001 13.5868 3.56001 13.5868 3.56001C13.6402 3.61335 13.6935 3.64001 13.7735 3.64001H13.8268C13.8535 3.64001 13.8535 3.64001 13.8802 3.61335C13.9068 3.61335 13.9068 3.58668 13.9335 3.58668L13.9602 3.56001C14.0135 3.50668 14.0402 3.45335 14.0402 3.37335C14.0135 3.32001 13.9868 3.24001 13.9602 3.18668Z" fill="#189DEF"/>
<path d="M12.2535 4.51994C12.2269 4.54661 12.2002 4.57327 12.2002 4.59994C12.2002 4.6266 12.1735 4.67994 12.1735 4.7066C12.1735 4.73327 12.1735 4.7866 12.2002 4.81327C12.2269 4.83994 12.2269 4.8666 12.2535 4.89327C12.3069 4.9466 12.3602 4.97327 12.4402 4.97327H12.4935H12.5469C12.5735 4.97327 12.5735 4.9466 12.6002 4.9466C12.6269 4.9466 12.6269 4.91994 12.6535 4.91994C12.6802 4.89327 12.7069 4.8666 12.7069 4.83994C12.7335 4.81327 12.7335 4.75994 12.7335 4.73327C12.7335 4.7066 12.7335 4.65327 12.7069 4.6266C12.7069 4.59994 12.6802 4.57327 12.6535 4.5466C12.5469 4.41327 12.3602 4.41327 12.2535 4.51994Z" fill="#189DEF"/>
<path d="M12.6535 3.18668C12.6269 3.18668 12.6269 3.16001 12.6002 3.16001C12.5735 3.16001 12.5735 3.13335 12.5469 3.13335C12.5202 3.13335 12.5202 3.13335 12.4935 3.10668C12.4135 3.08001 12.3069 3.10668 12.2535 3.18668C12.2002 3.24001 12.1735 3.29335 12.1735 3.37335C12.1735 3.45335 12.2002 3.50668 12.2535 3.56001C12.3069 3.61335 12.3602 3.64001 12.4402 3.64001C12.5202 3.64001 12.5735 3.61335 12.6269 3.56001C12.6802 3.50668 12.7069 3.45335 12.7069 3.37335C12.7069 3.32001 12.6802 3.24001 12.6535 3.18668Z" fill="#189DEF"/>
<path d="M10.9469 4.51994C10.8935 4.57327 10.8669 4.62661 10.8669 4.70661C10.8669 4.78661 10.8935 4.83994 10.9469 4.89327C11.0002 4.94661 11.0535 4.97327 11.1335 4.97327C11.2135 4.97327 11.2669 4.94661 11.3202 4.89327C11.3735 4.83994 11.4002 4.78661 11.4002 4.70661C11.4002 4.62661 11.3735 4.57327 11.3202 4.51994C11.2402 4.41327 11.0535 4.41327 10.9469 4.51994Z" fill="#189DEF"/>
<path d="M11.3469 3.18669C11.2402 3.08002 11.0802 3.08002 10.9735 3.18669C10.9202 3.24002 10.8935 3.29336 10.8935 3.37336C10.8935 3.45336 10.9202 3.50669 10.9735 3.56002C11.0269 3.61336 11.0802 3.64002 11.1602 3.64002C11.2402 3.64002 11.2935 3.61336 11.3469 3.56002C11.4002 3.50669 11.4269 3.45336 11.4269 3.37336C11.4269 3.32002 11.3735 3.24002 11.3469 3.18669Z" fill="#189DEF"/>
<path d="M9.64018 4.51994C9.58685 4.57327 9.56018 4.6266 9.56018 4.7066C9.56018 4.7866 9.58685 4.83994 9.64018 4.89327C9.69351 4.9466 9.74685 4.97327 9.82685 4.97327H9.88018H9.93351C9.96018 4.97327 9.96018 4.9466 9.98685 4.9466C10.0135 4.9466 10.0135 4.91994 10.0135 4.91994C10.0668 4.86661 10.0935 4.81327 10.0935 4.73327C10.0935 4.65327 10.0668 4.59994 10.0135 4.5466C9.93351 4.41327 9.74685 4.41327 9.64018 4.51994Z" fill="#189DEF"/>
<path d="M10.0402 3.18668L10.0135 3.16001C10.0135 3.16001 9.98685 3.13335 9.96019 3.13335C9.93352 3.13335 9.93352 3.13335 9.90685 3.10668C9.82685 3.08001 9.72019 3.10668 9.66685 3.18668C9.61352 3.24001 9.58685 3.29335 9.58685 3.37335C9.58685 3.40001 9.58685 3.45335 9.61352 3.48001C9.64019 3.50668 9.64019 3.53335 9.66685 3.56001C9.72019 3.61335 9.77352 3.64001 9.85352 3.64001C9.93352 3.64001 9.98685 3.61335 10.0402 3.56001C10.0669 3.53335 10.0935 3.50668 10.0935 3.48001C10.0935 3.45335 10.1202 3.40001 10.1202 3.37335C10.1202 3.32001 10.0669 3.24001 10.0402 3.18668Z" fill="#189DEF"/>
<path d="M8.62684 4.46663C8.52018 4.43997 8.41351 4.43997 8.33351 4.51997C8.28018 4.5733 8.25351 4.62663 8.25351 4.70663C8.25351 4.7333 8.25351 4.78663 8.28018 4.8133C8.30684 4.83997 8.30684 4.86663 8.33351 4.8933C8.36018 4.91997 8.38684 4.94663 8.41351 4.94663C8.44018 4.94663 8.49351 4.9733 8.52018 4.9733C8.54684 4.9733 8.60018 4.9733 8.62684 4.94663C8.65351 4.91997 8.68018 4.91997 8.70684 4.8933C8.76018 4.83997 8.78684 4.78663 8.78684 4.70663C8.78684 4.62663 8.76018 4.5733 8.70684 4.51997C8.70684 4.4933 8.68018 4.46663 8.62684 4.46663Z" fill="#189DEF"/>
<path d="M8.73352 3.18671C8.70685 3.16005 8.68018 3.13338 8.65352 3.13338C8.54685 3.10671 8.44018 3.10671 8.36018 3.18671C8.30685 3.24005 8.28018 3.29338 8.28018 3.37338C8.28018 3.40005 8.28018 3.45338 8.30685 3.48005C8.33352 3.50671 8.33352 3.53338 8.36018 3.56005C8.41352 3.61338 8.49352 3.64005 8.54685 3.64005C8.57352 3.64005 8.62685 3.64005 8.65352 3.61338C8.68018 3.58671 8.70685 3.58671 8.73352 3.56005C8.78685 3.50671 8.81352 3.45338 8.81352 3.37338C8.81352 3.32005 8.76018 3.24005 8.73352 3.18671Z" fill="#189DEF"/>
<path d="M7.32017 4.46663C7.21351 4.43997 7.10684 4.43997 7.02684 4.51997C6.97351 4.5733 6.94684 4.62663 6.94684 4.70663C6.94684 4.7333 6.94684 4.78663 6.97351 4.8133C7.00017 4.83997 7.00017 4.86663 7.02684 4.8933C7.08017 4.94663 7.16017 4.9733 7.21351 4.9733C7.29351 4.9733 7.34684 4.94663 7.40017 4.8933C7.42684 4.86663 7.45351 4.83997 7.45351 4.8133C7.48017 4.78663 7.48017 4.7333 7.48017 4.70663C7.48017 4.62663 7.45351 4.5733 7.40017 4.51997C7.40017 4.4933 7.37351 4.46663 7.32017 4.46663Z" fill="#189DEF"/>
<path d="M7.42684 3.18669C7.32018 3.08002 7.16018 3.08002 7.05351 3.18669C7.00018 3.24002 6.97351 3.29336 6.97351 3.37336C6.97351 3.45336 7.00018 3.50669 7.05351 3.56002C7.10684 3.61336 7.16018 3.64002 7.24018 3.64002C7.26684 3.64002 7.32018 3.64002 7.34684 3.61336C7.37351 3.58669 7.40018 3.58669 7.42684 3.56002C7.48018 3.50669 7.50684 3.45336 7.50684 3.37336C7.50684 3.32002 7.45351 3.24002 7.42684 3.18669Z" fill="#189DEF"/>
<path d="M5.72017 4.51994C5.66683 4.57327 5.64017 4.62661 5.64017 4.70661V4.75994C5.64017 4.78661 5.64017 4.78661 5.66683 4.81327C5.66683 4.83994 5.66683 4.83994 5.6935 4.86661L5.72017 4.89327C5.7735 4.94661 5.8535 4.97327 5.90683 4.97327C5.98683 4.97327 6.04017 4.94661 6.0935 4.89327C6.12017 4.89327 6.12017 4.86661 6.12017 4.86661C6.12017 4.83994 6.14683 4.83994 6.14683 4.81327C6.14683 4.78661 6.14683 4.78661 6.14683 4.75994C6.14683 4.73327 6.14683 4.73327 6.14683 4.70661C6.14683 4.62661 6.12017 4.57327 6.06683 4.51994C6.0135 4.41327 5.82683 4.41327 5.72017 4.51994Z" fill="#189DEF"/>
<path d="M6.12017 3.18669C6.01351 3.08002 5.85351 3.08002 5.74684 3.18669C5.69351 3.24002 5.66684 3.29336 5.66684 3.37336V3.42669C5.66684 3.45336 5.66684 3.45336 5.69351 3.48002C5.69351 3.50669 5.69351 3.50669 5.72017 3.53336C5.72017 3.56002 5.74684 3.56002 5.74684 3.56002C5.80017 3.61336 5.88017 3.64002 5.93351 3.64002C6.01351 3.64002 6.06684 3.61336 6.12017 3.56002C6.14684 3.56002 6.14684 3.53336 6.14684 3.53336C6.14684 3.53336 6.17351 3.50669 6.17351 3.48002C6.17351 3.45336 6.17351 3.45336 6.17351 3.42669C6.17351 3.40002 6.17351 3.40002 6.17351 3.37336C6.20017 3.32002 6.17351 3.24002 6.12017 3.18669Z" fill="#189DEF"/>
<path d="M4.84017 4.54661C4.84017 4.51994 4.8135 4.51994 4.8135 4.51994C4.70683 4.41327 4.54683 4.41327 4.44017 4.51994L4.4135 4.54661C4.4135 4.54661 4.38684 4.57327 4.38684 4.59994C4.38684 4.62661 4.38684 4.62661 4.36017 4.65327V4.70661C4.36017 4.78661 4.38683 4.83994 4.44017 4.89327C4.4935 4.94661 4.54684 4.97327 4.62684 4.97327C4.70684 4.97327 4.76017 4.94661 4.8135 4.89327C4.86683 4.83994 4.8935 4.78661 4.8935 4.70661C4.8935 4.67994 4.8935 4.67994 4.8935 4.65327C4.8935 4.62661 4.8935 4.62661 4.86684 4.59994C4.86684 4.59994 4.84017 4.57327 4.84017 4.54661Z" fill="#189DEF"/>
<path d="M4.8135 3.18661C4.78683 3.15995 4.76017 3.13328 4.7335 3.13328C4.6535 3.10661 4.60017 3.10661 4.52017 3.13328C4.4935 3.13328 4.46683 3.15995 4.44017 3.18661C4.38683 3.23995 4.36017 3.29328 4.36017 3.37328C4.36017 3.45328 4.38683 3.50661 4.44017 3.55995C4.4935 3.61328 4.54684 3.63995 4.62684 3.63995C4.70684 3.63995 4.76017 3.61328 4.8135 3.55995C4.86683 3.50661 4.8935 3.45328 4.8935 3.37328C4.8935 3.31995 4.86683 3.23995 4.8135 3.18661Z" fill="#189DEF"/>
<path d="M3.2135 5.77328C3.18683 5.77328 3.16016 5.79995 3.1335 5.82661C3.10683 5.85328 3.08016 5.87995 3.08016 5.90661C3.0535 5.93328 3.0535 5.98661 3.0535 6.01328C3.0535 6.03995 3.0535 6.09328 3.08016 6.11995C3.08016 6.14661 3.10683 6.17328 3.1335 6.19995C3.18683 6.25328 3.24016 6.27995 3.32016 6.27995C3.40016 6.27995 3.4535 6.25328 3.50683 6.19995C3.56016 6.14661 3.58683 6.09328 3.58683 6.01328C3.58683 5.93328 3.56016 5.87995 3.50683 5.82661C3.42683 5.77328 3.2935 5.74661 3.2135 5.77328Z" fill="#189DEF"/>
<path d="M3.56019 4.65338C3.56019 4.62671 3.56019 4.62671 3.53352 4.60005C3.53352 4.57338 3.50686 4.57338 3.50686 4.54671C3.50686 4.52005 3.48019 4.52005 3.48019 4.52005C3.40019 4.44005 3.29352 4.41338 3.18686 4.46671C3.16019 4.46671 3.13352 4.49338 3.10686 4.52005C3.05352 4.57338 3.02686 4.62671 3.02686 4.70671C3.02686 4.73338 3.02686 4.78671 3.05352 4.81338C3.05352 4.84005 3.08019 4.86671 3.10686 4.89338C3.16019 4.94671 3.21352 4.97338 3.29352 4.97338C3.37352 4.97338 3.42686 4.94671 3.48019 4.89338C3.53352 4.84005 3.56019 4.78671 3.56019 4.70671C3.58686 4.68005 3.58686 4.68005 3.56019 4.65338Z" fill="#189DEF"/>
<path d="M3.50683 3.18667C3.42683 3.10667 3.32016 3.08 3.2135 3.13334C3.18683 3.13334 3.16016 3.16 3.1335 3.18667C3.08016 3.24 3.0535 3.29334 3.0535 3.37334C3.0535 3.4 3.0535 3.45334 3.08016 3.48C3.08016 3.50667 3.10683 3.53334 3.1335 3.56C3.18683 3.61334 3.24016 3.64 3.32016 3.64C3.40016 3.64 3.4535 3.61334 3.50683 3.56C3.56016 3.50667 3.58683 3.45334 3.58683 3.37334C3.58683 3.32 3.56016 3.24 3.50683 3.18667Z" fill="#189DEF"/>
</svg>
