<svg width="20" height="20" viewBox="0 0 20 20" fill="none" xmlns="http://www.w3.org/2000/svg">
<path d="M17.9422 4.55782L15.4422 2.05782C15.3841 1.99971 15.3152 1.95361 15.2393 1.92215C15.1635 1.8907 15.0821 1.87451 15 1.87451C14.9179 1.87451 14.8365 1.8907 14.7607 1.92215C14.6848 1.95361 14.6159 1.99971 14.5578 2.05782L7.05781 9.55782C6.99979 9.6159 6.95378 9.68485 6.92241 9.76072C6.89105 9.83659 6.87494 9.9179 6.875 10V12.5C6.875 12.6658 6.94085 12.8247 7.05806 12.9419C7.17527 13.0592 7.33424 13.125 7.5 13.125H10C10.0821 13.1251 10.1634 13.109 10.2393 13.0776C10.3152 13.0462 10.3841 13.0002 10.4422 12.9422L17.9422 5.44219C18.0003 5.38415 18.0464 5.31521 18.0779 5.23934C18.1093 5.16347 18.1255 5.08214 18.1255 5C18.1255 4.91787 18.1093 4.83654 18.0779 4.76067C18.0464 4.68479 18.0003 4.61586 17.9422 4.55782ZM9.74141 11.875H8.125V10.2586L13.125 5.2586L14.7414 6.875L9.74141 11.875ZM15.625 5.99141L14.0086 4.375L15 3.3836L16.6164 5L15.625 5.99141ZM17.5 10V16.25C17.5 16.5815 17.3683 16.8995 17.1339 17.1339C16.8995 17.3683 16.5815 17.5 16.25 17.5H3.75C3.41848 17.5 3.10054 17.3683 2.86612 17.1339C2.6317 16.8995 2.5 16.5815 2.5 16.25V3.75C2.5 3.41848 2.6317 3.10054 2.86612 2.86612C3.10054 2.6317 3.41848 2.5 3.75 2.5H10C10.1658 2.5 10.3247 2.56585 10.4419 2.68306C10.5592 2.80027 10.625 2.95924 10.625 3.125C10.625 3.29076 10.5592 3.44973 10.4419 3.56694C10.3247 3.68416 10.1658 3.75 10 3.75H3.75V16.25H16.25V10C16.25 9.83424 16.3158 9.67527 16.4331 9.55806C16.5503 9.44085 16.7092 9.375 16.875 9.375C17.0408 9.375 17.1997 9.44085 17.3169 9.55806C17.4342 9.67527 17.5 9.83424 17.5 10Z" fill="#41454B"/>
</svg>
