<svg width="48" height="48" viewBox="0 0 48 48" fill="none" xmlns="http://www.w3.org/2000/svg">
<path d="M19.1993 0C14.1071 0 9.22352 2.02285 5.62282 5.62355C2.02212 9.22425 -0.000732422 14.1078 -0.000732422 19.2C-0.000732422 24.2922 2.02212 29.1758 5.62282 32.7765C9.22352 36.3772 14.1071 38.4 19.1993 38.4C21.9302 38.4079 24.6304 37.8236 27.1137 36.6872L31.0185 47.0208C31.1241 47.299 31.309 47.5401 31.5503 47.7141C31.7917 47.8882 32.0788 47.9876 32.3761 48H32.4465C32.73 48.0023 33.0085 47.9252 33.2506 47.7775C33.4926 47.6297 33.6885 47.4172 33.8161 47.164L36.8993 41.4232L40.3537 44.8792C40.81 45.3152 41.4169 45.5585 42.0481 45.5585C42.6792 45.5585 43.2861 45.3152 43.7425 44.8792L44.8785 43.7432C45.1012 43.5209 45.2779 43.2568 45.3984 42.9662C45.519 42.6755 45.581 42.3639 45.581 42.0492C45.581 41.7345 45.519 41.4229 45.3984 41.1323C45.2779 40.8416 45.1012 40.5775 44.8785 40.3552L41.4225 36.9L47.1505 33.8224C47.4167 33.6894 47.6385 33.482 47.7892 33.2254C47.9399 32.9689 48.0128 32.6741 47.9993 32.3768C47.9874 32.0792 47.8883 31.7916 47.7144 31.5498C47.5404 31.308 47.2993 31.1227 47.0209 31.0168L36.6865 27.1144C37.8228 24.6311 38.4072 21.9309 38.3993 19.2C38.3933 14.1097 36.3686 9.22951 32.7692 5.6301C29.1698 2.03068 24.2896 0.00592836 19.1993 0ZM28.7897 18.4C28.756 16.4268 28.5663 14.4593 28.2225 12.516C30.5782 12.3704 32.9081 12.1685 35.2121 11.9104C36.1466 13.9528 36.6788 16.1562 36.7793 18.4H28.7897ZM24.4649 22.4952C24.1891 22.3936 23.89 22.3733 23.6031 22.4368C23.3162 22.5002 23.0536 22.6447 22.8464 22.8531C22.6392 23.0615 22.4962 23.3249 22.4344 23.6122C22.3726 23.8995 22.3945 24.1985 22.4977 24.4736L22.9449 25.6576C21.9443 25.6304 20.9625 25.6136 19.9993 25.6072V20H27.1857C27.1617 21.1744 27.0865 22.3248 26.9577 23.44L24.4649 22.4952ZM19.9993 1.692C22.6737 2.308 25.0049 5.9656 26.2465 11.0152C24.1723 11.1155 22.0899 11.172 19.9993 11.1848V1.692ZM18.3993 1.692V11.1848C16.3107 11.1736 14.2283 11.1171 12.1521 11.0152C13.3937 5.9656 15.7249 2.308 18.3993 1.692ZM18.3993 12.7888V18.4H11.2089C11.248 16.4548 11.4479 14.5162 11.8065 12.604C13.9921 12.7144 16.1897 12.776 18.3993 12.7888ZM18.3993 25.6112C16.2305 25.6232 14.0225 25.6848 11.8057 25.7968C11.4502 23.8841 11.2538 21.9452 11.2185 20H18.3993V25.6112ZM9.60887 18.4H1.61927C1.71978 16.1562 2.25189 13.9528 3.18647 11.9104C5.48727 12.1691 7.81713 12.3709 10.1761 12.516C9.83222 14.4593 9.64256 16.4268 9.60887 18.4ZM9.61847 20C9.65359 21.9752 9.84674 23.9444 10.1961 25.8888C7.81127 26.036 5.46167 26.236 3.18727 26.4912C2.25197 24.4485 1.71957 22.2444 1.61927 20H9.61847ZM18.3993 27.2112V36.6936C15.8089 36.0768 13.4057 32.5256 12.1409 27.3832C14.2457 27.28 16.3401 27.2232 18.3993 27.2112ZM19.9993 36.7056V27.2072C21.1566 27.2147 22.3422 27.2368 23.5561 27.2736L25.0185 31.144C23.6793 34.2976 21.8873 36.2688 19.9993 36.7056ZM19.9993 18.4V12.7888C22.2073 12.7765 24.4049 12.7149 26.5921 12.604C26.9506 14.5162 27.1505 16.4548 27.1897 18.4H19.9993ZM34.4217 10.3824C32.2705 10.6144 30.0945 10.8024 27.8953 10.9328C27.0153 7.168 25.5513 4.1064 23.7185 2.1912C28.2283 3.40031 32.0762 6.34517 34.4217 10.3824ZM14.6801 2.1912C12.8473 4.1064 11.3809 7.168 10.5033 10.9336C8.30487 10.8024 6.12807 10.6136 3.97687 10.3824C6.3223 6.34517 10.1703 3.40031 14.6801 2.1912ZM3.97847 28.0192C6.10887 27.7904 8.29847 27.604 10.5185 27.4696C11.4209 31.3224 12.8777 34.3304 14.6705 36.2064C10.1653 34.9961 6.32168 32.0529 3.97847 28.0192ZM23.6993 36.2152C24.5352 35.318 25.243 34.3096 25.8025 33.2184L26.5465 35.1856C25.6294 35.6115 24.6767 35.9561 23.6993 36.2152ZM39.7169 36C39.607 36.0591 39.5125 36.1431 39.4409 36.2453C39.3693 36.3474 39.3225 36.4649 39.3044 36.5884C39.2863 36.7118 39.2973 36.8378 39.3366 36.9562C39.3758 37.0746 39.4422 37.1822 39.5305 37.2704L43.7473 41.4872C43.8213 41.5609 43.8801 41.6486 43.9202 41.7451C43.9603 41.8416 43.981 41.9451 43.981 42.0496C43.981 42.1541 43.9603 42.2576 43.9202 42.3541C43.8801 42.4506 43.8213 42.5383 43.7473 42.612L42.6113 43.748C42.4598 43.8931 42.2582 43.9741 42.0485 43.9741C41.8387 43.9741 41.6371 43.8931 41.4857 43.748L37.2697 39.5312C37.1815 39.443 37.0739 39.3765 36.9555 39.3373C36.837 39.298 36.7111 39.287 36.5876 39.3051C36.4642 39.3233 36.3467 39.37 36.2445 39.4416C36.1424 39.5132 36.0584 39.6077 35.9993 39.7176L32.4793 46.3488L24.0481 24.0488L46.3065 32.46L39.7169 36ZM28.4961 24.0192C28.6643 22.6856 28.761 21.3439 28.7857 20H36.7761C36.6816 22.2658 36.1409 24.4907 35.1849 26.5472L28.4961 24.0192Z" fill="#41454B"/>
</svg>
