<svg width="49" height="48" viewBox="0 0 49 48" fill="none" xmlns="http://www.w3.org/2000/svg">
<path d="M10.6967 25.8888C10.3474 23.9444 10.1543 21.9752 10.1191 20H2.11914C2.21945 22.2444 2.75184 24.4485 3.68714 26.4912C5.96234 26.24 8.31194 26.036 10.6967 25.8888Z" fill="#189DEF"/>
<path d="M15.171 36.2063C13.3782 34.3303 11.9214 31.3223 11.019 27.4695C8.795 27.6039 6.6094 27.7895 4.479 28.0191C6.82222 32.0528 10.6658 34.996 15.171 36.2063Z" fill="#189DEF"/>
<path d="M18.9 1.69189C16.2256 2.30789 13.8944 5.9655 12.6528 11.0151C14.727 11.1154 16.8094 11.1719 18.9 11.1847V1.69189Z" fill="#189DEF"/>
<path d="M35.7127 11.9104C33.4119 12.1691 31.0821 12.3709 28.7231 12.516C29.067 14.4593 29.2566 16.4268 29.2903 18.4H37.2799C37.1794 16.1562 36.6473 13.9528 35.7127 11.9104Z" fill="#189DEF"/>
<path d="M18.9 20H11.7192C11.7545 21.9452 11.9509 23.8841 12.3064 25.7968C14.5232 25.6848 16.7312 25.6232 18.9 25.6112V20Z" fill="#189DEF"/>
<path d="M18.8999 12.7888C16.6919 12.7765 14.4943 12.7149 12.3071 12.604C11.9485 14.5162 11.7486 16.4548 11.7095 18.4H18.8999V12.7888Z" fill="#189DEF"/>
<path d="M18.9 36.6936V27.2112C16.8408 27.2232 14.7464 27.2816 12.6416 27.3832C13.9064 32.5256 16.3096 36.08 18.9 36.6936Z" fill="#189DEF"/>
<path d="M2.12012 18.4H10.1097C10.1434 16.4268 10.3331 14.4593 10.6769 12.516C8.32118 12.3704 5.99132 12.1685 3.68732 11.9104C2.75274 13.9528 2.22063 16.1562 2.12012 18.4Z" fill="#189DEF"/>
<path d="M15.1807 2.19116C10.6709 3.40027 6.82297 6.34513 4.47754 10.3824C6.62874 10.6144 8.80554 10.8024 11.0039 10.9336C11.8815 7.16796 13.3479 4.10636 15.1807 2.19116Z" fill="#189DEF"/>
<path d="M20.5 25.6072C21.46 25.6125 22.4419 25.6293 23.4456 25.6576L22.9984 24.4736C22.8953 24.1985 22.8733 23.8995 22.9351 23.6122C22.9969 23.3249 23.1399 23.0615 23.3471 22.8531C23.5543 22.6447 23.817 22.5002 24.1039 22.4368C24.3908 22.3733 24.6899 22.3936 24.9656 22.4952L27.46 23.44C27.5888 22.3272 27.664 21.1768 27.688 20H20.5V25.6072Z" fill="#189DEF"/>
<path d="M20.5 36.7057C22.388 36.2689 24.176 34.2977 25.5192 31.1441L24.0568 27.2737C22.8445 27.2363 21.6589 27.2142 20.5 27.2073V36.7057Z" fill="#189DEF"/>
<path d="M29.2862 20C29.2615 21.3439 29.1648 22.6856 28.9966 24.0192L35.6854 26.5472C36.6414 24.4907 37.1821 22.2658 37.2766 20H29.2862Z" fill="#189DEF"/>
<path d="M26.3034 33.2185C25.7439 34.3097 25.0361 35.3182 24.2002 36.2153C25.1776 35.9562 26.1303 35.6117 27.0474 35.1857L26.3034 33.2185Z" fill="#189DEF"/>
<path d="M20.5 1.69189V11.1847C22.5885 11.1735 24.6709 11.117 26.7472 11.0151C25.5056 5.9655 23.1744 2.30789 20.5 1.69189Z" fill="#189DEF"/>
<path d="M40.2176 36L46.8072 32.46L24.5488 24.0488L32.98 46.3488L36.5 39.7176C36.5591 39.6078 36.6431 39.5132 36.7453 39.4416C36.8475 39.37 36.9649 39.3233 37.0884 39.3052C37.2118 39.2871 37.3378 39.2981 37.4562 39.3373C37.5746 39.3766 37.6822 39.443 37.7704 39.5312L41.9864 43.748C42.1379 43.8931 42.3395 43.9741 42.5492 43.9741C42.759 43.9741 42.9606 43.8931 43.112 43.748L44.248 42.612C44.3221 42.5383 44.3809 42.4506 44.421 42.3541C44.4611 42.2576 44.4817 42.1541 44.4817 42.0496C44.4817 41.9451 44.4611 41.8416 44.421 41.7451C44.3809 41.6486 44.3221 41.561 44.248 41.4872L40.0312 37.2704C39.943 37.1822 39.8766 37.0746 39.8373 36.9562C39.7981 36.8378 39.7871 36.7118 39.8052 36.5884C39.8233 36.4649 39.87 36.3475 39.9416 36.2453C40.0132 36.1431 40.1078 36.0591 40.2176 36Z" fill="#189DEF"/>
<path d="M20.5 18.4H27.6904C27.6512 16.4548 27.4514 14.5162 27.0928 12.604C24.9061 12.7144 22.7085 12.776 20.5 12.7888V18.4Z" fill="#189DEF"/>
<path d="M34.9224 10.3824C32.577 6.34513 28.729 3.40027 24.2192 2.19116C26.052 4.10636 27.5184 7.16796 28.396 10.9328C30.5952 10.8 32.7712 10.6144 34.9224 10.3824Z" fill="#189DEF"/>
</svg>
