<svg width="18" height="18" viewBox="0 0 18 18" fill="none" xmlns="http://www.w3.org/2000/svg">
<path d="M16.9421 16.0579L13.0304 12.1469C14.1642 10.7858 14.7295 9.03989 14.6089 7.2725C14.4882 5.50512 13.6908 3.85229 12.3825 2.65785C11.0743 1.46341 9.35591 0.819317 7.58486 0.859567C5.81382 0.899817 4.12647 1.62131 2.87383 2.87395C1.62118 4.12659 0.899695 5.81394 0.859445 7.58498C0.819195 9.35603 1.46328 11.0744 2.65772 12.3827C3.85217 13.6909 5.50499 14.4883 7.27238 14.609C9.03977 14.7297 10.7856 14.1643 12.1468 13.0305L16.0577 16.9422C16.1158 17.0003 16.1848 17.0464 16.2606 17.0778C16.3365 17.1092 16.4178 17.1254 16.4999 17.1254C16.5821 17.1254 16.6634 17.1092 16.7392 17.0778C16.8151 17.0464 16.8841 17.0003 16.9421 16.9422C17.0002 16.8842 17.0463 16.8152 17.0777 16.7394C17.1091 16.6635 17.1253 16.5822 17.1253 16.5001C17.1253 16.4179 17.1091 16.3366 17.0777 16.2607C17.0463 16.1849 17.0002 16.1159 16.9421 16.0579ZM2.12493 7.75006C2.12493 6.63754 2.45483 5.55 3.07292 4.62497C3.691 3.69995 4.56951 2.97898 5.59734 2.55323C6.62517 2.12749 7.75617 2.0161 8.84732 2.23314C9.93846 2.45018 10.9407 2.98591 11.7274 3.77258C12.5141 4.55925 13.0498 5.56153 13.2669 6.65267C13.4839 7.74382 13.3725 8.87482 12.9468 9.90265C12.521 10.9305 11.8 11.809 10.875 12.4271C9.94999 13.0452 8.86245 13.3751 7.74993 13.3751C6.2586 13.3734 4.82882 12.7802 3.77429 11.7257C2.71975 10.6712 2.12659 9.24139 2.12493 7.75006Z" fill="#189DEF"/>
</svg>
