<svg width="20" height="20" viewBox="0 0 20 20" fill="none" xmlns="http://www.w3.org/2000/svg">
<g clip-path="url(#clip0_507_5484)">
<path d="M19.8123 0.475686C19.5373 0.0694928 19.0234 -0.101275 18.5627 0.060507L16.5443 0.769207C16.0394 0.946421 15.6648 1.38594 15.5667 1.91614L15.4818 2.37519L14.295 3.19715C14.0002 2.97071 13.5859 2.94953 13.265 3.17187L10.2532 5.25734C9.93339 5.47882 9.80501 5.87817 9.90792 6.23506L8.82432 6.98553C8.53385 6.76229 8.11972 6.73479 7.7942 6.95994L6.46045 7.88375C6.17088 7.75283 5.82496 7.76131 5.53558 7.9343L4.82884 8.35741C4.68999 8.44051 4.64483 8.62046 4.72796 8.75931C4.8111 8.89824 4.99109 8.94328 5.12986 8.86018L5.83645 8.43719C6.02499 8.32436 6.26257 8.37667 6.38856 8.55861L7.5174 10.191C7.64309 10.3726 7.60906 10.6246 7.43989 10.7649L6.92739 11.1903C6.52265 11.5261 6.44205 12.1087 6.73975 12.5452C7.27037 13.3254 8.12519 14.9967 7.8882 17.4242C7.7331 19.0139 6.74264 19.5486 5.12759 19.3877C4.45042 19.3201 3.88413 18.9824 3.52857 18.7112C3.04326 18.3402 2.34143 18.5507 2.13722 19.1291C2.07221 19.3123 1.89438 19.4272 1.70454 19.4084L0.962791 19.3341C0.702869 19.3083 0.534133 19.0516 0.601174 18.7991L1.54663 15.1936C1.78463 14.2862 1.57999 13.3268 0.985216 12.5611C0.619849 12.0755 0.768543 11.4705 1.21525 11.2036L3.95117 9.56584C4.09002 9.4827 4.13518 9.30279 4.05208 9.1639C3.96898 9.02505 3.78911 8.97993 3.65015 9.06299L0.914424 10.7007C0.128682 11.1702 -0.0342722 12.2186 0.521319 12.919C1.0042 13.5399 1.17134 14.3147 0.979786 15.0449L0.0345272 18.6497C-0.125497 19.2523 0.288745 19.8561 0.904618 19.9173L1.64653 19.9916C2.10531 20.0371 2.534 19.7629 2.68961 19.3248C2.76154 19.1211 3.00388 19.0477 3.17285 19.177C3.58889 19.4944 4.25567 19.8897 5.06942 19.9708C7.02721 20.1663 8.28572 19.3846 8.47145 17.4812C8.7263 14.87 7.79944 13.0614 7.22404 12.2154C7.09953 12.0328 7.13356 11.7807 7.30151 11.6414L7.81401 11.216C8.07116 11.0027 8.19602 10.6808 8.17477 10.3641L9.48996 9.45344C9.81005 9.23211 9.93855 8.83268 9.83549 8.47556L10.9192 7.72533C11.211 7.94958 11.6254 7.97497 11.9491 7.75072L13.4086 6.74002C13.5417 6.6479 13.5749 6.46537 13.4827 6.3323C13.3905 6.19924 13.208 6.16611 13.075 6.25823L11.6154 7.26893C11.4832 7.36058 11.3023 7.32734 11.2103 7.19118L10.5102 6.15743C10.4173 6.02031 10.4516 5.83266 10.5867 5.73909L13.5985 3.65362C13.7311 3.56173 13.912 3.59565 14.0036 3.73098L14.7037 4.76457C14.7966 4.90201 14.7623 5.08989 14.6273 5.18342L14.1995 5.47956C14.0664 5.57164 14.0332 5.75421 14.1253 5.88728C14.2174 6.02031 14.3999 6.05359 14.533 5.96143L14.9609 5.66525C15.2805 5.44389 15.4089 5.04461 15.3061 4.68753L16.4952 3.86424L16.9463 3.9496C17.4739 4.04954 18.0159 3.85385 18.3612 3.44261L19.7444 1.79584C20.058 1.42259 20.0859 0.879692 19.8123 0.475686ZM9.15656 8.97157L7.95966 9.80032L6.91134 8.28432L8.12769 7.44185C8.2615 7.34937 8.4418 7.38481 8.53302 7.51947L9.23313 8.55318C9.32607 8.69043 9.29177 8.87808 9.15656 8.97157ZM10.5532 7.266L9.54286 7.96548L9.19035 7.44493L10.2005 6.7453L10.5532 7.266ZM14.6611 3.65651L15.6711 2.95696L16.0239 3.47785L15.0138 4.17726L14.6611 3.65651ZM19.2957 1.41903L17.9125 3.0658C17.7023 3.31603 17.3737 3.43414 17.0553 3.37385L16.6032 3.28833L16.0579 2.4829L16.143 2.02275C16.203 1.69845 16.4311 1.43001 16.7384 1.3221L18.7568 0.613402C18.9667 0.539798 19.2011 0.618208 19.3271 0.804251C19.4545 0.992482 19.4416 1.24525 19.2957 1.41903Z" fill="black"/>
<path d="M4.9008 13.5722C4.39131 13.5216 3.92644 13.8639 3.82111 14.3689L3.32646 16.7268C3.27935 16.9517 3.3099 17.1878 3.41257 17.3915C3.60393 17.7712 4.09185 18.4249 5.20905 18.5365C5.70018 18.5855 6.19131 18.5167 6.56812 18.2074C6.99061 17.8607 7.04753 17.3912 7.05261 17.3386C7.06628 17.1972 7.07546 17.0574 7.08 16.9229C7.08543 16.7612 6.95873 16.6257 6.79698 16.6202C6.63501 16.615 6.49975 16.7416 6.49428 16.9033C6.49022 17.0255 6.48178 17.1531 6.46932 17.282C6.46904 17.2847 6.43248 17.5606 6.19635 17.7543C5.98608 17.927 5.67361 17.9938 5.26722 17.9534C4.47066 17.8738 4.10357 17.4605 3.93585 17.1278C3.89272 17.0422 3.87999 16.9425 3.89999 16.847L4.39467 14.4889C4.43874 14.2777 4.63158 14.1343 4.84263 14.1554L5.41576 14.2124C5.50777 14.2216 5.59387 14.2612 5.6583 14.3241C5.84333 14.5043 6.18127 14.9123 6.36575 15.6189C6.40665 15.7755 6.56679 15.8693 6.72326 15.8284C6.87985 15.7875 6.97361 15.6274 6.93275 15.4709C6.72346 14.6692 6.34653 14.1765 6.06742 13.9045C5.90838 13.7493 5.69756 13.6516 5.47382 13.6293L4.9008 13.5722Z" fill="black"/>
<path d="M1.7293 11.9187C1.59076 12.0023 1.5463 12.1824 1.63002 12.3209L1.87244 12.7222C1.95613 12.8607 2.13623 12.9052 2.27473 12.8215C2.41327 12.7378 2.45773 12.5577 2.374 12.4192L2.13158 12.0179C2.0479 11.8794 1.86776 11.8349 1.7293 11.9187Z" fill="black"/>
<path d="M6.29999 10.3403C6.52569 10.3403 6.66911 10.092 6.5505 9.89571L6.30804 9.49444C6.22435 9.35595 6.04421 9.31145 5.90571 9.39521C5.76721 9.47889 5.72275 9.65904 5.80648 9.79754L6.04894 10.1988C6.10398 10.2899 6.20076 10.3403 6.29999 10.3403Z" fill="black"/>
<path d="M3.74322 11.3507C3.58922 11.3014 3.42419 11.3861 3.37469 11.5402C3.32523 11.6942 3.41009 11.8593 3.56421 11.9087C4.22669 12.1213 4.92344 11.7003 5.04338 11.015C5.07127 10.8556 4.96466 10.7037 4.80526 10.6758C4.64594 10.648 4.494 10.7545 4.4661 10.9139C4.40758 11.2487 4.0678 11.4547 3.74322 11.3507Z" fill="black"/>
</g>
<defs>
<clipPath id="clip0_507_5484">
<rect width="20" height="20" fill="white"/>
</clipPath>
</defs>
</svg>
