<svg width="20" height="20" viewBox="0 0 20 20" fill="none" xmlns="http://www.w3.org/2000/svg">
<path d="M18.6991 5.47501C18.6354 5.27635 18.5139 5.10122 18.3501 4.97205C18.1862 4.84289 17.9876 4.76557 17.7795 4.75001L14.8936 4.52189L13.7835 1.8922C13.7024 1.70177 13.5671 1.53938 13.3944 1.42524C13.2217 1.3111 13.0193 1.25024 12.8124 1.25024C12.6054 1.25024 12.403 1.3111 12.2303 1.42524C12.0576 1.53938 11.9224 1.70177 11.8413 1.8922L10.7311 4.52189L7.84517 4.75001C7.63793 4.76528 7.43994 4.84193 7.27644 4.97017C7.11293 5.09841 6.99133 5.27245 6.92712 5.47008C6.86292 5.66771 6.85904 5.87999 6.91596 6.07984C6.97288 6.27969 7.08803 6.45806 7.24673 6.5922L9.43892 8.4422L8.77017 11.207C8.72153 11.4073 8.73343 11.6174 8.80436 11.8109C8.87529 12.0044 9.00207 12.1724 9.16861 12.2938C9.3367 12.4177 9.53777 12.4889 9.74637 12.4985C9.95497 12.5081 10.1617 12.4556 10.3405 12.3477L12.8124 10.8594L15.285 12.3485C15.4639 12.4561 15.6706 12.5084 15.8791 12.4988C16.0876 12.4892 16.2887 12.4182 16.4569 12.2945C16.6231 12.173 16.7496 12.0049 16.8204 11.8114C16.8912 11.618 16.9031 11.408 16.8545 11.2078L16.1858 8.44298L18.378 6.59298C18.5367 6.45979 18.6521 6.28223 18.7093 6.08305C18.7665 5.88387 18.763 5.67215 18.6991 5.47501ZM15.0842 7.73439C14.9955 7.80934 14.9295 7.90752 14.8935 8.01791C14.8574 8.12831 14.8529 8.24655 14.8803 8.35939L15.5272 11.032L13.135 9.59377C13.0377 9.53521 12.9263 9.50427 12.8128 9.50427C12.6992 9.50427 12.5878 9.53521 12.4905 9.59377L10.0983 11.0336L10.7452 8.35939C10.7725 8.24648 10.7678 8.12819 10.7317 8.01779C10.6955 7.90739 10.6293 7.80925 10.5405 7.73439L8.43736 5.95783L11.2124 5.7383C11.3266 5.72923 11.4361 5.68895 11.529 5.62185C11.6218 5.55475 11.6945 5.46342 11.7389 5.35783L12.8124 2.80548L13.8897 5.35783C13.9342 5.46342 14.0068 5.55475 14.0997 5.62185C14.1925 5.68895 14.3021 5.72923 14.4163 5.7383L17.192 5.95783L15.0842 7.73439ZM6.88111 9.62345L2.31705 14.1922C2.19977 14.3095 2.04071 14.3754 1.87486 14.3754C1.70901 14.3754 1.54995 14.3095 1.43267 14.1922C1.3154 14.0749 1.24951 13.9159 1.24951 13.75C1.24951 13.5842 1.3154 13.4251 1.43267 13.3078L5.99908 8.74142C6.11635 8.62415 6.27541 8.55826 6.44127 8.55826C6.60712 8.55826 6.76618 8.62415 6.88345 8.74142C7.00073 8.8587 7.06661 9.01776 7.06661 9.18361C7.06661 9.34946 7.00073 9.50852 6.88345 9.6258L6.88111 9.62345ZM7.72564 13.5195C7.84276 13.6367 7.90855 13.7957 7.90855 13.9613C7.90855 14.127 7.84276 14.2859 7.72564 14.4031L3.56705 18.5672C3.50898 18.6253 3.44004 18.6713 3.36417 18.7028C3.2883 18.7342 3.20698 18.7504 3.12486 18.7504C3.04274 18.7504 2.96142 18.7342 2.88555 18.7028C2.80968 18.6713 2.74074 18.6253 2.68267 18.5672C2.6246 18.5091 2.57854 18.4402 2.54711 18.3643C2.51569 18.2885 2.49951 18.2071 2.49951 18.125C2.49951 18.0429 2.51569 17.9616 2.54711 17.8857C2.57854 17.8098 2.6246 17.7409 2.68267 17.6828L6.84439 13.5219C6.96159 13.4048 7.1205 13.339 7.28619 13.339C7.45188 13.339 7.61079 13.4048 7.72798 13.5219L7.72564 13.5195ZM13.4288 13.4414C13.4869 13.4995 13.533 13.5684 13.5644 13.6443C13.5959 13.7201 13.6121 13.8015 13.6121 13.8836C13.6121 13.9657 13.5959 14.0471 13.5644 14.1229C13.533 14.1988 13.4869 14.2677 13.4288 14.3258L9.18814 18.5664C9.07087 18.6837 8.91181 18.7496 8.74595 18.7496C8.5801 18.7496 8.42104 18.6837 8.30377 18.5664C8.18649 18.4491 8.12061 18.2901 8.12061 18.1242C8.1206 17.9584 8.18649 17.7993 8.30377 17.682L12.5452 13.4414C12.6033 13.3829 12.6725 13.3365 12.7487 13.3048C12.8249 13.2731 12.9066 13.2569 12.9891 13.2569C13.0716 13.257 13.1533 13.2734 13.2294 13.3052C13.3055 13.337 13.3746 13.3836 13.4327 13.4422L13.4288 13.4414Z" fill="#41454B"/>
</svg>
