<svg width="55" height="55" viewBox="0 0 55 55" fill="none" xmlns="http://www.w3.org/2000/svg">
<g clip-path="url(#clip0_60_9844)">
<path fill-rule="evenodd" clip-rule="evenodd" d="M21.7016 11.3916C21.5569 10.5333 21.448 9.68486 21.3776 8.83629C21.2715 7.56343 21.3371 6.28085 21.2995 5.00799C21.2831 4.46799 21.2185 3.06015 21.2445 2.85765C21.4807 1.09301 22.905 0.822974 23.3216 0.77476C23.5231 0.745831 25.5924 0.514506 26.0389 2.80951C26.5866 5.61558 26.7621 8.4409 26.5683 11.2084C27.0206 13.5613 27.7939 15.9044 28.8151 18.0258C32.8786 26.4633 40.6218 27.283 49.0111 27.2059C50.3013 27.1866 51.3727 28.1991 51.4402 29.4816C51.5077 30.7737 50.5472 31.8923 49.2628 32.008C44.5735 32.4612 36.2536 36.222 33.3771 40.137C32.7754 40.9566 32.4254 42.9334 31.9625 44.8716C31.3164 47.562 30.5479 50.2234 29.6868 51.342C29.5576 51.5155 27.9868 53.2899 27.5181 53.5502C26.3918 54.1674 25.4902 53.8105 24.9782 53.4826C24.4662 53.1548 23.8866 52.5087 23.6552 51.4384C23.4132 50.3198 23.6176 48.0247 23.58 47.533C23.4431 45.749 23.0863 42.2487 22.3583 39.2401C21.9658 37.6201 21.5473 36.1255 20.8549 35.383C18.2919 32.6348 14.1936 33.0398 10.7425 33.493C10.3461 33.5412 9.94982 33.5991 9.55446 33.6473C8.1495 34.062 6.65771 34.3705 5.0811 34.5537C2.70028 34.8334 2.30881 32.6444 2.2876 32.4998C2.24324 32.1816 2.07833 30.5423 3.87286 29.8866C4.06861 29.8191 5.51313 29.5009 6.06952 29.3755C6.84481 29.2019 7.62876 29.067 8.41561 28.9416C16.5436 26.4152 20.9581 19.318 21.7016 11.3916ZM24.4912 20.157C27.5596 26.502 32.2161 29.5684 37.7357 30.9569H37.7347C34.2884 32.7602 31.1535 35.0166 29.492 37.2827C28.8614 38.1409 28.2828 39.8669 27.7611 41.8052C27.4786 40.0019 27.0968 38.083 26.5924 36.4437C26.0187 34.573 25.2463 33.0206 24.3842 32.0949C22.7198 30.3109 20.6312 29.3177 18.3854 28.8259C21.0738 26.4441 23.1123 23.4741 24.4912 20.157Z" fill="#189DEF"/>
</g>
<defs>
<clipPath id="clip0_60_9844">
<rect width="54" height="54" fill="white" transform="translate(0.311768 0.75)"/>
</clipPath>
</defs>
</svg>
