<svg width="18" height="18" viewBox="0 0 18 18" fill="none" xmlns="http://www.w3.org/2000/svg">
<path d="M17.6859 6.59845C17.6077 6.35824 17.4602 6.14652 17.262 5.98998C17.0637 5.83343 16.8236 5.73907 16.5718 5.71876L11.9624 5.34689L10.1827 1.04298C10.0865 0.808465 9.92269 0.607864 9.71214 0.466684C9.50159 0.325504 9.25382 0.250122 9.00032 0.250122C8.74682 0.250122 8.49905 0.325504 8.2885 0.466684C8.07795 0.607864 7.91414 0.808465 7.8179 1.04298L6.03977 5.34611L1.42806 5.71876C1.17585 5.74009 0.935547 5.83538 0.737254 5.99267C0.538961 6.14997 0.391497 6.36229 0.313337 6.60303C0.235177 6.84376 0.229798 7.10221 0.297872 7.34599C0.365947 7.58977 0.504449 7.80804 0.696024 7.97345L4.21165 11.007L3.14056 15.543C3.08065 15.7894 3.09532 16.0481 3.18269 16.2862C3.27007 16.5242 3.42621 16.731 3.6313 16.8801C3.8364 17.0293 4.08118 17.1142 4.3346 17.124C4.58801 17.1338 4.83862 17.0681 5.05462 16.9352L8.99993 14.507L12.9476 16.9352C13.1637 17.0665 13.4138 17.1309 13.6664 17.1204C13.919 17.1099 14.1629 17.0248 14.3673 16.876C14.5717 16.7271 14.7274 16.5211 14.815 16.2839C14.9026 16.0467 14.918 15.7889 14.8593 15.543L13.7843 11.0063L17.2999 7.97267C17.4931 7.80753 17.6328 7.58879 17.7015 7.34415C17.7702 7.09951 17.7648 6.83999 17.6859 6.59845ZM16.4874 7.02579L12.6827 10.307C12.596 10.3818 12.5314 10.479 12.4962 10.588C12.4609 10.697 12.4562 10.8136 12.4827 10.925L13.6452 15.8313C13.6483 15.838 13.6486 15.8457 13.6461 15.8527C13.6436 15.8596 13.6386 15.8654 13.632 15.8688C13.6179 15.8797 13.614 15.8774 13.6023 15.8688L9.32727 13.2399C9.22882 13.1793 9.11551 13.1473 8.99993 13.1473C8.88435 13.1473 8.77104 13.1793 8.67259 13.2399L4.39759 15.8703C4.38587 15.8774 4.38274 15.8797 4.3679 15.8703C4.36131 15.867 4.35625 15.8612 4.35378 15.8542C4.35131 15.8472 4.35161 15.8396 4.35462 15.8328L5.51712 10.9266C5.54361 10.8151 5.53897 10.6986 5.5037 10.5896C5.46843 10.4806 5.40388 10.3834 5.31712 10.3086L1.51243 7.02736C1.50306 7.01954 1.49446 7.01251 1.50227 6.98829C1.51009 6.96408 1.51634 6.9672 1.52806 6.96564L6.52181 6.56251C6.63634 6.55269 6.74595 6.51146 6.83858 6.44337C6.9312 6.37528 7.00325 6.28297 7.04681 6.17658L8.97024 1.51954C8.97649 1.50626 8.97884 1.50001 8.99759 1.50001C9.01634 1.50001 9.01868 1.50626 9.02493 1.51954L10.9531 6.17658C10.997 6.28301 11.0695 6.37522 11.1626 6.44305C11.2556 6.51088 11.3656 6.55168 11.4804 6.56095L16.4741 6.96408C16.4859 6.96408 16.4929 6.96408 16.4999 6.98673C16.507 7.00939 16.4999 7.01798 16.4874 7.02579Z" fill="#41454B"/>
</svg>
