<svg width="22" height="16" viewBox="0 0 22 16" fill="none" xmlns="http://www.w3.org/2000/svg">
<g clip-path="url(#clip0_167_55401)">
<path fill-rule="evenodd" clip-rule="evenodd" d="M0.666504 0H30.1165V1.23333H0.666504V0ZM0.666504 2.46333H30.1165V3.69667H0.666504V2.46333ZM0.666504 4.92333H30.1165V6.15667H0.666504V4.92333ZM0.666504 7.38333H30.1165V8.61667H0.666504V7.38333ZM0.666504 9.85H30.1165V11.0767H0.666504V9.85ZM0.666504 12.3067H30.1165V13.54H0.666504V12.3067ZM0.666504 14.7667H30.1165V16H0.666504V14.7667Z" fill="#BD3D44"/>
<path fill-rule="evenodd" clip-rule="evenodd" d="M0.666504 1.23334H30.1165V2.46334H0.666504V1.23334ZM0.666504 3.69334H30.1165V4.92334H0.666504V3.69334ZM0.666504 6.15334H30.1165V7.38667H0.666504V6.15334ZM0.666504 8.61667H30.1165V9.85H0.666504V8.61667ZM0.666504 11.0767H30.1165V12.31H0.666504V11.0767ZM0.666504 13.5367H30.1165V14.77H0.666504V13.5367Z" fill="white"/>
<path fill-rule="evenodd" clip-rule="evenodd" d="M0.666504 0H12.4465V8.61667H0.666504V0Z" fill="#192F5D"/>
<path fill-rule="evenodd" clip-rule="evenodd" d="M1.64818 0.366638L1.75798 0.709972H2.10027L1.82256 0.919972L1.92912 1.2633L1.64818 1.04997L1.37048 1.25997L1.47381 0.919972L1.19287 0.709972H1.54485L1.64818 0.366638ZM3.61152 0.366638L3.71808 0.709972H4.06683L3.78589 0.919972L3.88923 1.2633L3.61152 1.04997L3.33058 1.25997L3.43714 0.919972L3.15943 0.709972H3.50173L3.61152 0.366638ZM5.57485 0.366638L5.68141 0.709972H6.02693L5.74922 0.919972L5.85579 1.2633L5.57485 1.04997L5.29391 1.25997L5.40048 0.919972L5.11954 0.709972H5.46829L5.57485 0.366638ZM7.53818 0.366638L7.64475 0.709972H7.9935L7.71256 0.919972L7.81912 1.2633L7.53818 1.04997L7.25725 1.25997L7.36704 0.919972L7.08287 0.709972H7.42839L7.53818 0.366638ZM9.50152 0.366638L9.60808 0.709972H9.9536L9.67589 0.919972L9.78245 1.2633L9.50152 1.04997L9.22058 1.25997L9.32714 0.919972L9.04943 0.709972H9.39495L9.50152 0.366638ZM11.4649 0.366638L11.5714 0.709972H11.9202L11.636 0.919972L11.7458 1.2633L11.4649 1.04997L11.1839 1.25997L11.2937 0.919972L11.0095 0.709972H11.3583L11.4649 0.366638ZM2.62985 1.2333L2.73641 1.5733H3.08839L2.80745 1.77997L2.91079 2.1233L2.63631 1.9133L2.35537 2.1233L2.45548 1.77997L2.18423 1.5733H2.52975L2.62985 1.2333ZM4.59318 1.2333L4.70298 1.5733H5.0485L4.76433 1.77997L4.87412 2.1233L4.59318 1.9133L4.31225 2.1233L4.41881 1.77997L4.13787 1.5733H4.48662L4.59318 1.2333ZM6.55652 1.2333L6.66308 1.5733H7.01183L6.73089 1.77997L6.83745 2.1233L6.55652 1.9133L6.27558 2.1233L6.38214 1.77997L6.10443 1.5733H6.44672L6.55652 1.2333ZM8.51985 1.2333L8.62964 1.5733H8.97516L8.691 1.77997L8.80079 2.1233L8.51985 1.9133L8.24214 2.1233L8.34548 1.77997L8.06454 1.5733H8.41652L8.51985 1.2333ZM10.4832 1.2333L10.5897 1.5733H10.9385L10.6576 1.77997L10.7641 2.1233L10.4832 1.9133L10.2022 2.1233L10.3088 1.77997L10.0311 1.5733H10.3766L10.4832 1.2333ZM1.64818 2.08664L1.75798 2.43331H2.10027L1.82256 2.64331L1.92912 2.9833L1.64818 2.7733L1.37048 2.9833L1.47381 2.64331L1.19287 2.43331H1.54485L1.64818 2.08664ZM3.61152 2.08664L3.71808 2.43331H4.06683L3.78589 2.64331L3.88923 2.9833L3.61152 2.7733L3.33058 2.9833L3.43714 2.63997L3.15943 2.42997H3.50173L3.61152 2.08664ZM5.57485 2.08664L5.68141 2.42997H6.02693L5.74922 2.63997L5.85579 2.97997L5.57485 2.76997L5.29391 2.97997L5.40048 2.63664L5.11954 2.42664H5.46829L5.57485 2.08664ZM7.53818 2.08664L7.64475 2.42997H7.9935L7.71256 2.63997L7.81912 2.97997L7.53818 2.76997L7.25725 2.97997L7.36704 2.63664L7.08287 2.42664H7.42839L7.53818 2.08664ZM9.50152 2.08664L9.60808 2.42997H9.9536L9.67589 2.63997L9.78245 2.97997L9.50152 2.76997L9.22058 2.97997L9.32714 2.63664L9.04943 2.42664H9.39495L9.50152 2.08664ZM11.4649 2.08664L11.5714 2.42997H11.9202L11.636 2.63997L11.7458 2.97997L11.4649 2.76997L11.1839 2.97997L11.2937 2.63664L11.0095 2.42664H11.3583L11.4649 2.08664ZM2.62985 2.95331L2.73641 3.29331H3.08839L2.80745 3.5033L2.91402 3.84664L2.63308 3.63331L2.35214 3.84331L2.4587 3.5033L2.181 3.29331H2.52652L2.62985 2.95331ZM4.59318 2.95331L4.70298 3.29331H5.0485L4.76433 3.5033L4.87412 3.84664L4.59318 3.63331L4.31225 3.84331L4.41881 3.5033L4.13787 3.29331H4.48662L4.59318 2.95331ZM6.55652 2.95331L6.66308 3.29331H7.01183L6.73089 3.5033L6.83745 3.84664L6.55652 3.63331L6.27558 3.84331L6.38214 3.5033L6.10443 3.29331H6.44672L6.55652 2.95331ZM8.51985 2.95331L8.62964 3.29331H8.97516L8.69423 3.5033L8.80079 3.84664L8.51985 3.63331L8.24214 3.84331L8.34548 3.5033L8.06454 3.29331H8.41652L8.51985 2.95331ZM10.4832 2.95331L10.5897 3.29331H10.9385L10.6576 3.5033L10.7641 3.84664L10.4832 3.63331L10.2022 3.84331L10.3088 3.5033L10.0311 3.29331H10.3766L10.4832 2.95331ZM1.64818 3.81664L1.75798 4.15664H2.10027L1.82256 4.36664L1.92912 4.70997L1.64818 4.49664L1.37048 4.70664L1.47381 4.36664L1.19287 4.15664H1.54485L1.64818 3.81664ZM3.61152 3.81664L3.71808 4.15664H4.06683L3.78589 4.36664L3.88923 4.70664L3.61152 4.49664L3.33058 4.70664L3.43714 4.36664L3.15943 4.15664H3.50173L3.61152 3.81664ZM5.57485 3.81664L5.68141 4.15664H6.02693L5.74922 4.36664L5.85579 4.70997L5.57485 4.49664L5.29391 4.70664L5.40048 4.36664L5.11954 4.15664H5.46829L5.57485 3.81664ZM7.53818 3.81664L7.64475 4.15664H7.9935L7.71256 4.36664L7.81912 4.70997L7.53818 4.49664L7.25725 4.70664L7.36704 4.36664L7.08287 4.15664H7.42839L7.53818 3.81664ZM9.50152 3.81664L9.60808 4.15664H9.9536L9.67589 4.36664L9.78245 4.70997L9.50152 4.49664L9.22058 4.70664L9.32714 4.36664L9.04943 4.15664H9.39495L9.50152 3.81664ZM11.4649 3.81664L11.5714 4.15664H11.9202L11.636 4.36664L11.7458 4.70997L11.4649 4.49664L11.1839 4.70664L11.2905 4.36664L11.0063 4.15664H11.3551L11.4649 3.81664ZM2.62985 4.67664L2.73641 5.01997H3.08839L2.80745 5.22664L2.91402 5.56997L2.63308 5.35664L2.35214 5.56997L2.4587 5.22664L2.181 5.01664H2.52652L2.62985 4.67664ZM4.59318 4.67664L4.70298 5.01997H5.0485L4.76433 5.22664L4.87412 5.56997L4.59318 5.35664L4.31225 5.56997L4.41881 5.22664L4.13787 5.01664H4.48662L4.59318 4.67664ZM6.55652 4.67664L6.66308 5.01997H7.01183L6.73089 5.22664L6.83745 5.56997L6.55652 5.35664L6.27558 5.56997L6.38214 5.22664L6.10443 5.01664H6.44672L6.55652 4.67664ZM8.51985 4.67664L8.62964 5.01997H8.97516L8.69423 5.22664L8.80079 5.56997L8.51985 5.35664L8.24214 5.56997L8.34548 5.22664L8.06454 5.01664H8.41652L8.51985 4.67664ZM10.4832 4.67664L10.5897 5.01997H10.9385L10.6576 5.22664L10.7641 5.56997L10.4832 5.35664L10.2022 5.56997L10.3088 5.22664L10.0311 5.01664H10.3766L10.4832 4.67664ZM1.64818 5.53664L1.75798 5.87997H2.10027L1.82256 6.08997L1.92912 6.42664L1.64818 6.21997L1.37048 6.42664L1.47381 6.08664L1.19287 5.87664H1.54485L1.64818 5.53664ZM3.61152 5.53664L3.71808 5.87997H4.06683L3.78589 6.08997L3.89245 6.42664L3.61152 6.21997L3.33058 6.42664L3.44037 6.08664L3.15943 5.87664H3.50173L3.61152 5.53664ZM5.57485 5.53664L5.68141 5.87997H6.02693L5.74922 6.08997L5.85579 6.42664L5.57485 6.21997L5.29391 6.42664L5.40048 6.08664L5.11954 5.87664H5.46829L5.57485 5.53664ZM7.53818 5.53664L7.64475 5.87997H7.9935L7.71256 6.08997L7.81912 6.42664L7.53818 6.21997L7.25725 6.42664L7.36704 6.08664L7.08287 5.87664H7.42839L7.53818 5.53664ZM9.50152 5.53664L9.60808 5.87997H9.9536L9.67589 6.08997L9.78245 6.42664L9.50152 6.21997L9.22058 6.42664L9.32714 6.08664L9.04943 5.87664H9.39495L9.50152 5.53664ZM11.4649 5.53664L11.5714 5.87997H11.9202L11.636 6.08997L11.7458 6.42664L11.4649 6.21997L11.1839 6.42664L11.2937 6.08664L11.0095 5.87664H11.3583L11.4649 5.53664ZM2.62985 6.39997L2.73641 6.73997H3.08839L2.80745 6.94997L2.91402 7.29331L2.63308 7.07997L2.35214 7.28997L2.4587 6.94997L2.181 6.73997H2.52652L2.62985 6.39997ZM4.59318 6.39997L4.70298 6.73997H5.0485L4.76433 6.94997L4.87412 7.29331L4.59318 7.07997L4.31225 7.28997L4.41881 6.94997L4.13787 6.73997H4.48662L4.59318 6.39997ZM6.55652 6.39997L6.66308 6.73997H7.01183L6.73089 6.94997L6.83745 7.29331L6.55652 7.07997L6.27558 7.28997L6.38214 6.94997L6.10443 6.73997H6.44672L6.55652 6.39997ZM8.51985 6.39997L8.62964 6.73997H8.97516L8.69423 6.94997L8.80079 7.29331L8.51985 7.07997L8.24214 7.28997L8.34548 6.94997L8.06454 6.73997H8.41652L8.51985 6.39997ZM10.4832 6.39997L10.5897 6.73997H10.9385L10.6576 6.94997L10.7641 7.29331L10.4832 7.07997L10.2022 7.28997L10.3088 6.94997L10.0311 6.73997H10.3766L10.4832 6.39997ZM1.64818 7.26331L1.75798 7.60331H2.10027L1.82256 7.8133L1.92912 8.15331L1.64818 7.94331L1.37048 8.15331L1.47381 7.80997L1.19287 7.59997H1.54485L1.64818 7.26331ZM3.61152 7.26331L3.71808 7.60331H4.06683L3.78589 7.8133L3.89245 8.15331L3.61152 7.94331L3.33058 8.15331L3.44037 7.80997L3.15943 7.59997H3.50173L3.61152 7.26331ZM5.57485 7.26331L5.68141 7.60331H6.02693L5.75568 7.8133L5.86225 8.15331L5.58131 7.94331L5.30037 8.15331L5.40693 7.80997L5.126 7.59997H5.47475L5.57485 7.26331ZM7.53818 7.26331L7.64475 7.60331H7.9935L7.71256 7.8133L7.81912 8.15331L7.53818 7.94331L7.25725 8.15331L7.36704 7.80997L7.08287 7.59997H7.42839L7.53818 7.26331ZM9.50152 7.26331L9.60808 7.60331H9.9536L9.67589 7.8133L9.78245 8.15331L9.50152 7.94331L9.22058 8.15331L9.32714 7.80997L9.04943 7.59997H9.39495L9.50152 7.26331ZM11.4649 7.26331L11.5714 7.60331H11.9202L11.636 7.8133L11.7458 8.15331L11.4649 7.94331L11.1839 8.15331L11.2937 7.80997L11.0095 7.59997H11.3583L11.4649 7.26331Z" fill="white"/>
</g>
<defs>
<clipPath id="clip0_167_55401">
<rect width="20.6667" height="16" fill="white" transform="translate(0.666504)"/>
</clipPath>
</defs>
</svg>
