<svg width="32" height="32" viewBox="0 0 32 32" fill="none" xmlns="http://www.w3.org/2000/svg">
<path d="M31.6812 9.74701C31.6812 9.74701 31.3688 7.59039 30.4062 6.64343C29.1875 5.39711 27.825 5.391 27.2 5.31769C22.725 5 16.0063 5 16.0063 5H15.9937C15.9937 5 9.275 5 4.8 5.31769C4.175 5.391 2.8125 5.39711 1.59375 6.64343C0.63125 7.59039 0.325 9.74701 0.325 9.74701C0.325 9.74701 0 12.2824 0 14.8117V17.1822C0 19.7115 0.31875 22.2469 0.31875 22.2469C0.31875 22.2469 0.63125 24.4035 1.5875 25.3505C2.80625 26.5968 4.40625 26.554 5.11875 26.6884C7.68125 26.9267 16 27 16 27C16 27 22.725 26.9878 27.2 26.6762C27.825 26.6029 29.1875 26.5968 30.4062 25.3505C31.3688 24.4035 31.6812 22.2469 31.6812 22.2469C31.6812 22.2469 32 19.7176 32 17.1822V14.8117C32 12.2824 31.6812 9.74701 31.6812 9.74701ZM12.6938 20.0597V11.2683L21.3375 15.6793L12.6938 20.0597Z" fill="#27292C"/>
</svg>
