<svg width="20" height="20" viewBox="0 0 20 20" fill="none" xmlns="http://www.w3.org/2000/svg">
    <path
        d="M19.0361 11.7412C19.003 11.7412 18.9696 11.737 18.937 11.7281L17.6206 11.3724C17.4549 11.3276 17.3398 11.1772 17.3398 11.0056V9.61947C17.3398 9.4478 17.4549 9.29741 17.6206 9.25258L18.937 8.89687C19.0512 8.86671 19.1732 8.89022 19.2672 8.96193C19.361 9.03389 19.4161 9.14546 19.4161 9.26371V11.3613C19.4161 11.4795 19.361 11.5911 19.2672 11.6631C19.2002 11.7143 19.1188 11.7412 19.0361 11.7412ZM18.0998 10.7146L18.6562 10.865V9.75994L18.0998 9.91038V10.7146Z"
        fill="#189DEF" />
    <path
        d="M6.26095 19.5984H4.68364C4.26903 19.5984 3.89127 19.406 3.64734 19.0705C3.40341 18.7353 3.33688 18.3165 3.46476 17.9219L4.83007 13.7087C4.92804 13.406 4.87705 13.0846 4.69007 12.8273C4.50278 12.5698 4.21286 12.4221 3.89446 12.4221H2.32531C2.19419 12.4221 2.07249 12.3546 2.00298 12.2435C1.93374 12.1325 1.92628 11.9934 1.9837 11.8757L3.137 9.50997C3.20081 9.37933 3.33343 9.29645 3.47865 9.29645H4.56814L5.63162 8.3052C5.70186 8.2394 5.7944 8.20303 5.89065 8.20303H17.722C17.9318 8.20303 18.102 8.37323 18.102 8.58299V12.0422C18.102 12.2519 17.9318 12.4221 17.722 12.4221H9.62952L7.47331 18.7316C7.29621 19.2501 6.80887 19.5984 6.26095 19.5984ZM2.93337 11.6621H3.89442C4.45873 11.6621 4.97278 11.9238 5.30451 12.3802C5.63624 12.8367 5.72679 13.4061 5.55288 13.943L4.18758 18.1561C4.13563 18.3169 4.1626 18.4871 4.26178 18.6237C4.36123 18.7602 4.51482 18.8384 4.68355 18.8384H6.26086C6.48374 18.8384 6.68215 18.6966 6.75438 18.4856L8.99838 11.9191C9.05084 11.7655 9.19528 11.6621 9.3578 11.6621H17.3419V8.96287H6.04023L4.97675 9.95413C4.90647 10.02 4.81397 10.0563 4.71772 10.0563H3.71607L2.93337 11.6621Z"
        fill="#189DEF" />
    <path
        d="M9.3539 12.422H7.59871C7.38895 12.422 7.21875 12.2518 7.21875 12.0421C7.21875 11.8323 7.38895 11.6621 7.59871 11.6621H9.3539C9.56371 11.6621 9.73391 11.8323 9.73391 12.0421C9.73391 12.2518 9.56371 12.422 9.3539 12.422Z"
        fill="#189DEF" />
    <path
        d="M14.027 8.96289H10.9386C10.7288 8.96289 10.5586 8.79269 10.5586 8.58293V7.20749C10.5586 6.99768 10.7288 6.82748 10.9386 6.82748H14.027C14.2367 6.82748 14.4069 6.99768 14.4069 7.20749V8.58293C14.4069 8.79269 14.2367 8.96289 14.027 8.96289ZM11.3186 8.20293H13.647V7.58745H11.3186V8.20293Z"
        fill="#189DEF" />
    <path
        d="M14.661 7.58747H10.314C9.07039 7.58747 8.05859 6.57568 8.05859 5.33208V0.97838C8.05859 0.768619 8.22879 0.598419 8.43856 0.598419H16.5364C16.7462 0.598419 16.9164 0.768619 16.9164 0.97838V5.33208C16.9164 6.57568 15.9046 7.58747 14.661 7.58747ZM8.81856 1.35834V5.33204C8.81856 6.15654 9.48948 6.82746 10.314 6.82746H14.661C15.4855 6.82746 16.1564 6.15654 16.1564 5.33204V1.35834H8.81856Z"
        fill="#189DEF" />
    <path
        d="M14.4821 5.71205H8.43856C8.22875 5.71205 8.05859 5.54185 8.05859 5.33209C8.05859 5.12229 8.22879 4.95209 8.43856 4.95209H14.4821C14.6919 4.95209 14.8621 5.12229 14.8621 5.33209C14.8621 5.54185 14.6919 5.71205 14.4821 5.71205Z"
        fill="#189DEF" />
    <path
        d="M9.61368 15.0429C8.9507 15.0429 8.43885 14.8937 8.40024 14.8823C8.19911 14.822 8.08482 14.6102 8.14492 14.4093C8.20528 14.2084 8.41655 14.0934 8.61716 14.154C8.63226 14.158 10.0458 14.5641 11.0143 13.9094C11.5516 13.5464 11.8678 12.9059 11.9544 12.0057C11.9744 11.7969 12.1595 11.6421 12.369 11.6638C12.5777 11.6839 12.7309 11.8696 12.7108 12.0785C12.6013 13.2174 12.1723 14.0464 11.4353 14.5421C10.8515 14.9347 10.178 15.0429 9.61368 15.0429Z"
        fill="#189DEF" />
    <path
        d="M10.2456 13.6345C10.2092 13.6345 10.1726 13.6293 10.136 13.6184C9.35032 13.3827 9.22244 12.4931 9.27063 12.0047C9.29143 11.7957 9.4807 11.6435 9.68627 11.6638C9.89457 11.6846 10.0469 11.8696 10.0271 12.0779C10.0264 12.0863 9.97546 12.7768 10.3547 12.8906C10.5556 12.951 10.6696 13.1627 10.6092 13.3639C10.56 13.5284 10.4089 13.6345 10.2456 13.6345Z"
        fill="#189DEF" />
    <path
        d="M0.379961 16.1229C0.170199 16.1229 0 15.9527 0 15.7429V12.1811C0 11.1988 0.799053 10.3994 1.78138 10.3994H2.93692C3.14673 10.3994 3.31688 10.5696 3.31688 10.7794C3.31688 10.9892 3.14668 11.1594 2.93692 11.1594H1.78138C1.2181 11.1594 0.759966 11.6178 0.759966 12.1811V15.7429C0.759966 15.9527 0.589766 16.1229 0.379961 16.1229Z"
        fill="#189DEF" />
</svg>
    