<svg width="20" height="20" viewBox="0 0 20 20" fill="none" xmlns="http://www.w3.org/2000/svg">
    <path
        d="M19.9747 8.89115C19.9205 8.7616 19.7891 8.67637 19.6427 8.67637H14.2369C15.2994 6.88183 15.0709 4.52001 13.5415 2.97637C12.6626 2.08796 11.4909 1.59842 10.2421 1.59842C8.99325 1.59842 7.82156 2.08796 6.9419 2.97569L1.36405 8.60887C1.35049 8.62251 1.34477 8.63956 1.33406 8.65524C1.31336 8.67433 1.29122 8.69069 1.27123 8.71046C-0.458816 10.5596 -0.418118 13.4177 1.36334 15.2164C2.238 16.1075 3.40969 16.5984 4.66349 16.5984H11.6101C11.7008 16.5984 11.7886 16.565 11.855 16.5057L19.8876 9.26478C19.994 9.16933 20.029 9.02069 19.9747 8.89115ZM7.46099 3.44478C8.20427 2.69342 9.19246 2.28024 10.2421 2.28024C11.2917 2.28024 12.2798 2.69342 13.0231 3.44478C14.5718 5.00819 14.5718 7.55274 13.0303 9.10933L9.18175 12.7789C9.47878 11.4302 9.01824 9.99296 7.80585 8.76842C6.93762 7.8916 5.78163 7.40274 4.55068 7.39115C4.16868 7.38637 3.79026 7.43546 3.4204 7.52546L7.46099 3.44478ZM11.468 15.9166H4.66349C3.60961 15.9166 2.62214 15.5021 1.88242 14.7486C0.353014 13.2043 0.318027 10.7518 1.79174 9.17615C2.53503 8.4541 3.53322 8.06001 4.54354 8.07228C5.57885 8.08183 6.55276 8.49569 7.28677 9.23683C8.85973 10.8248 8.96755 12.8211 7.57166 14.3136C6.99474 14.8809 6.21647 15.1925 5.38036 15.1925C4.55425 15.1925 3.76741 14.8666 3.16336 14.2761C2.49719 13.6236 2.12876 12.7318 2.15232 11.8284C2.1716 11.0921 2.55645 10.3918 3.18192 9.95478C3.76598 9.54706 4.4907 9.4216 5.17115 9.61046C6.22646 9.90365 7.00259 10.9209 7.01687 12.033C7.02687 12.5157 6.84408 12.9773 6.51492 13.2977C6.21504 13.5896 5.82305 13.7443 5.38036 13.7443C4.42858 13.7443 3.62461 12.9534 3.58819 11.9825C3.57677 11.6696 3.67316 11.3955 3.8588 11.2114C4.01946 11.0532 4.24294 10.9693 4.50641 10.9693C5.06834 10.9693 5.54958 11.4371 5.57957 12.0118C5.58956 12.2 5.75593 12.3459 5.95371 12.3357C6.15078 12.3261 6.30215 12.1659 6.29287 11.9784C6.2436 11.0464 5.44248 10.2882 4.50641 10.2882C4.04445 10.2882 3.64317 10.4443 3.34472 10.7389C3.0227 11.0573 2.85562 11.508 2.87418 12.0077C2.92416 13.3421 4.04802 14.4275 5.37965 14.4275C6.0094 14.4275 6.59346 14.1964 7.02401 13.7764C7.48669 13.3257 7.74373 12.6855 7.73017 12.0227C7.71232 10.5984 6.74126 9.33774 5.36965 8.9566C4.47428 8.70706 3.52393 8.87137 2.75994 9.40524C1.95668 9.96569 1.46259 10.8657 1.4376 11.8114C1.40903 12.8975 1.85172 13.9693 2.65141 14.7521C3.39041 15.4761 4.35933 15.8743 5.37965 15.8743C6.40354 15.8743 7.35674 15.4925 8.07789 14.7909C8.07789 14.7909 8.07789 14.7943 8.07932 14.793L13.5408 9.58456C13.6136 9.51092 13.6786 9.43251 13.7457 9.35547C13.7493 9.35547 13.7528 9.35751 13.7564 9.35751H18.7431L11.468 15.9166Z"
        fill="#189DEF" />
</svg>
    