<svg width="18" height="14" viewBox="0 0 18 14" fill="none" xmlns="http://www.w3.org/2000/svg">
    <path
        d="M13.375 11.375C13.375 12.038 13.1116 12.6739 12.6428 13.1428C12.1739 13.6116 11.538 13.875 10.875 13.875C9.80469 13.875 8.76953 13.1773 8.41406 12.2172C8.35997 12.0626 8.36872 11.893 8.43842 11.7448C8.50812 11.5966 8.6332 11.4816 8.78677 11.4247C8.94033 11.3678 9.1101 11.3734 9.25955 11.4404C9.40901 11.5074 9.52621 11.6303 9.58594 11.7828C9.76094 12.2555 10.3281 12.625 10.875 12.625C11.2065 12.625 11.5245 12.4933 11.7589 12.2589C11.9933 12.0245 12.125 11.7065 12.125 11.375C12.125 11.0435 11.9933 10.7255 11.7589 10.4911C11.5245 10.2567 11.2065 10.125 10.875 10.125H2.125C1.95924 10.125 1.80027 10.0592 1.68306 9.94194C1.56585 9.82473 1.5 9.66576 1.5 9.5C1.5 9.33424 1.56585 9.17527 1.68306 9.05806C1.80027 8.94085 1.95924 8.875 2.125 8.875H10.875C11.538 8.875 12.1739 9.13839 12.6428 9.60723C13.1116 10.0761 13.375 10.712 13.375 11.375ZM8.375 5.125C9.03804 5.125 9.67393 4.86161 10.1428 4.39277C10.6116 3.92393 10.875 3.28804 10.875 2.625C10.875 1.96196 10.6116 1.32607 10.1428 0.857233C9.67393 0.388392 9.03804 0.125 8.375 0.125C7.30469 0.125 6.26953 0.822656 5.91406 1.78281C5.85997 1.93739 5.86872 2.10703 5.93842 2.25523C6.00812 2.40343 6.1332 2.51835 6.28677 2.57527C6.44033 2.63219 6.6101 2.62656 6.75955 2.5596C6.90901 2.49263 7.02621 2.36968 7.08594 2.21719C7.26094 1.74453 7.82812 1.375 8.375 1.375C8.70652 1.375 9.02446 1.5067 9.25888 1.74112C9.4933 1.97554 9.625 2.29348 9.625 2.625C9.625 2.95652 9.4933 3.27446 9.25888 3.50888C9.02446 3.7433 8.70652 3.875 8.375 3.875H0.875C0.70924 3.875 0.550268 3.94085 0.433058 4.05806C0.315848 4.17527 0.25 4.33424 0.25 4.5C0.25 4.66576 0.315848 4.82473 0.433058 4.94194C0.550268 5.05915 0.70924 5.125 0.875 5.125H8.375ZM15.25 2.625C14.1797 2.625 13.1445 3.32266 12.7891 4.28281C12.735 4.43739 12.7437 4.60703 12.8134 4.75523C12.8831 4.90343 13.0082 5.01835 13.1618 5.07527C13.3153 5.13219 13.4851 5.12656 13.6346 5.0596C13.784 4.99263 13.9012 4.86968 13.9609 4.71719C14.1359 4.24453 14.7031 3.875 15.25 3.875C15.5815 3.875 15.8995 4.0067 16.1339 4.24112C16.3683 4.47554 16.5 4.79348 16.5 5.125C16.5 5.45652 16.3683 5.77446 16.1339 6.00888C15.8995 6.2433 15.5815 6.375 15.25 6.375H1.5C1.33424 6.375 1.17527 6.44085 1.05806 6.55806C0.940848 6.67527 0.875 6.83424 0.875 7C0.875 7.16576 0.940848 7.32473 1.05806 7.44194C1.17527 7.55915 1.33424 7.625 1.5 7.625H15.25C15.913 7.625 16.5489 7.36161 17.0178 6.89277C17.4866 6.42393 17.75 5.78804 17.75 5.125C17.75 4.46196 17.4866 3.82607 17.0178 3.35723C16.5489 2.88839 15.913 2.625 15.25 2.625Z"
        fill="#189DEF" />
</svg>
    