<svg width="20" height="20" viewBox="0 0 20 20" fill="none" xmlns="http://www.w3.org/2000/svg">
<g clip-path="url(#clip0_1714_9057)">
<path d="M17.4617 15.8716C17.2828 14.9035 16.4358 14.1667 15.4167 14.1667H12.0834C11.4097 14.1667 10.8159 14.4934 10.4348 14.991L9.9975 13.8667L10.3064 13.7431C11.1329 13.4127 11.6667 12.6237 11.6667 11.7338C11.6667 11.3416 11.5601 10.9566 11.3583 10.6205L7.11387 3.54738C6.79813 3.01992 6.24637 2.71375 5.65613 2.70301L5.22461 1.59383C4.84781 0.625391 3.93352 0 2.89512 0H1.25C0.560703 0 0 0.560703 0 1.25C0 1.9393 0.560703 2.5 1.25 2.5H2.89512L3.19438 3.26996C3.00023 3.34086 2.83176 3.46996 2.73559 3.6548C2.62531 3.8668 2.61105 4.11582 2.69652 4.33922L6.54254 14.3388C6.62352 14.5484 6.78098 14.7136 6.98688 14.8035C7.0943 14.8503 7.20742 14.8735 7.32055 14.8735C7.42512 14.8735 7.53012 14.8536 7.6302 14.8137L7.6766 14.7952L8.33332 16.4844V16.8984C7.83758 17.1875 7.5 17.7191 7.5 18.3333C7.5 19.2525 8.24746 20 9.16668 20C9.78094 20 10.3125 19.6624 10.6016 19.1667H16.7434C16.916 19.6506 17.3742 20 17.9167 20C18.4592 20 18.9173 19.6506 19.0899 19.1667H19.5834C19.8137 19.1667 20 18.9803 20 18.75C20 17.2715 18.8898 16.0594 17.4617 15.8716ZM12.0833 15H15.4166C15.9591 15 16.4173 15.3494 16.5899 15.8333H10.9101C11.0827 15.3494 11.5408 15 12.0833 15ZM2.89512 1.66668H1.25C1.02012 1.66668 0.83332 1.47992 0.83332 1.25C0.83332 1.02008 1.02012 0.83332 1.25 0.83332H2.89512C3.58727 0.83332 4.1968 1.25039 4.44824 1.89574L4.8177 2.84547L4.00234 3.04922L3.67148 2.19766C3.54777 1.87988 3.23566 1.66668 2.89512 1.66668ZM3.47371 4.04012L3.38535 3.68316L3.38547 3.68313L3.47453 4.03973C3.47453 4.03973 3.47414 4.04012 3.47371 4.04012ZM7.32055 14.0393L3.47492 4.03969L5.3959 3.55953C5.78816 3.46023 6.19141 3.6291 6.39934 3.97578L10.6437 11.0493C10.7678 11.2561 10.8333 11.4925 10.8333 11.7338C10.8333 12.281 10.505 12.7661 9.99715 12.9691L7.32055 14.0393ZM9.86844 15.8333H8.97402L8.45004 14.4857L9.22402 14.1761L9.86844 15.8333ZM9.16668 19.1667C8.7073 19.1667 8.33336 18.7927 8.33336 18.3334C8.33336 17.874 8.7073 17.5 9.16668 17.5C9.62605 17.5 10 17.874 10 18.3334C10 18.7927 9.62605 19.1667 9.16668 19.1667ZM10.8333 18.3333C10.8333 17.4141 10.0859 16.6666 9.16664 16.6666H17.0833C18.0896 16.6666 18.9311 17.3836 19.1247 18.3333H10.8333Z" fill="#189DEF"/>
<path d="M7.0129 8.59743C6.93028 8.38259 6.6886 8.27599 6.47415 8.35817C6.25969 8.44079 6.15227 8.68208 6.23489 8.89692L7.64317 12.5586C7.70704 12.7243 7.86493 12.8256 8.03215 12.8256C8.0818 12.8256 8.13266 12.8166 8.18188 12.7979C8.39633 12.7153 8.50376 12.474 8.42114 12.2592L7.0129 8.59743Z" fill="#189DEF"/>
</g>
<defs>
<clipPath id="clip0_1714_9057">
<rect width="20" height="20" fill="white"/>
</clipPath>
</defs>
</svg>
