<svg width="20" height="20" viewBox="0 0 20 20" fill="none" xmlns="http://www.w3.org/2000/svg">
    <path
        d="M11.6609 12.4422C12.1164 13.5797 12.7734 13.75 13.125 13.75C13.4766 13.75 14.1336 13.5797 14.5891 12.4422C14.8539 11.7797 15 10.9125 15 10C15 9.0875 14.8539 8.22031 14.5891 7.55781C14.1336 6.42031 13.4766 6.25 13.125 6.25C12.7734 6.25 12.1164 6.42031 11.6609 7.55781C11.3961 8.22031 11.25 9.0875 11.25 10C11.25 10.9125 11.3961 11.7797 11.6609 12.4422ZM13.125 7.51562C13.3297 7.67656 13.75 8.53125 13.75 10C13.75 11.4688 13.3297 12.3234 13.125 12.4844C12.9203 12.3234 12.5 11.4688 12.5 10C12.5 8.53125 12.9203 7.67656 13.125 7.51562ZM18.125 16.875H15.3445C16.65 15.4477 17.5 12.9273 17.5 10C17.5 5.44375 15.4414 1.875 12.8125 1.875H7.1875C4.55859 1.875 2.5 5.44375 2.5 10C2.5 14.5562 4.55859 18.125 7.1875 18.125H18.125C18.2908 18.125 18.4497 18.0592 18.5669 17.9419C18.6842 17.8247 18.75 17.6658 18.75 17.5C18.75 17.3342 18.6842 17.1753 18.5669 17.0581C18.4497 16.9408 18.2908 16.875 18.125 16.875ZM15.1359 4.99453C15.8539 6.32109 16.25 8.09922 16.25 10C16.25 11.9008 15.8539 13.6789 15.1359 15.0055C14.4828 16.2109 13.6578 16.875 12.8125 16.875C11.9672 16.875 11.1422 16.2109 10.4891 15.0055C9.77109 13.6789 9.375 11.9008 9.375 10C9.375 8.09922 9.77109 6.32109 10.4891 4.99453C11.1422 3.78906 11.9672 3.125 12.8125 3.125C13.6578 3.125 14.4828 3.78906 15.1359 4.99453ZM3.75 10C3.75 9.80469 3.75547 9.60938 3.76328 9.41875L6.25 7.64297L8.15859 9.00625C8.13672 9.33125 8.125 9.66328 8.125 10C8.12302 10.878 8.20332 11.7542 8.36484 12.6172L6.61328 11.3672C6.50728 11.2915 6.38027 11.2508 6.25 11.2508C6.11973 11.2508 5.99272 11.2915 5.88672 11.3672L4.03203 12.6953C3.84123 11.8097 3.74667 10.906 3.75 10ZM4.86406 4.99453C5.51719 3.78906 6.34219 3.125 7.1875 3.125H10.2805C9.35078 4.14062 8.65234 5.7125 8.32734 7.59063L6.61328 6.36641C6.50728 6.29069 6.38027 6.24998 6.25 6.24998C6.11973 6.24998 5.99272 6.29069 5.88672 6.36641L3.94453 7.75391C4.12891 6.71875 4.43984 5.78125 4.86406 4.99453ZM4.86406 15.0055C4.68427 14.6703 4.52917 14.3225 4.4 13.9648L6.25 12.643L8.90156 14.5367C9.26094 15.4742 9.72969 16.2727 10.2805 16.875H7.1875C6.34219 16.875 5.51719 16.2109 4.86406 15.0055Z"
        fill="#189DEF" />
</svg>
    