<svg width="20" height="20" viewBox="0 0 20 20" fill="none" xmlns="http://www.w3.org/2000/svg">
    <g clip-path="url(#clip0_1714_9064)">
        <path
            d="M19.9186 5.11506L15.5853 0.115119C15.4903 0.00549586 15.3353 -0.030087 15.202 0.0271206C14.2116 0.451449 13.3183 0.879443 12.4707 1.3351C10.175 2.53663 8.1233 4.15549 6.42074 6.10871C6.39307 6.13904 6.36607 6.17038 6.33907 6.20138L6.28674 6.26138C2.20379 10.8743 0.0974809 19.2332 0.00981531 19.5865C-0.0343508 19.7652 0.0746895 19.946 0.253396 19.9901C0.279604 19.9966 0.306478 19.9999 0.333478 19.9999H4.0001C4.08339 19.9999 4.16364 19.9687 4.2251 19.9125L19.8916 5.57938C20.0249 5.45751 20.0369 5.2516 19.9186 5.11506ZM12.569 2.04043L13.3243 2.79575C11.3479 4.06599 9.53299 5.57143 7.91938 7.27903L7.00573 6.45671C8.58313 4.6659 10.467 3.17041 12.569 2.04043ZM13.775 3.30475C13.9336 3.61045 13.8766 3.98361 13.634 4.22807L9.85369 8.00835C9.55528 8.30689 9.07537 8.31948 8.76171 8.03702L8.41638 7.72636C10.0146 6.03842 11.8143 4.55344 13.775 3.30475ZM3.87043 19.3332H0.766806C1.13347 17.9999 2.40712 13.6943 4.50876 9.98033L9.08837 14.5596L3.87043 19.3332ZM9.5807 14.1093L4.85609 9.38434C5.03009 9.09501 5.20954 8.81134 5.39441 8.53335L10.3067 13.4446L9.5807 14.1093ZM10.8 12.9943L5.78008 7.97535C6.03341 7.62136 6.29474 7.28003 6.56607 6.95803L7.11439 7.45169L8.31438 8.53268C8.89162 9.05226 9.77461 9.02897 10.3237 8.47968L14.1053 4.70006C14.676 4.13069 14.677 3.2065 14.1077 2.6358C14.1069 2.635 14.1061 2.63421 14.1053 2.63342L14.0906 2.61875L13.184 1.7121C13.8306 1.37744 14.509 1.05544 15.2416 0.736445L19.2019 5.30639L10.8 12.9943Z"
            fill="#189DEF" />
        <path d="M11.099 8.76426L9.76562 10.0976L10.237 10.569L11.5704 9.23565L11.099 8.76426Z"
            fill="#189DEF" />
        <path d="M12.099 9.76423L10.7656 11.0976L11.237 11.569L12.5704 10.2356L12.099 9.76423Z"
            fill="#189DEF" />
    </g>
    <defs>
        <clipPath id="clip0_1714_9064">
            <rect width="20" height="20" fill="white" />
        </clipPath>
    </defs>
</svg>
    