<svg width="20" height="20" viewBox="0 0 20 20" fill="none" xmlns="http://www.w3.org/2000/svg">
    <g clip-path="url(#clip0_1714_9026)">
        <path
            d="M20 12.3389C20 11.9756 19.8966 11.6195 19.7013 11.3105C19.5061 11.0015 19.2267 10.7518 18.8945 10.5893C18.5623 10.4268 18.1904 10.3581 17.8205 10.3907C17.4506 10.4233 17.0973 10.556 16.8002 10.774V8.81791C16.8002 8.50663 16.6738 8.20811 16.4487 7.98801C16.2237 7.7679 15.9185 7.64425 15.6003 7.64425H14.0004C13.8943 7.64425 13.7925 7.60303 13.7175 7.52966C13.6425 7.4563 13.6004 7.35679 13.6004 7.25303V4.12328C13.6004 3.8664 13.5486 3.61204 13.4481 3.37471C13.3476 3.13739 13.2003 2.92175 13.0146 2.74011C12.8289 2.55847 12.6085 2.41438 12.3658 2.31608C12.1232 2.21778 11.8631 2.16718 11.6005 2.16718H6.76078C6.67272 1.74086 6.44192 1.3554 6.10485 1.07173C5.76778 0.788062 5.34366 0.622361 4.89954 0.600821C4.45542 0.57928 4.01662 0.703129 3.65251 0.952791C3.2884 1.20245 3.01974 1.56369 2.889 1.9794C2.60247 1.84029 2.286 1.77045 1.96615 1.77572C1.64631 1.781 1.33243 1.86125 1.05086 2.00972C0.769279 2.1582 0.528226 2.37057 0.347927 2.62902C0.167628 2.88748 0.0533454 3.18446 0.0146705 3.49505C-0.0240044 3.80564 0.0140573 4.12077 0.125661 4.41399C0.237264 4.70722 0.419153 4.96998 0.656061 5.18022C0.892969 5.39046 1.17798 5.54205 1.48718 5.62226C1.79638 5.70248 2.12073 5.70897 2.43303 5.64121C2.52192 6.12845 2.79634 6.56462 3.20098 6.86181V16.6423C3.20098 17.1611 3.41169 17.6586 3.78674 18.0255C4.16179 18.3923 4.67046 18.5984 5.20087 18.5984H14.8003C15.2953 18.6012 15.7738 18.4244 16.1432 18.1021C16.5127 17.7798 16.7467 17.3349 16.8002 16.8535C17.2026 17.0207 17.65 17.0542 18.0737 16.949C18.4975 16.8438 18.8744 16.6056 19.1466 16.271C19.4188 15.9364 19.5715 15.5237 19.5811 15.0962C19.5908 14.6687 19.4569 14.2498 19.2 13.9038C19.4484 13.7216 19.65 13.4853 19.7889 13.2137C19.9277 12.9421 20 12.6426 20 12.3389ZM12.8004 4.12328V7.25303C12.8004 7.5643 12.9268 7.86283 13.1519 8.08293C13.3769 8.30304 13.6821 8.42669 14.0004 8.42669H15.6003C15.7063 8.42669 15.8081 8.46791 15.8831 8.54127C15.9581 8.61464 16.0002 8.71415 16.0002 8.81791V11.7208C15.748 11.6127 15.4757 11.5568 15.2003 11.5564V10.3828C15.2003 10.0715 15.0739 9.77299 14.8488 9.55288C14.6238 9.33278 14.3186 9.20913 14.0004 9.20913H12.4004C12.2944 9.20913 12.1926 9.16791 12.1176 9.09454C12.0426 9.02117 12.0005 8.92166 12.0005 8.81791V4.90571C12.0005 4.59444 11.874 4.29592 11.649 4.07581C11.424 3.85571 11.1188 3.73206 10.8005 3.73206H6.4008C6.57851 3.50052 6.70146 3.23328 6.76078 2.94962H11.6005C11.9187 2.94962 12.2239 3.07327 12.449 3.29338C12.674 3.51348 12.8004 3.812 12.8004 4.12328ZM14.4003 15.3043V15.8599C14.4003 15.9636 14.3582 16.0631 14.2832 16.1365C14.2082 16.2099 14.1064 16.2511 14.0004 16.2511H6.00082C5.89474 16.2511 5.793 16.2099 5.71799 16.1365C5.64298 16.0631 5.60084 15.9636 5.60084 15.8599V14.6862H8.80066C8.90674 14.6862 9.00847 14.645 9.08348 14.5716C9.15849 14.4982 9.20063 14.3987 9.20063 14.295C9.20063 14.1912 9.15849 14.0917 9.08348 14.0183C9.00847 13.945 8.90674 13.9038 8.80066 13.9038H5.60084V9.20913H8.40068C8.50676 9.20913 8.6085 9.16791 8.68351 9.09454C8.75852 9.02117 8.80066 8.92166 8.80066 8.81791C8.80066 8.71415 8.75852 8.61464 8.68351 8.54127C8.6085 8.46791 8.50676 8.42669 8.40068 8.42669H5.60084V6.86181C5.84922 6.67961 6.05082 6.44334 6.18966 6.17173C6.32851 5.90011 6.4008 5.60061 6.4008 5.29693C6.39921 5.02732 6.34066 4.76093 6.22881 4.5145H10.8005C10.9066 4.5145 11.0084 4.55571 11.0834 4.62908C11.1584 4.70245 11.2005 4.80196 11.2005 4.90571V6.07937H8.40068C8.2946 6.07937 8.19286 6.12059 8.11785 6.19396C8.04284 6.26733 8.0007 6.36683 8.0007 6.47059C8.0007 6.57435 8.04284 6.67386 8.11785 6.74723C8.19286 6.82059 8.2946 6.86181 8.40068 6.86181H11.2005V8.81791C11.2005 9.12918 11.3269 9.4277 11.552 9.64781C11.777 9.86791 12.0822 9.99156 12.4004 9.99156H14.0004C14.1064 9.99156 14.2082 10.0328 14.2832 10.1061C14.3582 10.1795 14.4003 10.279 14.4003 10.3828V11.7208C14.2593 11.7825 14.1252 11.8586 14.0004 11.9477H10.8005C10.6945 11.9477 10.5927 11.9889 10.5177 12.0622C10.4427 12.1356 10.4006 12.2351 10.4006 12.3389C10.4006 12.4426 10.4427 12.5421 10.5177 12.6155C10.5927 12.6889 10.6945 12.7301 10.8005 12.7301H13.3684C13.2572 12.9766 13.2 13.2431 13.2004 13.5125C13.2006 13.893 13.3142 14.2651 13.5273 14.5833C13.7405 14.9016 14.0438 15.1521 14.4003 15.3043ZM3.04099 4.7414C2.97478 4.69788 2.89678 4.67472 2.81701 4.6749C2.74522 4.67492 2.67476 4.69383 2.61302 4.72967C2.4169 4.8436 2.19165 4.90049 1.96366 4.89369C1.73567 4.88688 1.51439 4.81666 1.32574 4.69124C1.1371 4.56583 0.988903 4.39042 0.898531 4.18558C0.808159 3.98073 0.779352 3.75494 0.815486 3.53465C0.851619 3.31437 0.951197 3.10872 1.10255 2.94181C1.2539 2.77489 1.45075 2.65363 1.67004 2.59224C1.88933 2.53084 2.12197 2.53185 2.3407 2.59514C2.55942 2.65844 2.75517 2.7814 2.905 2.94962C2.96048 3.01123 3.03437 3.0542 3.1162 3.07245C3.19804 3.09071 3.28367 3.08332 3.36097 3.05134C3.43853 3.0195 3.50386 2.96456 3.54766 2.89433C3.59146 2.82409 3.61151 2.74214 3.60496 2.66012C3.60496 2.621 3.60496 2.5897 3.60496 2.55058C3.60434 2.33527 3.66429 2.12394 3.77824 1.93973C3.89219 1.75551 4.05576 1.6055 4.25103 1.50612C4.44631 1.40674 4.66577 1.36182 4.88541 1.37627C5.10504 1.39072 5.31637 1.46398 5.49629 1.58804C5.6762 1.7121 5.81775 1.88218 5.90546 2.07966C5.99317 2.27714 6.02364 2.49442 5.99355 2.7077C5.96346 2.92099 5.87397 3.12208 5.73486 3.28895C5.59576 3.45582 5.41241 3.58204 5.20487 3.65381C5.13643 3.67785 5.07599 3.71969 5.03005 3.77481C4.9841 3.82994 4.95439 3.89627 4.9441 3.96668C4.93382 4.03709 4.94336 4.10891 4.97168 4.17441C5.00001 4.23991 5.04606 4.29663 5.10487 4.33845C5.25958 4.44806 5.38529 4.59222 5.47156 4.75893C5.55782 4.92564 5.60215 5.11009 5.60084 5.29693C5.60084 5.60821 5.47442 5.90673 5.24939 6.12684C5.02436 6.34694 4.71915 6.47059 4.40091 6.47059C4.08267 6.47059 3.77747 6.34694 3.55243 6.12684C3.3274 5.90673 3.20098 5.60821 3.20098 5.29693C3.19702 5.24354 3.19702 5.18993 3.20098 5.13653C3.21446 5.06379 3.20658 4.98879 3.17826 4.92025C3.14995 4.8517 3.10235 4.7924 3.04099 4.74923V4.7414ZM14.8003 17.8159H5.20087C4.88263 17.8159 4.57742 17.6923 4.35239 17.4722C4.12736 17.2521 4.00094 16.9536 4.00094 16.6423V7.21C4.13231 7.23827 4.2664 7.25269 4.40091 7.25303C4.53518 7.25202 4.66907 7.23893 4.80089 7.21391V15.8599C4.80089 16.1711 4.92731 16.4696 5.15234 16.6898C5.37737 16.9099 5.68258 17.0335 6.00082 17.0335H14.0004C14.3186 17.0335 14.6238 16.9099 14.8488 16.6898C15.0739 16.4696 15.2003 16.1711 15.2003 15.8599V15.4686C15.3456 15.4684 15.4904 15.4526 15.6323 15.4217C15.687 15.7225 15.813 16.0065 16.0002 16.2511V16.6423C16.0002 16.9536 15.8738 17.2521 15.6488 17.4722C15.4238 17.6923 15.1185 17.8159 14.8003 17.8159ZM18.4001 13.4421C18.3317 13.4662 18.2712 13.508 18.2253 13.5631C18.1793 13.6182 18.1496 13.6846 18.1393 13.755C18.129 13.8254 18.1386 13.8972 18.1669 13.9627C18.1952 14.0282 18.2413 14.0849 18.3001 14.1268C18.4544 14.2352 18.5803 14.3779 18.6672 14.5432C18.7541 14.7084 18.7996 14.8916 18.8001 15.0774C18.8001 15.3887 18.6736 15.6872 18.4486 15.9073C18.2236 16.1274 17.9184 16.2511 17.6001 16.2511C17.2819 16.2511 16.9767 16.1274 16.7517 15.9073C16.5266 15.6872 16.4002 15.3887 16.4002 15.0774C16.3962 15.024 16.3962 14.9704 16.4002 14.917C16.4132 14.8425 16.4039 14.7659 16.3734 14.6965C16.3429 14.6271 16.2925 14.5678 16.2282 14.5258C16.162 14.4823 16.084 14.4591 16.0042 14.4593C15.9324 14.4593 15.862 14.4782 15.8002 14.5141C15.6033 14.6259 15.3779 14.6806 15.1504 14.6718C14.9229 14.663 14.7026 14.5911 14.5153 14.4645C14.328 14.3378 14.1814 14.1616 14.0927 13.9565C14.0039 13.7514 13.9767 13.5258 14.0141 13.3061C14.0516 13.0864 14.1521 12.8817 14.3041 12.7158C14.4561 12.55 14.6531 12.4298 14.8723 12.3694C15.0915 12.309 15.3237 12.3108 15.5418 12.3747C15.76 12.4386 15.955 12.5618 16.1042 12.7301C16.1597 12.7917 16.2336 12.8347 16.3154 12.8529C16.3973 12.8712 16.4829 12.8638 16.5602 12.8318C16.6378 12.8 16.7031 12.745 16.7469 12.6748C16.7907 12.6046 16.8107 12.5226 16.8042 12.4406C16.8042 12.4015 16.8042 12.3702 16.8042 12.3311C16.8036 12.1157 16.8635 11.9044 16.9775 11.7202C17.0914 11.536 17.255 11.386 17.4503 11.2866C17.6455 11.1872 17.865 11.1423 18.0846 11.1567C18.3043 11.1712 18.5156 11.2445 18.6955 11.3685C18.8754 11.4926 19.017 11.6627 19.1047 11.8601C19.1924 12.0576 19.2229 12.2749 19.1928 12.4882C19.1627 12.7015 19.0732 12.9026 18.9341 13.0694C18.795 13.2363 18.6116 13.3625 18.4041 13.4343L18.4001 13.4421Z"
            fill="#189DEF" />
    </g>
    <defs>
        <clipPath id="clip0_1714_9026">
            <rect width="20" height="20" fill="white" />
        </clipPath>
    </defs>
</svg>
    