<svg width="20" height="20" viewBox="0 0 20 20" fill="none" xmlns="http://www.w3.org/2000/svg">
    <g clip-path="url(#clip0_1714_9030)">
        <path
            d="M19.5125 14.7321C19.4483 14.7321 19.3848 14.7447 19.3255 14.7693C19.2662 14.7939 19.2124 14.8299 19.167 14.8752C19.1216 14.9206 19.0856 14.9745 19.0611 15.0337C19.0365 15.093 19.0239 15.1566 19.0239 15.2207V16.5246H16.9345L18.2267 12.998C18.2488 12.9378 18.2588 12.8738 18.2561 12.8097C18.2534 12.7456 18.2382 12.6826 18.2112 12.6244C18.1842 12.5662 18.146 12.5138 18.0988 12.4704C18.0516 12.4269 17.9963 12.3932 17.936 12.3711C17.8758 12.349 17.8117 12.339 17.7476 12.3417C17.6835 12.3444 17.6206 12.3596 17.5623 12.3866C17.5041 12.4136 17.4518 12.4518 17.4083 12.499C17.3649 12.5462 17.3311 12.6015 17.3091 12.6618L15.9669 16.3248L15.9604 16.3436C15.9177 16.4766 15.907 16.6179 15.9293 16.7559C15.9515 16.8938 16.006 17.0246 16.0883 17.1375C16.1707 17.2504 16.2785 17.3423 16.4031 17.4056C16.5276 17.469 16.6654 17.502 16.8052 17.502H19.0239V18.9685C19.0233 19.0331 19.0355 19.0971 19.0598 19.1569C19.0841 19.2167 19.12 19.271 19.1655 19.3169C19.2109 19.3627 19.265 19.3991 19.3246 19.4239C19.3841 19.4488 19.448 19.4616 19.5126 19.4616C19.5771 19.4616 19.641 19.4488 19.7006 19.4239C19.7602 19.3991 19.8142 19.3627 19.8597 19.3169C19.9051 19.271 19.941 19.2167 19.9653 19.1569C19.9896 19.0971 20.0018 19.0331 20.0012 18.9685V15.2207C20.0012 15.1566 19.9886 15.093 19.964 15.0337C19.9395 14.9744 19.9035 14.9206 19.8581 14.8752C19.8127 14.8298 19.7588 14.7938 19.6995 14.7693C19.6402 14.7447 19.5767 14.7321 19.5125 14.7321Z"
            fill="#189DEF" />
        <path
            d="M15.1934 18.4798H12.5972C12.8649 18.2126 13.228 17.912 13.546 17.6488C14.5235 16.8396 15.5343 16.0028 15.5343 15.0762V14.3657C15.5354 14.0991 15.484 13.8349 15.3827 13.5882C15.2815 13.3416 15.1326 13.1174 14.9445 12.9285C14.7564 12.7395 14.5329 12.5896 14.2867 12.4873C14.0405 12.3851 13.7765 12.3324 13.5099 12.3324C13.2433 12.3324 12.9794 12.3851 12.7332 12.4873C12.487 12.5896 12.2634 12.7395 12.0753 12.9285C11.8872 13.1174 11.7383 13.3416 11.6371 13.5882C11.5359 13.8349 11.4844 14.0991 11.4856 14.3657V14.5339C11.4867 14.6628 11.5387 14.786 11.6302 14.8767C11.7217 14.9674 11.8454 15.0182 11.9742 15.0182C12.1031 15.0182 12.2267 14.9674 12.3182 14.8767C12.4097 14.786 12.4617 14.6628 12.4629 14.5339V14.3657C12.4629 14.088 12.5732 13.8216 12.7695 13.6253C12.9659 13.4289 13.2322 13.3186 13.5099 13.3186C13.7876 13.3186 14.0539 13.4289 14.2503 13.6253C14.4467 13.8216 14.557 14.088 14.557 14.3657V15.0762C14.557 15.5431 13.6124 16.325 12.9228 16.896C12.148 17.5374 11.4783 18.0919 11.2897 18.6789C11.2593 18.7673 11.2505 18.8617 11.2639 18.9542C11.2774 19.0468 11.3127 19.1347 11.367 19.2109C11.4213 19.287 11.493 19.349 11.5762 19.3918C11.6593 19.4347 11.7514 19.457 11.8449 19.457H15.1934C15.323 19.457 15.4473 19.4055 15.5389 19.3139C15.6306 19.2223 15.682 19.098 15.682 18.9684C15.682 18.8388 15.6306 18.7145 15.5389 18.6228C15.4473 18.5312 15.323 18.4797 15.1934 18.4797V18.4798Z"
            fill="#189DEF" />
        <path
            d="M17.7293 9.34668H16.8135C16.6623 9.34668 16.5174 9.40673 16.4105 9.51363C16.3036 9.62053 16.2435 9.76551 16.2435 9.91668C16.2435 10.0679 16.3036 10.2128 16.4105 10.3197C16.5174 10.4266 16.6623 10.4867 16.8135 10.4867H18.3021C18.4593 10.4808 18.6082 10.4149 18.7183 10.3026C18.8284 10.1903 18.8914 10.0401 18.8942 9.88281C18.8659 7.39601 17.8581 5.02066 16.0896 3.27215C14.321 1.52363 11.9344 0.542982 9.44742 0.542969C4.23828 0.542969 0 4.7809 0 9.99023C0 15.1996 4.23828 19.4375 9.44742 19.4375C9.56964 19.4375 9.68861 19.3982 9.7868 19.3254C9.88498 19.2526 9.95718 19.1502 9.99273 19.0333C10.0098 18.9845 10.0182 18.9332 10.0174 18.8816V17.2828C10.0174 17.1316 9.95737 16.9866 9.85047 16.8797C9.74358 16.7728 9.5986 16.7128 9.44742 16.7128C9.29625 16.7128 9.15127 16.7728 9.04437 16.8797C8.93748 16.9866 8.87742 17.1316 8.87742 17.2828V18.2777C4.72551 17.995 1.4018 14.6484 1.15527 10.4867H2.08129C2.23246 10.4867 2.37744 10.4266 2.48434 10.3197C2.59124 10.2128 2.65129 10.0679 2.65129 9.91668C2.65129 9.76551 2.59124 9.62053 2.48434 9.51363C2.37744 9.40673 2.23246 9.34668 2.08129 9.34668H1.16477C1.47984 5.25352 4.77449 1.98219 8.87742 1.70277V2.55078C8.87742 2.70195 8.93748 2.84694 9.04437 2.95383C9.15127 3.06073 9.29625 3.12078 9.44742 3.12078C9.5986 3.12078 9.74358 3.06073 9.85047 2.95383C9.95737 2.84694 10.0174 2.70195 10.0174 2.55078V1.70312C14.1042 1.98398 17.4128 5.26172 17.7293 9.34668Z"
            fill="#189DEF" />
        <path
            d="M9.44817 6.12268C9.297 6.12268 9.15202 6.18273 9.04512 6.28963C8.93823 6.39653 8.87817 6.54151 8.87817 6.69268V9.66081L5.02364 11.8823C4.89267 11.9578 4.79704 12.0823 4.75781 12.2283C4.71858 12.3742 4.73895 12.5298 4.81444 12.6608C4.88994 12.7918 5.01437 12.8874 5.16037 12.9267C5.30636 12.9659 5.46196 12.9455 5.59294 12.87L9.73282 10.4841C9.74325 10.4781 9.75235 10.4724 9.76099 10.4665C9.84001 10.4147 9.9049 10.344 9.9498 10.2609C9.9947 10.1777 10.0182 10.0847 10.0182 9.99022V6.69268C10.0182 6.54151 9.95812 6.39653 9.85123 6.28963C9.74433 6.18273 9.59935 6.12268 9.44817 6.12268Z"
            fill="#189DEF" />
    </g>
    <defs>
        <clipPath id="clip0_1714_9030">
            <rect width="20" height="20" fill="white" />
        </clipPath>
    </defs>
</svg>
    