<svg width="20" height="20" viewBox="0 0 20 20" fill="none" xmlns="http://www.w3.org/2000/svg">
    <path
        d="M19.7604 16.7469C19.6776 16.2588 19.2465 15.9053 18.7395 15.9053H17.1563C17.2839 15.3667 17.2839 14.882 17.2529 14.5285C17.2356 14.3568 17.0873 14.2222 16.9079 14.2222H16.563V4.71228C16.563 3.08634 15.2109 1.76674 13.5415 1.76674C11.8721 1.76674 10.5235 3.08634 10.5235 4.71228V6.63446C10.5235 6.96099 10.3269 7.2606 10.0199 7.39862L9.66464 7.55684V7.15287C9.66464 7.04852 9.6129 6.94753 9.52667 6.88357L8.70921 6.28099L8.18494 4.37228C8.14355 4.22416 8.00903 4.12317 7.85036 4.12317H6.90184V3.61822C6.90184 2.50396 5.974 1.59842 4.83232 1.59842C3.69064 1.59842 2.7628 2.50396 2.7628 3.61822V4.12317H1.81428C1.65906 4.12317 1.52109 4.22416 1.4797 4.37228L0.955427 6.28099L0.137968 6.88357C0.0517379 6.94753 0 7.04515 0 7.15287V16.5786C0 16.9489 0.310427 17.2519 0.689839 17.2519V17.9252C0.689839 18.2954 1.00027 18.5984 1.37968 18.5984H2.06952C2.44893 18.5984 2.75935 18.2954 2.75935 17.9252V17.2519H6.89839V17.9252C6.89839 18.2954 7.20881 18.5984 7.58823 18.5984H8.27806C8.65748 18.5984 8.9679 18.2954 8.9679 17.9252V17.2519C9.34731 17.2519 9.65774 16.9489 9.65774 16.5786V9.77862L10.6753 9.32416C11.8342 8.80911 12.5861 7.67129 12.5861 6.42575V4.70891C12.5861 4.19723 13.0104 3.78317 13.5381 3.78317C14.0658 3.78317 14.4866 4.19723 14.4866 4.70891V14.2188H14.1417C13.9623 14.2188 13.814 14.3501 13.7968 14.5252C13.7623 14.8786 13.7657 15.3634 13.8934 15.902H12.3102C11.8031 15.902 11.3754 16.2554 11.2892 16.7469L11.0409 18.2046C11.0236 18.3022 11.0512 18.4032 11.1168 18.4772C11.1823 18.5513 11.2789 18.5951 11.3789 18.5951H19.657C19.757 18.5951 19.8536 18.5513 19.9191 18.4772C19.9846 18.4032 20.0122 18.3022 19.995 18.2046L19.7466 16.7469H19.7604ZM3.45609 3.61822C3.45609 2.87426 4.0735 2.27169 4.83577 2.27169C5.59804 2.27169 6.21545 2.87426 6.21545 3.61822V4.12317H3.45609V3.61822ZM0.696737 7.32119L1.46936 6.74891C1.53144 6.70515 1.57283 6.64119 1.59353 6.56713L2.07986 4.79644H7.58823L8.07456 6.56713C8.09526 6.63783 8.1401 6.70179 8.19873 6.74891L8.97135 7.32119V9.17268H0.696737V7.32119ZM2.07641 17.9252H1.38658V17.2519H2.07641V17.9252ZM8.28496 17.9252H7.59512V17.2519H8.28496V17.9252ZM0.696737 16.5786V9.84594H8.9748V16.5786H0.696737ZM13.5415 3.11327C12.6378 3.11327 11.9032 3.8303 11.9032 4.71228V6.42911C11.9032 7.41208 11.3134 8.30753 10.3959 8.71485L9.66464 9.04139V8.3008L10.3062 8.01466C10.8581 7.76891 11.2133 7.2303 11.2133 6.63782V4.71565C11.2133 3.46337 12.2584 2.44337 13.545 2.44337C14.8315 2.44337 15.8732 3.46337 15.8732 4.71565V14.2255H15.1834V4.71565C15.1834 3.83367 14.4487 3.11664 13.5415 3.11664V3.11327ZM14.8384 14.8954H16.5803C16.5837 15.3196 16.5182 15.865 16.2492 16.4406C16.2285 16.4877 16.2043 16.5315 16.1836 16.5753C16.056 16.821 15.8111 16.9691 15.5317 16.9691C15.2523 16.9691 15.0074 16.821 14.8764 16.5753C14.8522 16.5315 14.8315 16.4844 14.8108 16.4372C14.5418 15.8616 14.4728 15.3162 14.4797 14.8954H14.8419H14.8384ZM11.7962 17.9252L11.979 16.858C12.0066 16.6964 12.1515 16.5786 12.3171 16.5786H14.121C14.1417 16.6257 14.2314 16.8277 14.259 16.8816C14.5039 17.3529 14.9902 17.6457 15.5283 17.6457C16.0663 17.6457 16.5527 17.3529 16.7976 16.8816C16.8252 16.8277 16.9183 16.6257 16.9355 16.5786H18.7395C18.905 16.5786 19.0533 16.6998 19.0775 16.858L19.2603 17.9252H11.7962Z"
        fill="#189DEF" />
</svg>
    