<svg width="20" height="20" viewBox="0 0 20 20" fill="none" xmlns="http://www.w3.org/2000/svg">
<path d="M4.37489 5.9375C4.37489 4.6943 4.86875 3.50201 5.74783 2.62294C6.62691 1.74386 7.81919 1.25 9.06239 1.25C10.3056 1.25 11.4979 1.74386 12.377 2.62294C13.256 3.50201 13.7499 4.6943 13.7499 5.9375C13.7499 6.10326 13.684 6.26223 13.5668 6.37944C13.4496 6.49665 13.2907 6.5625 13.1249 6.5625C12.9591 6.5625 12.8002 6.49665 12.683 6.37944C12.5657 6.26223 12.4999 6.10326 12.4999 5.9375C12.4999 5.02582 12.1377 4.15148 11.4931 3.50682C10.8484 2.86216 9.97407 2.5 9.06239 2.5C8.15071 2.5 7.27637 2.86216 6.63171 3.50682C5.98706 4.15148 5.62489 5.02582 5.62489 5.9375C5.62489 6.10326 5.55904 6.26223 5.44183 6.37944C5.32462 6.49665 5.16565 6.5625 4.99989 6.5625C4.83413 6.5625 4.67516 6.49665 4.55795 6.37944C4.44074 6.26223 4.37489 6.10326 4.37489 5.9375ZM15.3124 9.375C14.9478 9.3746 14.5889 9.46566 14.2686 9.63984C14.1729 9.34367 14.0151 9.07133 13.8058 8.84102C13.5964 8.61071 13.3403 8.42773 13.0545 8.30431C12.7688 8.18089 12.46 8.11987 12.1488 8.12532C11.8376 8.13078 11.5311 8.20258 11.2499 8.33594V5.9375C11.2499 5.35734 11.0194 4.80094 10.6092 4.3907C10.199 3.98047 9.64255 3.75 9.06239 3.75C8.48223 3.75 7.92583 3.98047 7.5156 4.3907C7.10536 4.80094 6.87489 5.35734 6.87489 5.9375V12.1875L6.57646 11.7086C6.28461 11.2071 5.80549 10.842 5.2445 10.6937C4.6835 10.5455 4.08658 10.6261 3.58505 10.918C3.08352 11.2098 2.71847 11.6889 2.5702 12.2499C2.42193 12.8109 2.50258 13.4078 2.79442 13.9094L5.08505 17.8156C5.12347 17.8917 5.17704 17.9591 5.24247 18.0137C5.3079 18.0683 5.38381 18.109 5.46554 18.1332C5.54726 18.1574 5.63307 18.1646 5.71768 18.1544C5.8023 18.1442 5.88394 18.1168 5.95758 18.0739C6.03123 18.031 6.09532 17.9735 6.14591 17.9049C6.19651 17.8364 6.23254 17.7581 6.2518 17.6751C6.27105 17.5921 6.27312 17.506 6.25788 17.4221C6.24264 17.3383 6.21041 17.2584 6.16317 17.1875L3.87489 13.2813C3.81065 13.1745 3.76831 13.0561 3.75036 12.9329C3.7324 12.8096 3.73918 12.684 3.77031 12.5634C3.80143 12.4428 3.85628 12.3296 3.93164 12.2304C4.00701 12.1313 4.10137 12.0481 4.20923 11.9858C4.31709 11.9236 4.43628 11.8834 4.55984 11.8677C4.6834 11.852 4.80885 11.861 4.92887 11.8944C5.04888 11.9277 5.16105 11.9846 5.25883 12.0617C5.3566 12.1389 5.43802 12.2348 5.49833 12.3438L5.50927 12.3617L6.96864 14.7055C7.0403 14.8211 7.14771 14.9102 7.27458 14.9592C7.40146 15.0082 7.54086 15.0145 7.67165 14.9772C7.80243 14.9398 7.91745 14.8608 7.99925 14.7521C8.08105 14.6434 8.12516 14.511 8.12489 14.375V5.9375C8.12489 5.68886 8.22366 5.4504 8.39948 5.27459C8.5753 5.09877 8.81375 5 9.06239 5C9.31103 5 9.54949 5.09877 9.72531 5.27459C9.90112 5.4504 9.99989 5.68886 9.99989 5.9375V11.25C9.99989 11.4158 10.0657 11.5747 10.183 11.6919C10.3002 11.8092 10.4591 11.875 10.6249 11.875C10.7907 11.875 10.9496 11.8092 11.0668 11.6919C11.184 11.5747 11.2499 11.4158 11.2499 11.25V10.3125C11.2499 10.0639 11.3487 9.8254 11.5245 9.64959C11.7003 9.47377 11.9388 9.375 12.1874 9.375C12.436 9.375 12.6745 9.47377 12.8503 9.64959C13.0261 9.8254 13.1249 10.0639 13.1249 10.3125V11.875C13.1249 12.0408 13.1907 12.1997 13.308 12.3169C13.4252 12.4342 13.5841 12.5 13.7499 12.5C13.9157 12.5 14.0746 12.4342 14.1918 12.3169C14.309 12.1997 14.3749 12.0408 14.3749 11.875V11.5625C14.3749 11.3139 14.4737 11.0754 14.6495 10.8996C14.8253 10.7238 15.0638 10.625 15.3124 10.625C15.561 10.625 15.7995 10.7238 15.9753 10.8996C16.1511 11.0754 16.2499 11.3139 16.2499 11.5625V14.375C16.2499 16.0633 15.6952 17.2109 15.6905 17.2203C15.6165 17.3686 15.6043 17.5402 15.6568 17.6974C15.7092 17.8546 15.822 17.9845 15.9702 18.0586C16.0569 18.1024 16.1527 18.1252 16.2499 18.125C16.366 18.1251 16.4798 18.0928 16.5786 18.0318C16.6774 17.9708 16.7573 17.8835 16.8093 17.7797C16.8382 17.7227 17.5007 16.3734 17.5007 14.375V11.5625C17.5007 11.2752 17.4441 10.9907 17.3341 10.7252C17.2241 10.4597 17.0629 10.2186 16.8597 10.0154C16.6565 9.81229 16.4152 9.65118 16.1498 9.54129C15.8843 9.4314 15.5997 9.3749 15.3124 9.375Z" fill="#189DEF"/>
</svg>
