<svg width="25" height="17" viewBox="0 0 25 17" fill="none" xmlns="http://www.w3.org/2000/svg">
    <path
        d="M22.3457 0.401611H2.3457C1.24113 0.401611 0.345703 1.29704 0.345703 2.40161V14.4016C0.345703 15.5062 1.24113 16.4016 2.3457 16.4016H22.3457C23.4503 16.4016 24.3457 15.5062 24.3457 14.4016V2.40161C24.3457 1.29704 23.4503 0.401611 22.3457 0.401611Z"
        fill="#016FD0" />
    <path fill-rule="evenodd" clip-rule="evenodd"
        d="M14.1094 13.7955V8.09412L24.2569 8.10322V9.67812L23.084 10.9315L24.2569 12.1964V13.8047H22.3843L21.3891 12.7065L20.401 13.8089L14.1094 13.7955Z"
        fill="#FFFFFE" />
    <path fill-rule="evenodd" clip-rule="evenodd"
        d="M14.7871 13.1704V8.72156H18.5594V9.74644H16.0085V10.4421H18.4986V11.45H16.0085V12.1333H18.5594V13.1704H14.7871Z"
        fill="#016FD0" />
    <path fill-rule="evenodd" clip-rule="evenodd"
        d="M18.5411 13.1704L20.6284 10.9433L18.541 8.72156H20.1567L21.4322 10.1316L22.7113 8.72156H24.2574V8.75656L22.2146 10.9433L24.2574 13.1072V13.1704H22.6957L21.3976 11.7462L20.1128 13.1704H18.5411Z"
        fill="#016FD0" />
    <path fill-rule="evenodd" clip-rule="evenodd"
        d="M14.5826 3.03357H17.0286L17.8878 4.98442V3.03357H20.9076L21.4284 4.49514L21.9509 3.03357H24.2568V8.73496H12.0703L14.5826 3.03357Z"
        fill="#FFFFFE" />
    <path fill-rule="evenodd" clip-rule="evenodd"
        d="M15.0463 3.65295L13.0723 8.09813H14.4262L14.7986 7.20796H16.8165L17.1887 8.09813H18.5763L16.6105 3.65295H15.0463ZM15.2159 6.21039L15.8079 4.79532L16.3995 6.21039H15.2159Z"
        fill="#016FD0" />
    <path fill-rule="evenodd" clip-rule="evenodd"
        d="M18.5576 8.0973V3.65222L20.4607 3.65876L21.44 6.39149L22.4256 3.65222H24.2572V8.0973L23.0786 8.10774V5.05439L21.9661 8.0973H20.8903L19.7546 5.04396V8.0973H18.5576Z"
        fill="#016FD0" />
</svg>
    