<svg width="25" height="17" viewBox="0 0 25 17" fill="none" xmlns="http://www.w3.org/2000/svg">
    <path
        d="M22.343 16.1515L22.3451 16.1515C23.3002 16.1597 24.0838 15.3789 24.0957 14.4058L24.0957 2.40791C24.0919 1.9373 23.9046 1.48778 23.5754 1.15841C23.2471 0.82988 22.8046 0.64776 22.343 0.651682L2.34634 0.651673C1.8868 0.64776 1.44428 0.82988 1.11598 1.15841C0.786848 1.48778 0.599541 1.9373 0.595711 2.40587L0.595703 14.3953C0.599541 14.8659 0.786848 15.3154 1.11598 15.6448C1.44428 15.9733 1.8868 16.1555 2.34847 16.1515H22.343ZM22.3419 16.6515C22.3415 16.6515 22.3412 16.6515 22.3408 16.6515L22.343 16.6515H22.3419Z"
        fill="white" stroke="black" stroke-opacity="0.2" stroke-width="0.5" />
    <path
        d="M12.958 16.4015H22.3428C22.8696 16.4059 23.3766 16.2009 23.7522 15.8315C24.1278 15.4621 24.3412 14.9586 24.3456 14.4319V12.0732C20.8018 14.1076 16.9584 15.5684 12.958 16.4015Z"
        fill="#F27712" />
    <path
        d="M23.5177 9.69805H22.6653L21.7053 8.43184H21.6142V9.69805H20.9191V6.55322H21.9453C22.748 6.55322 23.2115 6.88425 23.2115 7.48011C23.2115 7.96839 22.9218 8.28287 22.4004 8.38218L23.5177 9.69805ZM22.4915 7.50494C22.4915 7.19873 22.2597 7.04149 21.8294 7.04149H21.6142V7.99322H21.8129C22.2597 7.99322 22.4915 7.8277 22.4915 7.50494ZM18.486 6.55322H20.4556V7.08287H19.1811V7.78632H20.406V8.32425H19.1811V9.17667H20.4556V9.70632H18.486V6.55322ZM16.2515 9.7808L14.7453 6.54494H15.5066L16.4584 8.66356L17.4184 6.54494H18.1632L16.6404 9.7808H16.268H16.2515ZM9.95354 9.77253C8.89423 9.77253 8.06664 9.05253 8.06664 8.11736C8.06664 7.20701 8.91078 6.47046 9.97009 6.47046C10.268 6.47046 10.5163 6.52839 10.8225 6.6608V7.38908C10.5906 7.16126 10.2786 7.03349 9.95354 7.03322C9.29147 7.03322 8.78664 7.51322 8.78664 8.11736C8.78664 8.7546 9.2832 9.20977 9.98664 9.20977C10.3011 9.20977 10.5411 9.11046 10.8225 8.86218V9.59046C10.508 9.72287 10.2432 9.77253 9.95354 9.77253ZM7.85147 8.73805C7.85147 9.35046 7.34664 9.77253 6.61837 9.77253C6.08871 9.77253 5.70802 9.59046 5.38527 9.17667L5.84044 8.7877C5.99768 9.06908 6.26251 9.20977 6.59354 9.20977C6.90802 9.20977 7.13147 9.01942 7.13147 8.77115C7.13147 8.63046 7.06527 8.52287 6.92458 8.44011C6.77031 8.36526 6.60968 8.30433 6.44458 8.25805C5.79078 8.05115 5.56733 7.8277 5.56733 7.38908C5.56733 6.87598 6.04733 6.48701 6.6763 6.48701C7.07354 6.48701 7.4294 6.61115 7.72733 6.84287L7.3632 7.25667C7.21887 7.09845 7.01459 7.00832 6.80044 7.00839C6.50251 7.00839 6.28733 7.15736 6.28733 7.35598C6.28733 7.52149 6.41147 7.61253 6.82527 7.75322C7.61975 8.00149 7.85147 8.23322 7.85147 8.74632V8.73805ZM4.43354 6.55322H5.12871V9.70632H4.43354V6.55322ZM2.19906 9.70632H1.17285V6.55322H2.19906C3.32458 6.55322 4.10251 7.19873 4.10251 8.12563C4.10251 8.59736 3.87078 9.04425 3.46527 9.34218C3.11768 9.59046 2.72871 9.70632 2.19078 9.70632H2.19906ZM3.01009 7.33942C2.77837 7.15736 2.51354 7.09115 2.05837 7.09115H1.86802V9.17667H2.05837C2.50527 9.17667 2.78664 9.09391 3.01009 8.92839C3.25009 8.72977 3.39078 8.43184 3.39078 8.12563C3.39078 7.81942 3.25009 7.52977 3.01009 7.33942Z"
        fill="black" />
    <path
        d="M12.7597 6.47046C11.8493 6.47046 11.1045 7.19873 11.1045 8.1008C11.1045 9.0608 11.8162 9.7808 12.7597 9.7808C13.6866 9.7808 14.4148 9.05253 14.4148 8.12563C14.4148 7.19873 13.6948 6.47046 12.7597 6.47046Z"
        fill="#F27712" />
</svg>
    