<svg width="25" height="17" viewBox="0 0 25 17" fill="none" xmlns="http://www.w3.org/2000/svg">
    <path
        d="M22.3457 0.401611H2.3457C1.24113 0.401611 0.345703 1.29704 0.345703 2.40161V14.4016C0.345703 15.5062 1.24113 16.4016 2.3457 16.4016H22.3457C23.4503 16.4016 24.3457 15.5062 24.3457 14.4016V2.40161C24.3457 1.29704 23.4503 0.401611 22.3457 0.401611Z"
        fill="#252525" />
    <path
        d="M9.3457 13.4016C12.1071 13.4016 14.3457 11.163 14.3457 8.40161C14.3457 5.64019 12.1071 3.40161 9.3457 3.40161C6.58428 3.40161 4.3457 5.64019 4.3457 8.40161C4.3457 11.163 6.58428 13.4016 9.3457 13.4016Z"
        fill="#EB001B" />
    <path
        d="M15.3457 13.4016C18.1071 13.4016 20.3457 11.163 20.3457 8.40161C20.3457 5.64019 18.1071 3.40161 15.3457 3.40161C12.5843 3.40161 10.3457 5.64019 10.3457 8.40161C10.3457 11.163 12.5843 13.4016 15.3457 13.4016Z"
        fill="#F79E1B" />
    <path fill-rule="evenodd" clip-rule="evenodd"
        d="M12.3457 4.40125C13.5601 5.31345 14.3457 6.76579 14.3457 8.40161C14.3457 10.0374 13.5601 11.4898 12.3457 12.402C11.1313 11.4898 10.3457 10.0374 10.3457 8.40161C10.3457 6.76579 11.1313 5.31345 12.3457 4.40125Z"
        fill="#FF5F00" />
</svg>
    