<svg width="48" height="33" viewBox="0 0 48 33" fill="none" xmlns="http://www.w3.org/2000/svg">
    <rect x="0.845703" y="0.901611" width="45.6667" height="31" rx="3.5" fill="white"
        stroke="#E5E5EA" />
    <path fill-rule="evenodd" clip-rule="evenodd"
        d="M13.5457 20.7229H11.4716C11.3296 20.7229 11.2089 20.8261 11.1868 20.9661L10.3479 26.2849C10.3312 26.3899 10.4125 26.4845 10.5189 26.4845H11.5092C11.6511 26.4845 11.7718 26.3813 11.7939 26.2409L12.0202 24.8064C12.042 24.6659 12.163 24.5629 12.3047 24.5629H12.9613C14.3276 24.5629 15.1161 23.9017 15.3221 22.5915C15.4149 22.0183 15.3261 21.568 15.0576 21.2524C14.7628 20.9062 14.2399 20.7229 13.5457 20.7229ZM13.785 22.6655C13.6716 23.4098 13.1029 23.4098 12.5531 23.4098H12.2401L12.4597 22.0197C12.4727 21.9358 12.5455 21.8739 12.6304 21.8739H12.7739C13.1484 21.8739 13.5018 21.8739 13.6844 22.0874C13.7932 22.2148 13.8266 22.404 13.785 22.6655ZM19.7459 22.6416H18.7526C18.668 22.6416 18.5948 22.7035 18.5818 22.7876L18.5379 23.0654L18.4684 22.9647C18.2534 22.6526 17.7739 22.5483 17.2953 22.5483C16.1976 22.5483 15.2602 23.3796 15.0776 24.5458C14.9828 25.1274 15.1176 25.6836 15.4476 26.0715C15.7503 26.4282 16.1835 26.5768 16.6987 26.5768C17.5831 26.5768 18.0736 26.0081 18.0736 26.0081L18.0292 26.2842C18.0125 26.3897 18.0938 26.4843 18.1996 26.4843H19.0944C19.2367 26.4843 19.3567 26.3812 19.3791 26.2408L19.916 22.8412C19.933 22.7367 19.852 22.6416 19.7459 22.6416ZM18.3613 24.5748C18.2654 25.1423 17.8151 25.5232 17.2407 25.5232C16.9523 25.5232 16.7217 25.4307 16.5738 25.2554C16.427 25.0814 16.3711 24.8335 16.4179 24.5576C16.5074 23.9949 16.9654 23.6016 17.531 23.6016C17.813 23.6016 18.0423 23.6953 18.1933 23.8721C18.3446 24.0508 18.4047 24.3 18.3613 24.5748ZM24.0377 22.6415H25.0358C25.1756 22.6415 25.2572 22.7983 25.1777 22.9129L21.858 27.7048C21.8043 27.7824 21.7157 27.8286 21.6211 27.8286H20.6242C20.4838 27.8286 20.4019 27.6706 20.4831 27.5556L21.5168 26.0965L20.4174 22.8701C20.3794 22.758 20.4622 22.6415 20.5815 22.6415H21.5623C21.6897 22.6415 21.8022 22.7252 21.8389 22.8471L22.4224 24.7958L23.7991 22.768C23.853 22.6888 23.9425 22.6415 24.0377 22.6415Z"
        fill="#253B80" />
    <path fill-rule="evenodd" clip-rule="evenodd"
        d="M34.8599 26.2849L35.7111 20.8689C35.7242 20.7848 35.797 20.7229 35.8816 20.7227H36.84C36.9458 20.7227 37.027 20.8175 37.0103 20.9225L36.1709 26.241C36.149 26.3813 36.0283 26.4845 35.8861 26.4845H35.0303C34.9244 26.4845 34.8432 26.3899 34.8599 26.2849ZM28.3407 20.7229H26.2662C26.1246 20.7229 26.0039 20.8261 25.9817 20.9662L25.1428 26.2849C25.1261 26.3899 25.2074 26.4845 25.3133 26.4845H26.3778C26.4767 26.4845 26.5613 26.4124 26.5768 26.3141L26.8148 24.8065C26.8367 24.666 26.9577 24.5629 27.0993 24.5629H27.7556C29.1222 24.5629 29.9105 23.9018 30.1167 22.5916C30.2098 22.0184 30.1204 21.568 29.852 21.2525C29.5574 20.9062 29.0349 20.7229 28.3407 20.7229ZM28.58 22.6655C28.4669 23.4098 27.8982 23.4098 27.348 23.4098H27.0353L27.2552 22.0198C27.2683 21.9359 27.3404 21.874 27.4256 21.874H27.5691C27.9434 21.874 28.2971 21.874 28.4795 22.0874C28.5884 22.2149 28.6216 22.4041 28.58 22.6655ZM34.5403 22.6417H33.5477C33.4624 22.6417 33.39 22.7036 33.3772 22.7876L33.3333 23.0654L33.2635 22.9648C33.0485 22.6526 32.5694 22.5483 32.0908 22.5483C30.9931 22.5483 30.0559 23.3796 29.8733 24.5458C29.7787 25.1274 29.9131 25.6836 30.243 26.0716C30.5463 26.4282 30.9789 26.5768 31.4941 26.5768C32.3785 26.5768 32.8689 26.0081 32.8689 26.0081L32.8247 26.2842C32.808 26.3898 32.8892 26.4844 32.9957 26.4844H33.8901C34.0317 26.4844 34.1524 26.3812 34.1746 26.2408L34.7117 22.8413C34.7281 22.7367 34.6468 22.6417 34.5403 22.6417ZM33.1559 24.5749C33.0606 25.1423 32.6096 25.5232 32.0352 25.5232C31.7473 25.5232 31.5163 25.4307 31.3682 25.2554C31.2214 25.0814 31.1663 24.8335 31.2124 24.5576C31.3024 23.9949 31.7598 23.6017 32.3254 23.6017C32.6075 23.6017 32.8367 23.6953 32.9879 23.8721C33.1397 24.0508 33.1998 24.3001 33.1559 24.5749Z"
        fill="#179BD7" />
    <path
        d="M21.2216 18.8201L21.4766 17.2005L20.9086 17.1873H18.1963L20.0812 5.23553C20.087 5.19944 20.106 5.1658 20.1338 5.14191C20.1616 5.11802 20.1973 5.10486 20.2343 5.10486H24.8077C26.326 5.10486 27.3737 5.4208 27.9208 6.0444C28.1772 6.33695 28.3406 6.64264 28.4196 6.97907C28.5024 7.33208 28.504 7.75382 28.423 8.26821L28.4171 8.30575V8.63534L28.6736 8.78064C28.8896 8.89521 29.0612 9.02637 29.1928 9.17655C29.4123 9.42667 29.5542 9.74456 29.6141 10.1214C29.676 10.5091 29.6555 10.9703 29.5542 11.4925C29.4372 12.0932 29.248 12.6163 28.9925 13.0444C28.7574 13.4389 28.4581 13.766 28.1027 14.0196C27.7633 14.2604 27.3601 14.4433 26.9042 14.5603C26.4624 14.6753 25.9588 14.7334 25.4064 14.7334H25.0505C24.796 14.7334 24.5487 14.8251 24.3548 14.9894C24.1602 15.1571 24.0314 15.3862 23.992 15.6368L23.9651 15.7827L23.5146 18.6373L23.4941 18.7421C23.4888 18.7754 23.4795 18.7919 23.4659 18.8032C23.4537 18.8133 23.4362 18.8201 23.419 18.8201H21.2216Z"
        fill="#253B80" />
    <path
        d="M28.9165 8.34399C28.9029 8.43126 28.8873 8.52049 28.8698 8.61215C28.2666 11.7087 26.2033 12.7784 23.5679 12.7784H22.2261C21.9039 12.7784 21.6323 13.0125 21.5821 13.3303L20.895 17.6873L20.7005 18.9223C20.6678 19.131 20.8288 19.3192 21.0393 19.3192H23.4193C23.7011 19.3192 23.9404 19.1144 23.9847 18.8365L24.0082 18.7155L24.4563 15.872L24.4851 15.7161C24.5289 15.4372 24.7687 15.2324 25.0506 15.2324H25.4065C27.7122 15.2324 29.5172 14.2963 30.0448 11.5873C30.2652 10.4556 30.1511 9.51075 29.5679 8.84618C29.3915 8.64579 29.1725 8.47953 28.9165 8.34399Z"
        fill="#179BD7" />
    <path
        d="M28.2856 8.09258C28.1936 8.06576 28.0984 8.04138 28.0009 8.01944C27.9029 7.99799 27.8024 7.97898 27.6991 7.9624C27.3373 7.90389 26.9409 7.8761 26.5162 7.8761H22.9316C22.8434 7.8761 22.7596 7.89608 22.6845 7.93217C22.5192 8.01164 22.3963 8.16816 22.3666 8.35976L21.6039 13.1896L21.582 13.3305C21.6323 13.0126 21.9039 12.7786 22.2261 12.7786H23.5679C26.2032 12.7786 28.2667 11.7084 28.8698 8.61232C28.8877 8.52066 28.9029 8.43144 28.9165 8.34417C28.7639 8.26323 28.5986 8.19399 28.4206 8.13499C28.3769 8.12037 28.3315 8.10623 28.2856 8.09258Z"
        fill="#222D65" />
    <path
        d="M22.3661 8.35963C22.3959 8.16801 22.5188 8.0115 22.684 7.93251C22.7597 7.89643 22.843 7.87644 22.9312 7.87644H26.5159C26.9406 7.87644 27.337 7.90423 27.6986 7.96274C27.8021 7.97932 27.9026 7.99833 28.0005 8.01978C28.0981 8.04173 28.1931 8.06611 28.2853 8.09292C28.3311 8.10657 28.3764 8.12071 28.4207 8.13485C28.5987 8.19384 28.764 8.26357 28.9166 8.34402C29.0961 7.19969 28.9152 6.42056 28.2965 5.71504C27.6144 4.93835 26.3833 4.60583 24.808 4.60583H20.2345C19.9127 4.60583 19.6383 4.83986 19.5884 5.15824L17.6836 17.2329C17.646 17.4718 17.8303 17.6873 18.0711 17.6873H20.8947L21.6036 13.1895L22.3661 8.35963Z"
        fill="#253B80" />
</svg>
    