<svg width="48" height="33" viewBox="0 0 48 33" fill="none" xmlns="http://www.w3.org/2000/svg">
    <rect x="0.845703" y="0.901611" width="45.6667" height="31" rx="3.5" fill="white"
        stroke="#E5E5EA" />
    <path fill-rule="evenodd" clip-rule="evenodd"
        d="M25.42 11.2575L23.0494 11.7663V9.8443L25.42 9.34497V11.2575ZM15.7865 10.4378L13.482 10.9278L13.4726 18.4743C13.4726 19.8686 14.5209 20.8956 15.9187 20.8956C16.6932 20.8956 17.2598 20.7543 17.5715 20.5847V18.6721C17.2693 18.7946 15.777 19.228 15.777 17.8336V14.489H17.5715V12.4823H15.777L15.7865 10.4378ZM10.2049 14.3666C9.70438 14.3666 9.40215 14.5079 9.40215 14.8753C9.40215 15.2765 9.92228 15.453 10.5676 15.6719C11.6195 16.0288 13.0041 16.4986 13.0099 18.2388C13.0099 19.9252 11.6594 20.8956 9.69493 20.8956C8.8827 20.8956 7.99492 20.7354 7.11658 20.3586V18.1163C7.90992 18.5497 8.91104 18.87 9.69493 18.87C10.2238 18.87 10.6016 18.7287 10.6016 18.2953C10.6016 17.8509 10.0378 17.6478 9.35707 17.4026C8.32041 17.0291 7.0127 16.558 7.0127 14.9884C7.0127 13.3208 8.2877 12.3221 10.2049 12.3221C10.9888 12.3221 11.7633 12.4446 12.5472 12.7555V14.9695C11.8294 14.5833 10.9227 14.3666 10.2049 14.3666ZM37.6032 12.3221C39.8416 12.3221 41.0127 14.2253 41.0127 16.6371C41.0127 16.7673 41.0064 16.985 41.0011 17.1696V17.1697V17.1698C40.9972 17.3057 40.9938 17.4237 40.9938 17.4756H36.3755C36.4793 18.5874 37.2916 18.9077 38.2077 18.9077C39.1427 18.9077 39.8793 18.7098 40.5216 18.3895V20.2738C39.8793 20.6318 39.0293 20.8862 37.9055 20.8862C35.601 20.8862 33.9954 19.4541 33.9954 16.6183C33.9954 14.2253 35.3554 12.3221 37.6032 12.3221ZM37.5937 14.2347C36.9987 14.2347 36.3471 14.6775 36.3471 15.7421H38.7838C38.7838 14.6775 38.1699 14.2347 37.5937 14.2347ZM20.5089 13.1795L20.3578 12.4823H18.3178V20.726H20.6789V15.1391C21.2361 14.4137 22.1806 14.5456 22.4733 14.6492V12.4823C22.1711 12.3692 21.0661 12.162 20.5089 13.1795ZM23.0492 12.4823H25.4198V20.726H23.0492V12.4823ZM30.3498 12.3221C29.4242 12.3221 28.8292 12.7555 28.4987 13.057L28.3759 12.4729H26.2981V23.4582L28.6592 22.9589L28.6687 20.2926C29.0087 20.5376 29.5092 20.8862 30.3403 20.8862C32.0309 20.8862 33.5703 19.5295 33.5703 16.5429C33.5609 13.8107 32.0026 12.3221 30.3498 12.3221ZM29.7831 18.8134C29.2259 18.8134 28.8953 18.6156 28.6686 18.3706L28.6592 14.8753C28.9048 14.6021 29.2448 14.4137 29.7831 14.4137C30.6425 14.4137 31.2375 15.3746 31.2375 16.6088C31.2375 17.8713 30.652 18.8134 29.7831 18.8134Z"
        fill="#6461FC" />
</svg>
    