<svg width="25" height="17" viewBox="0 0 25 17" fill="none" xmlns="http://www.w3.org/2000/svg">
    <g clip-path="url(#clip0_1779_5735)">
        <path
            d="M22.0957 0.651611H2.5957C1.49113 0.651611 0.595703 1.54704 0.595703 2.65161V14.1516C0.595703 15.2562 1.49113 16.1516 2.5957 16.1516H22.0957C23.2003 16.1516 24.0957 15.2562 24.0957 14.1516V2.65161C24.0957 1.54704 23.2003 0.651611 22.0957 0.651611Z"
            fill="white" stroke="black" stroke-opacity="0.2" stroke-width="0.5" />
        <path
            d="M3.13344 6.31605C2.61029 6.02912 2.01324 5.79835 1.3457 5.6382L1.3737 5.51349H4.11068C4.48167 5.5265 4.78269 5.63812 4.88065 6.03232L5.47547 8.8682L5.65769 9.72234L7.32367 5.51349H9.12249L6.44858 11.6791H4.64967L3.13344 6.31605ZM10.4457 11.6857H8.74453L9.80855 5.51349H11.5096L10.4457 11.6857ZM16.6125 5.66439L16.3811 6.9972L16.2273 6.93166C15.9194 6.80686 15.5131 6.68215 14.9601 6.69532C14.2884 6.69532 13.9872 6.96438 13.9803 7.22707C13.9803 7.51603 14.3446 7.70645 14.9396 7.98886C15.9197 8.4288 16.3743 8.96718 16.3675 9.6698C16.3538 10.9502 15.1917 11.7777 13.4068 11.7777C12.6436 11.771 11.9085 11.6197 11.5095 11.4492L11.7476 10.0637L11.9716 10.1623C12.5246 10.3923 12.8885 10.4906 13.5677 10.4906C14.0575 10.4906 14.5826 10.3 14.5893 9.8865C14.5893 9.61726 14.3656 9.42012 13.7074 9.11807C13.0635 8.82248 12.2025 8.33009 12.2165 7.44359C12.2238 6.24204 13.4068 5.40161 15.0867 5.40161C15.7447 5.40161 16.2769 5.5395 16.6125 5.66439ZM18.8735 9.4991H20.2874C20.2175 9.1905 19.8953 7.71309 19.8953 7.71309L19.7764 7.18125C19.6924 7.41104 19.5456 7.78535 19.5526 7.77217C19.5526 7.77217 19.0135 9.14451 18.8735 9.4991ZM20.9733 5.51349L22.3457 11.6856H20.7706C20.7706 11.6856 20.6165 10.9764 20.5676 10.7597H18.3835C18.3203 10.9238 18.0265 11.6856 18.0265 11.6856H16.2415L18.7683 6.0256C18.9434 5.62503 19.2517 5.51349 19.6575 5.51349H20.9733Z"
            fill="#171E6C" />
    </g>
    <defs>
        <clipPath id="clip0_1779_5735">
            <rect width="24" height="16" fill="white" transform="translate(0.345703 0.401611)" />
        </clipPath>
    </defs>
</svg>
    